<svg width="168" height="168" viewBox="0 0 168 168" fill="none" xmlns="http://www.w3.org/2000/svg">
<path d="M144.335 31.009L143.116 29.7427C143.258 29.5619 143.358 29.3746 143.416 29.1809C143.477 28.9853 143.498 28.788 143.481 28.589C143.464 28.39 143.409 28.1941 143.317 28.0012C143.226 27.8103 143.099 27.63 142.935 27.4604C142.64 27.1539 142.307 26.9603 141.936 26.8794C141.567 26.7967 141.177 26.8318 140.768 26.9848C140.36 27.136 139.951 27.4091 139.54 27.8043C139.118 28.2106 138.824 28.6146 138.657 29.0163C138.492 29.4199 138.446 29.806 138.519 30.1744C138.591 30.5428 138.771 30.8764 139.059 31.1752C139.22 31.3428 139.392 31.4767 139.573 31.5766C139.757 31.6785 139.945 31.7445 140.137 31.7747C140.331 31.803 140.525 31.7944 140.719 31.7489C140.915 31.7053 141.106 31.6219 141.292 31.4987L142.505 32.7706C142.201 32.9994 141.861 33.1698 141.482 33.2818C141.107 33.3938 140.715 33.4355 140.305 33.4069C139.898 33.3783 139.492 33.2684 139.085 33.0771C138.682 32.8859 138.297 32.6004 137.932 32.2207C137.424 31.6926 137.089 31.1054 136.927 30.4591C136.767 29.8146 136.798 29.154 137.019 28.4771C137.241 27.8021 137.675 27.1548 138.318 26.5351C138.964 25.9136 139.63 25.5063 140.317 25.3132C141.004 25.1201 141.666 25.1175 142.304 25.3057C142.943 25.4919 143.514 25.8453 144.015 26.3657C144.345 26.7087 144.603 27.0731 144.789 27.4588C144.976 27.8465 145.087 28.2431 145.121 28.6486C145.156 29.0523 145.11 29.4535 144.981 29.8521C144.854 30.2527 144.639 30.6383 144.335 31.009ZM142.045 36.6703L140.909 35.1947L149.153 32.4313L150.518 34.2059L145.733 41.4629L144.597 39.9873L148.367 34.4893L148.327 34.4384L142.045 36.6703ZM144.534 34.6081L147.216 38.0936L146.141 38.9208L143.459 35.4353L144.534 34.6081ZM146.276 42.2814L153.24 37.9166L154.162 39.3888L148.413 42.9928L150.284 45.978L149.07 46.7388L146.276 42.2814ZM149.625 47.7425L156.946 44.0082L157.736 45.556L151.691 48.6393L153.292 51.7778L152.016 52.4288L149.625 47.7425ZM161.265 53.2612L161.951 55.2913L157.445 59.2031L157.476 59.2943L163.431 59.6707L164.117 61.7007L156.332 64.3318L155.792 62.7351L160.86 61.0226L160.838 60.958L155.127 60.6428L154.76 59.5555L159.128 55.8346L159.106 55.77L154.019 57.4889L153.48 55.8923L161.265 53.2612ZM156.707 65.7004L164.744 63.9861L165.899 69.402L164.498 69.7008L163.706 65.9843L161.791 66.3927L162.524 69.8306L161.123 70.1294L160.39 66.6916L158.47 67.1009L159.266 70.8331L157.865 71.1319L156.707 65.7004ZM160.185 77.966C160.16 77.6433 160.216 77.3424 160.353 77.0635C160.492 76.7843 160.689 76.5544 160.943 76.3736C161.197 76.1955 161.486 76.0939 161.809 76.0689C162.134 76.0436 162.435 76.0993 162.711 76.2362C162.99 76.3755 163.219 76.5724 163.397 76.8269C163.578 77.0811 163.681 77.3696 163.706 77.6924C163.731 78.0178 163.674 78.3187 163.535 78.5952C163.398 78.8741 163.202 79.1026 162.948 79.2807C162.696 79.4613 162.408 79.5642 162.082 79.5895C161.76 79.6146 161.459 79.5575 161.18 79.4182C160.901 79.2815 160.671 79.0861 160.49 78.8318C160.312 78.58 160.211 78.2914 160.185 77.966ZM112.3 155.009C112.601 154.889 112.904 154.853 113.211 154.9C113.519 154.95 113.798 155.069 114.046 155.258C114.292 155.448 114.475 155.693 114.595 155.994C114.716 156.297 114.752 156.6 114.704 156.905C114.654 157.213 114.534 157.49 114.344 157.736C114.156 157.984 113.911 158.168 113.61 158.288C113.307 158.409 113.003 158.445 112.697 158.394C112.39 158.346 112.114 158.228 111.868 158.038C111.621 157.852 111.437 157.607 111.316 157.304C111.195 157.003 111.16 156.699 111.21 156.391C111.257 156.084 111.376 155.806 111.564 155.558C111.752 155.313 111.997 155.13 112.3 155.009ZM99.2836 162.839L100.992 162.427C101.077 162.64 101.188 162.821 101.325 162.97C101.464 163.121 101.623 163.239 101.803 163.325C101.984 163.411 102.18 163.462 102.394 163.48C102.605 163.498 102.824 163.479 103.053 163.424C103.467 163.324 103.802 163.134 104.059 162.855C104.317 162.578 104.484 162.224 104.558 161.793C104.634 161.365 104.605 160.874 104.471 160.32C104.334 159.75 104.134 159.292 103.871 158.946C103.606 158.599 103.296 158.365 102.942 158.241C102.587 158.118 102.208 158.104 101.805 158.202C101.579 158.256 101.377 158.337 101.199 158.443C101.018 158.55 100.866 158.679 100.743 158.83C100.62 158.983 100.53 159.155 100.471 159.345C100.41 159.536 100.386 159.743 100.398 159.965L98.6876 160.37C98.6433 159.993 98.6685 159.612 98.7631 159.229C98.8557 158.849 99.018 158.489 99.2498 158.15C99.4796 157.814 99.7798 157.518 100.15 157.264C100.519 157.012 100.96 156.825 101.472 156.701C102.184 156.529 102.86 156.537 103.5 156.723C104.137 156.911 104.692 157.271 105.164 157.804C105.634 158.337 105.974 159.038 106.184 159.907C106.394 160.778 106.409 161.558 106.229 162.249C106.049 162.939 105.716 163.512 105.232 163.967C104.748 164.425 104.155 164.739 103.453 164.908C102.99 165.02 102.545 165.059 102.118 165.024C101.689 164.99 101.291 164.885 100.924 164.71C100.557 164.537 100.235 164.294 99.9555 163.981C99.6739 163.67 99.4499 163.289 99.2836 162.839ZM95.5549 158.002L97.4021 157.768L95.618 166.277L93.3965 166.558L89.5553 158.76L91.4026 158.527L94.2399 164.559L94.3036 164.551L95.5549 158.002ZM96.0754 161.192L91.7121 161.743L91.542 160.398L95.9053 159.846L96.0754 161.192ZM88.5746 158.814L88.8029 167.029L87.0661 167.077L86.8776 160.294L83.3557 160.392L83.3159 158.96L88.5746 158.814ZM82.1696 158.933L81.7241 167.139L79.9891 167.045L80.357 160.269L76.8389 160.078L76.9166 158.648L82.1696 158.933ZM71.529 166.207L69.4303 165.774L68.3284 159.91L68.234 159.89L64.9027 164.841L62.804 164.409L64.4631 156.36L66.1138 156.7L65.0339 161.939L65.1007 161.953L68.2555 157.182L69.3795 157.414L70.3867 163.063L70.4535 163.076L71.5374 157.818L73.188 158.158L71.529 166.207ZM63.0924 155.993L60.5185 163.798L55.2595 162.064L55.7082 160.703L59.3171 161.893L59.9304 160.034L56.592 158.933L57.0407 157.572L60.379 158.673L60.9936 156.81L57.3694 155.614L57.8181 154.254L63.0924 155.993ZM50.7403 152.834C51.0317 152.975 51.2636 153.175 51.4358 153.433C51.6069 153.694 51.7065 153.98 51.7347 154.291C51.7605 154.6 51.7029 154.901 51.5621 155.192C51.4202 155.486 51.2206 155.718 50.9632 155.888C50.7023 156.059 50.4171 156.157 50.1076 156.183C49.7969 156.211 49.4958 156.155 49.2043 156.014C48.9104 155.872 48.6792 155.671 48.5105 155.412C48.3383 155.153 48.2393 154.869 48.2135 154.56C48.1842 154.251 48.2405 153.95 48.3824 153.656C48.5232 153.365 48.7241 153.134 48.985 152.963C49.2434 152.79 49.528 152.69 49.8387 152.662C50.1459 152.635 50.4464 152.693 50.7403 152.834ZM8.33655 73.1463C8.29011 73.4666 8.1696 73.7478 7.97502 73.9899C7.77779 74.2317 7.53528 74.4128 7.24751 74.5332C6.96011 74.6511 6.65624 74.6868 6.33589 74.6403C6.01289 74.5935 5.73166 74.473 5.4922 74.2788C5.25048 74.0816 5.0707 73.8392 4.95288 73.5519C4.8324 73.2641 4.79539 72.96 4.84182 72.6397C4.88865 72.3167 5.01048 72.0356 5.20733 71.7965C5.40191 71.5544 5.6429 71.3745 5.93029 71.2566C6.21542 71.1358 6.51949 71.0988 6.84248 71.1456C7.16283 71.192 7.44387 71.3139 7.6856 71.5111C7.9277 71.7057 8.10899 71.9469 8.22947 72.2346C8.34768 72.5194 8.38337 72.8233 8.33655 73.1463ZM8.01649 57.9735L7.52805 59.6619C7.30069 59.6296 7.08845 59.6364 6.89134 59.6824C6.69165 59.7277 6.50986 59.8074 6.34596 59.9215C6.18206 60.0356 6.03974 60.181 5.91899 60.3577C5.79898 60.5319 5.70627 60.732 5.64085 60.9581C5.52264 61.3667 5.52118 61.752 5.63647 62.114C5.74919 62.4752 5.97412 62.7951 6.31127 63.0737C6.64584 63.3515 7.08682 63.5696 7.63419 63.7279C8.19698 63.8907 8.69398 63.944 9.12521 63.8877C9.55718 63.8289 9.91468 63.6761 10.1977 63.4294C10.4807 63.1827 10.6799 62.8601 10.7951 62.4618C10.8598 62.2382 10.8901 62.0228 10.886 61.8155C10.8826 61.6057 10.846 61.4099 10.776 61.2282C10.7035 61.0457 10.5992 60.8818 10.4629 60.7365C10.3275 60.5887 10.1599 60.4651 9.96037 60.3656L10.4565 58.6794C10.8062 58.828 11.1241 59.0383 11.4102 59.3104C11.6945 59.5792 11.9266 59.8984 12.1065 60.268C12.2846 60.6342 12.3924 61.0413 12.4299 61.4894C12.4655 61.9341 12.4101 62.4096 12.2637 62.9159C12.06 63.62 11.7185 64.2035 11.2392 64.6664C10.7607 65.1268 10.1731 65.4302 9.47624 65.5767C8.78015 65.7206 8.00295 65.6685 7.14463 65.4201C6.28374 65.1711 5.59818 64.7973 5.08795 64.2988C4.57772 63.8003 4.24485 63.2278 4.08935 62.5813C3.93128 61.934 3.95261 61.2634 4.15334 60.5696C4.28567 60.1122 4.47259 59.7067 4.71408 59.3533C4.95632 58.9973 5.24465 58.7033 5.57908 58.4715C5.91094 58.2389 6.28169 58.0788 6.69134 57.9912C7.10174 57.9011 7.54345 57.8952 8.01649 57.9735ZM14.0677 57.133L13.3535 58.8526L6.8521 53.0803L7.71096 51.0124L16.3872 51.5483L15.673 53.2678L9.02819 52.737L9.00356 52.7963L14.0677 57.133ZM11.0398 56.0015L12.7268 51.9399L13.9793 52.4601L12.2924 56.5217L11.0398 56.0015ZM16.8306 50.671L9.60241 46.7604L10.4292 45.2322L16.3974 48.4611L18.0739 45.3623L19.3338 46.0439L16.8306 50.671ZM19.9329 45.0649L13.0654 40.551L14.0198 39.099L19.6902 42.8261L21.6254 39.8819L22.8225 40.6688L19.9329 45.0649ZM18.9475 32.2202L20.3696 30.6173L26.002 32.5887L26.0659 32.5167L23.4375 27.1593L24.8596 25.5564L31.0071 31.0103L29.8887 32.2711L25.8873 28.7212L25.8421 28.7722L28.4019 33.8864L27.6403 34.7449L22.2425 32.7992L22.1973 32.8503L26.2136 36.4135L25.0951 37.6742L18.9475 32.2202ZM32.0088 30.004L26.523 23.8848L30.6463 20.1883L31.6026 21.255L28.773 23.7916L30.0802 25.2497L32.6976 22.9033L33.6539 23.97L31.0364 26.3164L32.3463 27.7775L35.1878 25.2302L36.144 26.2968L32.0088 30.004ZM40.9046 20.8653C40.637 21.0474 40.3482 21.1484 40.0382 21.1684C39.7267 21.1861 39.4294 21.1295 39.1462 20.9986C38.8653 20.8662 38.6337 20.6662 38.4517 20.3986C38.2681 20.1287 38.1671 19.8399 38.1486 19.5322C38.1308 19.2207 38.1881 18.9245 38.3206 18.6435C38.4515 18.3603 38.6507 18.1277 38.9184 17.9456C39.1882 17.762 39.4778 17.6621 39.787 17.6459C40.097 17.6259 40.3925 17.6821 40.6734 17.8145C40.9551 17.9432 41.1878 18.1425 41.3713 18.4123C41.5534 18.68 41.6533 18.9695 41.6711 19.281C41.6911 19.5909 41.6356 19.8875 41.5047 20.1707C41.3745 20.4502 41.1745 20.6817 40.9046 20.8653ZM131.109 23.8097C130.854 23.6103 130.67 23.3661 130.556 23.0769C130.444 22.7857 130.408 22.4853 130.446 22.1757C130.486 21.8677 130.606 21.5862 130.806 21.3312C131.007 21.0741 131.251 20.8899 131.539 20.7784C131.83 20.6666 132.129 20.6309 132.437 20.6713C132.747 20.7096 133.029 20.8285 133.284 21.0279C133.541 21.2289 133.725 21.4742 133.835 21.7638C133.948 22.0529 133.985 22.3515 133.944 22.6595C133.908 22.967 133.789 23.2493 133.588 23.5064C133.388 23.7614 133.143 23.9448 132.852 24.0567C132.563 24.1702 132.263 24.2078 131.954 24.1695C131.648 24.1307 131.366 24.0107 131.109 23.8097Z" fill="black"/>
<path d="M158.686 88.082C158.715 87.5157 158.846 87.0162 159.077 86.5836C159.309 86.1537 159.614 85.8187 159.994 85.5787C160.373 85.3387 160.8 85.2257 161.273 85.2397L161.185 86.9228C160.866 86.9249 160.602 87.045 160.391 87.2831C160.18 87.5212 160.066 87.8113 160.048 88.1532C160.034 88.4257 160.081 88.6693 160.191 88.884C160.303 89.1015 160.464 89.2746 160.674 89.4035C160.887 89.5352 161.135 89.6084 161.418 89.6232C161.706 89.6383 161.963 89.5901 162.189 89.4786C162.414 89.3699 162.594 89.2118 162.728 89.0045C162.862 88.7972 162.938 88.5561 162.955 88.281C162.967 88.0406 162.93 87.8043 162.843 87.572C162.756 87.3424 162.63 87.1604 162.466 87.0259L162.823 85.4975L167.13 86.1124L166.868 91.1296L165.45 91.0554L165.637 87.4689L163.592 87.1491L163.59 87.1972C163.785 87.352 163.942 87.5786 164.061 87.8767C164.179 88.1749 164.229 88.5043 164.21 88.865C164.184 89.3592 164.045 89.794 163.792 90.1692C163.54 90.5444 163.204 90.8336 162.787 91.0368C162.371 91.2401 161.901 91.3267 161.375 91.2965C160.821 91.2703 160.337 91.1164 159.92 90.8348C159.506 90.556 159.188 90.179 158.967 89.704C158.747 89.2318 158.654 88.6912 158.686 88.082ZM166.142 97.062L158.007 95.8946L158.254 94.1747L164.756 95.1078L164.763 95.0601L163.862 93.0296L165.388 93.2485L166.374 95.4454L166.142 97.062ZM156.772 100.915C156.93 100.243 157.229 99.7026 157.67 99.2938C158.11 98.8876 158.671 98.6263 159.355 98.5098C160.037 98.3959 160.816 98.4416 161.691 98.6468C162.564 98.8489 163.279 99.1501 163.834 99.5504C164.389 99.9534 164.771 100.433 164.98 100.989C165.191 101.549 165.219 102.164 165.064 102.833C164.909 103.503 164.614 104.042 164.179 104.449C163.744 104.859 163.188 105.123 162.513 105.242C161.84 105.361 161.067 105.318 160.195 105.113C159.317 104.91 158.596 104.606 158.033 104.201C157.47 103.799 157.08 103.319 156.863 102.761C156.647 102.202 156.616 101.587 156.772 100.915ZM158.175 101.24C158.069 101.698 158.215 102.118 158.613 102.498C159.011 102.879 159.671 103.174 160.595 103.385C161.202 103.526 161.722 103.58 162.155 103.548C162.587 103.519 162.931 103.415 163.187 103.235C163.442 103.058 163.605 102.817 163.676 102.512C163.781 102.056 163.638 101.639 163.245 101.259C162.852 100.88 162.201 100.584 161.292 100.371C160.677 100.229 160.15 100.171 159.709 100.198C159.271 100.229 158.923 100.333 158.665 100.513C158.409 100.692 158.246 100.935 158.175 101.24ZM159.25 110.509L157.959 110.095L159.102 106.526L160.394 106.94L159.25 110.509ZM154.178 110.385L159.104 116.111L159.155 116.133L160.673 112.466L161.986 113.009L159.78 118.337L158.449 117.786L153.492 112.043L154.178 110.385ZM150.224 118.769C150.488 118.267 150.815 117.868 151.207 117.572C151.597 117.278 152.014 117.102 152.459 117.043C152.905 116.983 153.339 117.059 153.763 117.27L152.979 118.762C152.689 118.63 152.398 118.629 152.107 118.757C151.816 118.885 151.591 119.101 151.432 119.404C151.305 119.645 151.246 119.886 151.256 120.127C151.266 120.371 151.34 120.596 151.477 120.801C151.615 121.01 151.81 121.18 152.061 121.312C152.317 121.446 152.57 121.51 152.822 121.503C153.072 121.499 153.301 121.43 153.51 121.298C153.718 121.166 153.888 120.978 154.018 120.736C154.13 120.523 154.195 120.292 154.213 120.045C154.23 119.8 154.192 119.582 154.099 119.391L155.063 118.152L158.718 120.513L156.381 124.96L155.124 124.299L156.794 121.12L155.071 119.974L155.049 120.017C155.161 120.239 155.209 120.511 155.192 120.831C155.175 121.152 155.082 121.472 154.914 121.791C154.684 122.229 154.376 122.566 153.989 122.801C153.603 123.036 153.177 123.159 152.713 123.168C152.25 123.179 151.787 123.061 151.322 122.814C150.83 122.558 150.454 122.216 150.194 121.786C149.934 121.359 149.803 120.884 149.801 120.36C149.799 119.839 149.94 119.309 150.224 118.769ZM146.536 125.023C146.848 124.548 147.212 124.183 147.631 123.926C148.047 123.672 148.48 123.537 148.929 123.521C149.378 123.505 149.803 123.623 150.205 123.874L149.279 125.283C149.003 125.124 148.714 125.094 148.412 125.193C148.11 125.292 147.865 125.485 147.677 125.771C147.527 125.999 147.445 126.234 147.431 126.474C147.418 126.718 147.47 126.949 147.586 127.167C147.704 127.388 147.881 127.576 148.118 127.732C148.36 127.89 148.606 127.978 148.857 127.996C149.106 128.015 149.341 127.97 149.561 127.858C149.782 127.747 149.969 127.577 150.122 127.348C150.254 127.147 150.341 126.924 150.383 126.679C150.424 126.437 150.407 126.217 150.333 126.018L151.412 124.878L154.822 127.582L152.064 131.782L150.877 131.002L152.848 128L151.244 126.692L151.217 126.733C151.308 126.965 151.329 127.24 151.281 127.557C151.233 127.874 151.11 128.184 150.911 128.485C150.64 128.899 150.3 129.204 149.893 129.401C149.485 129.597 149.05 129.678 148.587 129.643C148.126 129.609 147.676 129.446 147.236 129.155C146.772 128.853 146.431 128.475 146.214 128.022C145.997 127.572 145.912 127.087 145.961 126.565C146.01 126.046 146.202 125.532 146.536 125.023ZM145.629 134.615L144.562 133.779L146.872 130.828L147.94 131.664L145.629 134.615ZM142.07 133.654L143.07 134.588L144.678 140.785L143.873 141.647L142.489 140.355L142.965 139.844L141.94 135.927L141.893 135.883L138.565 139.446L137.548 138.496L142.07 133.654ZM138.322 135.551L139.682 136.822L140.103 137.259L144.306 141.184L143.193 142.375L137.188 136.765L138.322 135.551ZM136.702 139.31L137.603 140.341L138.577 146.668L137.689 147.445L136.442 146.019L136.968 145.559L136.343 141.558L136.301 141.51L132.63 144.719L131.714 143.671L136.702 139.31ZM132.781 140.819L134.007 142.221L134.381 142.698L138.166 147.027L136.939 148.1L131.531 141.912L132.781 140.819ZM127.119 145.003C127.684 144.607 128.267 144.402 128.868 144.39C129.466 144.379 130.06 144.557 130.647 144.924C131.233 145.292 131.785 145.844 132.302 146.579C132.82 147.311 133.153 148.01 133.302 148.679C133.449 149.349 133.415 149.961 133.202 150.515C132.987 151.074 132.6 151.552 132.039 151.949C131.477 152.346 130.899 152.553 130.304 152.568C129.706 152.585 129.115 152.413 128.532 152.052C127.95 151.694 127.402 151.148 126.886 150.416C126.365 149.68 126.029 148.974 125.877 148.297C125.724 147.623 125.752 147.005 125.961 146.444C126.17 145.882 126.556 145.402 127.119 145.003ZM127.952 146.179C127.568 146.451 127.398 146.862 127.442 147.41C127.487 147.959 127.784 148.619 128.333 149.39C128.693 149.899 129.046 150.285 129.39 150.55C129.733 150.815 130.059 150.966 130.37 151.002C130.678 151.039 130.96 150.967 131.215 150.786C131.597 150.516 131.768 150.108 131.726 149.564C131.685 149.02 131.395 148.366 130.858 147.602C130.493 147.087 130.137 146.693 129.79 146.421C129.443 146.152 129.113 145.999 128.801 145.961C128.49 145.926 128.207 145.998 127.952 146.179ZM124.985 156.44C124.618 156.648 124.229 156.787 123.819 156.856C123.407 156.926 122.991 156.902 122.57 156.783C122.147 156.666 121.731 156.428 121.322 156.069C120.912 155.714 120.523 155.213 120.155 154.567C119.811 153.959 119.573 153.378 119.44 152.823C119.307 152.271 119.272 151.757 119.338 151.281C119.403 150.804 119.566 150.377 119.826 150C120.087 149.625 120.439 149.312 120.881 149.062C121.358 148.792 121.832 148.645 122.302 148.622C122.772 148.602 123.21 148.688 123.614 148.881C124.017 149.077 124.355 149.362 124.628 149.736L123.137 150.58C122.931 150.352 122.694 150.218 122.426 150.179C122.159 150.143 121.889 150.202 121.614 150.358C121.148 150.621 120.909 151.024 120.896 151.566C120.884 152.11 121.078 152.737 121.476 153.446L121.525 153.419C121.513 153.149 121.555 152.886 121.651 152.632C121.749 152.381 121.892 152.147 122.081 151.933C122.268 151.72 122.493 151.539 122.756 151.39C123.177 151.151 123.609 151.038 124.052 151.049C124.494 151.059 124.909 151.184 125.297 151.423C125.684 151.662 126.003 152.004 126.255 152.449C126.528 152.927 126.659 153.417 126.648 153.918C126.636 154.42 126.49 154.89 126.21 155.328C125.928 155.77 125.52 156.141 124.985 156.44ZM124.303 155.259C124.538 155.125 124.716 154.951 124.837 154.735C124.956 154.521 125.015 154.289 125.015 154.04C125.013 153.792 124.945 153.552 124.811 153.321C124.678 153.085 124.507 152.902 124.298 152.772C124.088 152.645 123.862 152.576 123.619 152.566C123.376 152.559 123.137 152.622 122.905 152.753C122.73 152.852 122.587 152.976 122.474 153.126C122.362 153.275 122.284 153.438 122.239 153.614C122.193 153.794 122.181 153.977 122.204 154.164C122.227 154.351 122.286 154.529 122.382 154.699C122.513 154.924 122.683 155.101 122.895 155.23C123.106 155.359 123.336 155.429 123.585 155.439C123.833 155.449 124.073 155.389 124.303 155.259ZM42.7764 146.407C43.2495 146.72 43.6137 147.086 43.8691 147.505C44.1222 147.923 44.2559 148.356 44.2703 148.805C44.2846 149.253 44.1657 149.678 43.9135 150.079L42.5076 149.15C42.6675 148.874 42.6983 148.585 42.6 148.282C42.5016 147.98 42.3096 147.734 42.024 147.546C41.7963 147.395 41.5623 147.312 41.3218 147.298C41.0777 147.284 40.8468 147.335 40.6291 147.451C40.4077 147.567 40.2188 147.744 40.0624 147.98C39.903 148.221 39.8142 148.467 39.7959 148.718C39.7753 148.968 39.8204 149.203 39.931 149.423C40.0417 149.644 40.2112 149.831 40.4396 149.986C40.6404 150.118 40.863 150.206 41.1073 150.249C41.3493 150.29 41.57 150.274 41.7693 150.201L42.9053 151.284L40.1905 154.684L35.9996 151.914L36.783 150.729L39.7789 152.709L41.0916 151.109L41.0515 151.083C40.8188 151.173 40.544 151.193 40.227 151.144C39.91 151.095 39.6009 150.97 39.2996 150.771C38.8868 150.498 38.5827 150.158 38.3875 149.75C38.1923 149.342 38.1131 148.906 38.1499 148.443C38.1852 147.982 38.3493 147.533 38.6422 147.094C38.9454 146.631 39.3239 146.291 39.7779 146.075C40.2282 145.86 40.7143 145.777 41.2361 145.827C41.7542 145.877 42.2676 146.071 42.7764 146.407ZM31.2717 148.313L36.3781 141.874L37.7395 142.953L33.6578 148.1L33.6956 148.13L35.9032 148.375L34.9458 149.582L32.5513 149.328L31.2717 148.313ZM32.6716 138.271C33.171 138.747 33.4855 139.279 33.6151 139.866C33.7428 140.451 33.684 141.068 33.4387 141.716C33.1915 142.362 32.758 143.011 32.1381 143.662C31.522 144.313 30.9008 144.776 30.2745 145.053C29.6461 145.327 29.0392 145.414 28.4536 145.313C27.8642 145.211 27.3198 144.925 26.8205 144.452C26.3212 143.979 26.0059 143.452 25.8745 142.871C25.7412 142.288 25.7944 141.676 26.0342 141.033C26.2721 140.393 26.7 139.748 27.3181 139.099C27.9379 138.444 28.5646 137.977 29.1985 137.696C29.8303 137.414 30.4419 137.321 31.033 137.416C31.6241 137.511 32.1703 137.796 32.6716 138.271ZM31.6812 139.317C31.3393 138.993 30.9036 138.907 30.3741 139.058C29.8445 139.209 29.2552 139.629 28.6061 140.318C28.1776 140.771 27.8675 141.192 27.6757 141.581C27.4819 141.969 27.3978 142.319 27.4234 142.63C27.4471 142.94 27.5725 143.202 27.7998 143.417C28.1398 143.739 28.5727 143.827 29.0986 143.68C29.6244 143.533 30.2092 143.121 30.853 142.445C31.287 141.987 31.6036 141.561 31.8029 141.167C31.9984 140.774 32.0843 140.421 32.0605 140.107C32.035 139.796 31.9085 139.532 31.6812 139.317ZM23.1414 135.56L24.1511 134.654L26.6536 137.444L25.6439 138.35L23.1414 135.56ZM25.8097 131.246L18.3819 132.617L18.3372 132.651L20.7406 135.809L19.6102 136.67L16.1181 132.081L17.2644 131.209L24.7234 129.818L25.8097 131.246ZM20.5572 123.608C20.8582 124.089 21.0381 124.573 21.097 125.06C21.1544 125.545 21.0966 125.995 20.9237 126.409C20.7508 126.823 20.4665 127.161 20.0709 127.421L19.1764 125.993C19.4363 125.808 19.5841 125.558 19.6199 125.242C19.6556 124.926 19.5826 124.623 19.4009 124.332C19.2561 124.101 19.0773 123.929 18.8645 123.816C18.648 123.702 18.4167 123.653 18.1706 123.668C17.9208 123.683 17.6757 123.765 17.4354 123.916C17.1905 124.069 17.0078 124.256 16.8871 124.477C16.7651 124.695 16.7087 124.928 16.718 125.174C16.7273 125.421 16.8039 125.662 16.9479 125.897C17.0757 126.101 17.2419 126.273 17.4465 126.413C17.6496 126.551 17.8571 126.628 18.0689 126.644L18.6542 128.1L14.7745 130.07L12.1082 125.812L13.3121 125.058L15.2182 128.102L17.0758 127.19L17.0502 127.149C16.8012 127.135 16.5427 127.039 16.2746 126.863C16.0064 126.687 15.7765 126.446 15.5849 126.14C15.3222 125.72 15.1866 125.284 15.178 124.832C15.1693 124.38 15.2777 123.951 15.5031 123.544C15.7262 123.139 16.0618 122.798 16.5099 122.521C16.9778 122.225 17.4631 122.072 17.9659 122.064C18.465 122.054 18.9416 122.18 19.3958 122.442C19.8464 122.703 20.2335 123.091 20.5572 123.608ZM17.0105 117.274C17.2634 117.782 17.3954 118.281 17.4066 118.771C17.4167 119.259 17.3155 119.701 17.1031 120.097C16.8907 120.493 16.575 120.801 16.156 121.021L15.4045 119.513C15.6812 119.354 15.8526 119.119 15.9189 118.808C15.9852 118.497 15.942 118.189 15.7893 117.882C15.6676 117.638 15.5064 117.449 15.3056 117.316C15.1013 117.182 14.8758 117.11 14.6294 117.102C14.3794 117.092 14.1274 117.15 13.8736 117.276C13.615 117.405 13.415 117.573 13.2735 117.781C13.1308 117.987 13.0521 118.213 13.0373 118.459C13.0226 118.706 13.0755 118.953 13.1959 119.201C13.3033 119.416 13.4519 119.604 13.6419 119.763C13.8307 119.92 14.0297 120.017 14.239 120.053L14.68 121.559L10.6272 123.143L8.3873 118.646L9.65883 118.013L11.26 121.227L13.1975 120.5L13.176 120.457C12.9296 120.418 12.6816 120.298 12.4318 120.097C12.1821 119.896 11.9767 119.633 11.8157 119.31C11.5951 118.867 11.5024 118.42 11.5378 117.969C11.5732 117.518 11.7228 117.101 11.9866 116.719C12.248 116.338 12.6151 116.031 13.0881 115.798C13.5826 115.549 14.0804 115.444 14.5816 115.485C15.0793 115.524 15.5414 115.695 15.9681 116C16.3911 116.303 16.7386 116.728 17.0105 117.274ZM9.17984 111.659L10.4401 111.157L11.8255 114.64L10.5653 115.141L9.17984 111.659ZM11.8032 109.066L10.4921 109.457L4.3311 107.717L3.99347 106.586L5.80829 106.044L6.00811 106.713L9.90683 107.806L9.96835 107.788L8.57307 103.116L9.90727 102.718L11.8032 109.066ZM12.0586 104.873L10.2745 105.405L9.68474 105.548L4.17492 107.194L3.70868 105.633L11.5831 103.281L12.0586 104.873ZM9.63165 101.574L8.28733 101.83L2.33687 99.4676L2.11674 98.3086L3.97751 97.9552L4.10779 98.6411L7.87415 100.127L7.93723 100.115L7.02753 95.3255L8.39551 95.0657L9.63165 101.574ZM10.3149 97.4296L8.48566 97.777L7.88438 97.8585L2.23504 98.9315L1.93106 97.3309L10.0049 95.7975L10.3149 97.4296ZM9.57428 90.4279C9.63011 91.1159 9.51117 91.722 9.21748 92.2464C8.92355 92.7681 8.46939 93.1893 7.85499 93.51C7.24037 93.8281 6.48512 94.0239 5.58927 94.0974C4.6963 94.1733 3.92406 94.1061 3.27254 93.8957C2.6208 93.6827 2.11003 93.3435 1.74022 92.8783C1.36752 92.4106 1.15205 91.8342 1.09378 91.1492C1.03552 90.4641 1.15069 89.861 1.43928 89.3397C1.72764 88.8158 2.17503 88.3939 2.78143 88.0738C3.38517 87.754 4.13363 87.5574 5.02682 87.4841C5.92512 87.4077 6.70414 87.4757 7.36388 87.6881C8.02339 87.8978 8.54205 88.2349 8.91985 88.6995C9.29765 89.1641 9.5158 89.7402 9.57428 90.4279ZM8.13888 90.55C8.09898 90.0809 7.83122 89.7264 7.33562 89.4867C6.84001 89.2469 6.12051 89.1685 5.17713 89.2514C4.55605 89.3042 4.04437 89.4122 3.64209 89.5753C3.23958 89.7357 2.94423 89.9407 2.75604 90.1903C2.56762 90.4372 2.48667 90.7166 2.5132 91.0285C2.55287 91.4949 2.81785 91.8483 3.30812 92.0885C3.7984 92.3287 4.50879 92.4106 5.4393 92.3341C6.06838 92.2806 6.58817 92.1733 6.99867 92.0122C7.40628 91.8487 7.70552 91.642 7.89638 91.3922C8.08457 91.1426 8.1654 90.8619 8.13888 90.55ZM0.789322 82.8079C0.795587 82.3853 0.872499 81.9797 1.02006 81.5913C1.16766 81.2002 1.39888 80.8531 1.71373 80.5501C2.02862 80.2444 2.44418 80.0058 2.96042 79.8342C3.47402 79.6598 4.10265 79.5769 4.84631 79.5852C5.54446 79.5956 6.16654 79.6837 6.71255 79.8497C7.25593 80.0129 7.71671 80.2431 8.0949 80.5404C8.47309 80.8376 8.75944 81.1937 8.95395 81.6086C9.14578 82.0234 9.23793 82.485 9.2304 82.9932C9.22227 83.5416 9.10944 84.0242 8.89189 84.441C8.67168 84.8578 8.37643 85.1918 8.00617 85.4432C7.63326 85.6918 7.21637 85.8395 6.7555 85.8862L6.7809 84.1729C7.08148 84.1105 7.31628 83.9735 7.48529 83.762C7.65163 83.5504 7.73714 83.2868 7.74182 82.9712C7.74975 82.4362 7.52306 82.0261 7.06176 81.741C6.59777 81.4559 5.95922 81.306 5.14609 81.2913L5.14526 81.3474C5.38417 81.474 5.58902 81.643 5.75979 81.8542C5.92789 82.0654 6.05675 82.3067 6.14637 82.5783C6.23602 82.8472 6.27861 83.1327 6.27413 83.435C6.26695 83.9192 6.14687 84.3495 5.91387 84.7259C5.68087 85.1024 5.36347 85.3973 4.96166 85.6108C4.55985 85.8242 4.10349 85.9271 3.59258 85.9196C3.04152 85.9141 2.55256 85.7797 2.1257 85.5166C1.69885 85.2534 1.36713 84.89 1.13053 84.4263C0.891304 83.9599 0.777566 83.4204 0.789322 82.8079ZM2.1537 82.8161C2.14969 83.0862 2.21032 83.3279 2.33558 83.5412C2.46089 83.7517 2.63096 83.9201 2.8458 84.0464C3.06068 84.1699 3.30189 84.2324 3.56942 84.2337C3.83958 84.2377 4.08387 84.1824 4.30228 84.0679C4.51806 83.9507 4.69167 83.7901 4.82312 83.5861C4.95193 83.3793 5.01832 83.1421 5.02229 82.8747C5.02526 82.674 4.99057 82.4876 4.91821 82.3153C4.84585 82.143 4.74507 81.993 4.61586 81.8653C4.48402 81.7349 4.3317 81.6324 4.1589 81.5576C3.9861 81.4828 3.80207 81.4439 3.6068 81.441C3.3473 81.4398 3.10832 81.4978 2.88987 81.615C2.67142 81.7322 2.49509 81.8954 2.36089 82.1048C2.22669 82.3142 2.15762 82.5513 2.1537 82.8161ZM50.4394 17.1572C49.9329 17.4122 49.4343 17.5464 48.9439 17.5597C48.4558 17.5719 48.0134 17.4726 47.6168 17.2619C47.2203 17.0513 46.9107 16.7369 46.6882 16.3188L48.1936 15.5609C48.3534 15.8368 48.589 16.0072 48.9003 16.0722C49.2115 16.1371 49.52 16.0926 49.8259 15.9386C50.0696 15.8159 50.2576 15.6538 50.3898 15.4525C50.5233 15.2475 50.5938 15.0218 50.6015 14.7753C50.6104 14.5253 50.5511 14.2736 50.4235 14.0203C50.2936 13.7622 50.1244 13.5629 49.9158 13.4223C49.7096 13.2805 49.4833 13.2028 49.2368 13.1891C48.9903 13.1755 48.7434 13.2294 48.4961 13.3509C48.281 13.4592 48.0942 13.6086 47.9356 13.7993C47.7794 13.9888 47.6837 14.1882 47.6484 14.3977L46.144 14.8451L44.5427 10.7992L49.0301 8.53995L49.6689 9.80873L46.4611 11.4238L47.1968 13.3581L47.2398 13.3364C47.2774 13.0899 47.3964 12.8413 47.5967 12.5907C47.797 12.3401 48.0584 12.1336 48.381 11.9712C48.823 11.7486 49.2696 11.6541 49.7208 11.6875C50.1719 11.721 50.5892 11.8687 50.9728 12.1309C51.3552 12.3906 51.6637 12.7565 51.8983 13.2284C52.1497 13.7218 52.2564 14.2192 52.2183 14.7206C52.1814 15.2184 52.0116 15.6813 51.7089 16.1092C51.4074 16.5336 50.9842 16.8829 50.4394 17.1572ZM54.485 6.22569L57.55 13.8509L55.9378 14.499L53.4879 8.40397L53.4433 8.42193L52.137 10.2185L51.5624 8.78872L52.9697 6.83479L54.485 6.22569ZM62.5195 12.4313C61.8574 12.6264 61.2398 12.6337 60.6665 12.4532C60.0958 12.272 59.5907 11.9134 59.1513 11.3774C58.7145 10.8406 58.3687 10.1412 58.1138 9.27924C57.8572 8.42058 57.7654 7.65088 57.8383 6.97013C57.9139 6.28862 58.1416 5.71937 58.5216 5.26238C58.9033 4.80207 59.4236 4.47347 60.0823 4.2766C60.7411 4.07973 61.355 4.06935 61.9242 4.24546C62.4959 4.42081 63.0003 4.77264 63.4374 5.30094C63.8738 5.82668 64.219 6.51926 64.473 7.37869C64.7312 8.24248 64.8237 9.01897 64.7504 9.70817C64.6798 10.3966 64.4556 10.9732 64.0779 11.4378C63.7003 11.9025 63.1808 12.2337 62.5195 12.4313ZM62.107 11.051C62.5581 10.9162 62.8504 10.5818 62.984 10.0476C63.1175 9.51353 63.0474 8.79317 62.7737 7.88658C62.5952 7.28936 62.385 6.81049 62.1433 6.44997C61.9041 6.08868 61.6431 5.8414 61.3604 5.70812C61.0802 5.57407 60.7901 5.55186 60.4902 5.64149C60.0417 5.77554 59.7499 6.10707 59.6148 6.63605C59.4797 7.16504 59.5446 7.87719 59.8094 8.7725C59.9901 9.37741 60.2013 9.86435 60.4428 10.2333C60.6861 10.599 60.9495 10.8497 61.233 10.9856C61.5158 11.1188 61.8071 11.1407 62.107 11.051ZM69.6475 5.53895L69.9231 6.86698L66.2534 7.62849L65.9778 6.30046L69.6475 5.53895ZM72.0358 10.0096L74.5512 2.88732L74.544 2.8316L70.608 3.33992L70.4261 1.93109L76.1449 1.19252L76.3294 2.62124L73.8148 9.77988L72.0358 10.0096ZM81.2743 9.26701C80.7075 9.28799 80.1984 9.20243 79.7469 9.01033C79.2981 8.81814 78.9372 8.54372 78.6644 8.18706C78.3915 7.83041 78.241 7.41569 78.2127 6.9429L79.897 6.88056C79.9274 7.198 80.0707 7.45103 80.3266 7.63966C80.5826 7.82828 80.8816 7.91626 81.2238 7.90359C81.4965 7.8935 81.7349 7.82444 81.9389 7.69642C82.1456 7.56563 82.3037 7.38979 82.4133 7.16889C82.5255 6.94522 82.5764 6.6917 82.5659 6.40832C82.5552 6.1196 82.4843 5.86791 82.3532 5.65325C82.2248 5.43848 82.0514 5.27357 81.833 5.15852C81.6145 5.04346 81.3676 4.98969 81.0921 4.99721C80.8515 5.00611 80.6194 5.06423 80.3959 5.17155C80.175 5.27878 80.0049 5.42027 79.8855 5.59601L78.3314 5.37647L78.5601 1.03123L83.5807 0.845388L83.6332 2.26494L80.0442 2.39779L79.9079 4.46281L79.956 4.46103C80.0928 4.25251 80.3045 4.07602 80.5909 3.93157C80.8774 3.78711 81.201 3.70821 81.5619 3.69485C82.0565 3.67654 82.5019 3.7765 82.8982 3.99474C83.2944 4.21297 83.6123 4.52111 83.8519 4.91914C84.0914 5.31451 84.2196 5.77557 84.2364 6.30232C84.2596 6.8556 84.1495 7.35225 83.9061 7.79226C83.6653 8.2295 83.3182 8.57965 82.8648 8.84272C82.414 9.10302 81.8838 9.24444 81.2743 9.26701ZM88.5339 9.35091C87.9678 9.31726 87.4692 9.18311 87.0383 8.94846C86.6101 8.71398 86.2773 8.40611 86.04 8.02485C85.8027 7.6436 85.6928 7.21632 85.7102 6.74301L87.3926 6.84301C87.3924 7.16191 87.5106 7.42755 87.7472 7.63993C87.9838 7.8523 88.273 7.96865 88.6149 7.98897C88.8872 8.00516 89.1312 7.95936 89.3466 7.85157C89.5649 7.74127 89.7392 7.58146 89.8695 7.37213C90.0027 7.1603 90.0777 6.91284 90.0946 6.62977C90.1117 6.34136 90.0654 6.08401 89.9555 5.85773C89.8484 5.63161 89.6916 5.45078 89.4853 5.31524C89.279 5.1797 89.0383 5.10242 88.7634 5.0834C88.5231 5.06911 88.2865 5.10463 88.0536 5.18994C87.8234 5.27542 87.6405 5.39988 87.5048 5.56333L85.9791 5.19526L86.6248 0.892188L91.6399 1.19029L91.5556 2.60832L87.9705 2.39521L87.6361 4.43753L87.6841 4.44038C87.8404 4.246 88.0681 4.0907 88.3671 3.97447C88.6661 3.85825 88.9959 3.81086 89.3564 3.83228C89.8504 3.86165 90.2841 4.00401 90.6575 4.25936C91.031 4.5147 91.3178 4.852 91.518 5.27125C91.7183 5.68782 91.8015 6.15907 91.7676 6.685C91.7374 7.23794 91.58 7.72169 91.2954 8.13624C91.0136 8.54828 90.6345 8.86341 90.1579 9.08163C89.6841 9.29734 89.1428 9.3871 88.5339 9.35091ZM97.3055 5.36034L97.1119 6.70278L93.4024 6.16781L93.596 4.82538L97.3055 5.36034ZM98.2421 8.9246L98.5522 7.59182L103.118 3.10447L104.268 3.37176L103.838 5.21654L103.158 5.05835L100.276 7.90222L100.262 7.96476L105.01 9.06937L104.695 10.4256L98.2421 8.9246ZM101.757 11.2253L102.179 9.41181L102.347 8.82891L103.65 3.22811L105.237 3.59723L103.375 11.6017L101.757 11.2253ZM105.826 10.7541L106.272 9.46055L111.278 5.46947L112.393 5.85415L111.776 7.64467L111.116 7.417L107.955 9.94757L107.934 10.0083L112.543 11.598L112.089 12.9144L105.826 10.7541ZM109.084 13.406L109.691 11.6458L109.919 11.0835L111.794 5.64741L113.334 6.17864L110.654 13.9477L109.084 13.406ZM115.524 16.2507C114.9 15.9557 114.434 15.5501 114.127 15.034C113.821 14.5189 113.683 13.9151 113.712 13.2226C113.743 12.5313 113.95 11.7791 114.333 10.9661C114.713 10.1544 115.157 9.51872 115.664 9.05913C116.174 8.60068 116.723 8.32731 117.311 8.23904C117.902 8.14947 118.509 8.25038 119.132 8.54177C119.754 8.83316 120.22 9.23396 120.527 9.74417C120.837 10.2555 120.98 10.8538 120.954 11.539C120.93 12.2218 120.727 12.9685 120.345 13.7791C119.963 14.5956 119.515 15.2368 119.002 15.7025C118.491 16.1694 117.94 16.4506 117.349 16.5461C116.758 16.6417 116.15 16.5432 115.524 16.2507ZM116.135 14.9459C116.561 15.1454 117.002 15.0903 117.457 14.7804C117.912 14.4706 118.339 13.8863 118.738 13.0274C119.003 12.4628 119.164 11.9655 119.224 11.5355C119.286 11.1067 119.255 10.7484 119.133 10.4608C119.013 10.1743 118.811 9.96469 118.528 9.83204C118.104 9.63362 117.665 9.6869 117.213 9.99188C116.76 10.2969 116.334 10.8716 115.936 11.7161C115.669 12.2879 115.502 12.7919 115.437 13.2281C115.375 13.6629 115.405 14.0254 115.526 14.3154C115.649 14.6031 115.851 14.8132 116.135 14.9459ZM126.518 12.4484C126.881 12.6651 127.193 12.9345 127.456 13.2564C127.721 13.5798 127.906 13.9535 128.011 14.3777C128.118 14.8032 128.117 15.2825 128.008 15.8153C127.902 16.3473 127.66 16.9332 127.281 17.5731C126.923 18.1726 126.535 18.6673 126.119 19.0572C125.706 19.4462 125.276 19.7302 124.829 19.9091C124.383 20.0881 123.931 20.1581 123.475 20.1191C123.02 20.0778 122.574 19.9269 122.137 19.6663C121.667 19.3851 121.305 19.0461 121.053 18.6494C120.802 18.2503 120.66 17.8276 120.628 17.3812C120.599 16.934 120.679 16.4991 120.869 16.0766L122.34 16.9551C122.244 17.2466 122.245 17.5185 122.344 17.7706C122.444 18.0204 122.63 18.2263 122.901 18.3881C123.36 18.6624 123.829 18.6711 124.306 18.4141C124.785 18.1548 125.234 17.6767 125.653 16.9799L125.605 16.9511C125.376 17.0947 125.127 17.1876 124.859 17.2299C124.592 17.27 124.319 17.2609 124.039 17.2028C123.761 17.146 123.492 17.0401 123.233 16.8851C122.817 16.6369 122.504 16.3177 122.295 15.9277C122.085 15.5377 121.988 15.1154 122.004 14.6607C122.021 14.206 122.16 13.7593 122.421 13.3206C122.702 12.8461 123.063 12.4898 123.504 12.2517C123.945 12.0136 124.426 11.9079 124.946 11.9348C125.469 11.9608 125.993 12.132 126.518 12.4484ZM125.829 13.6259C125.597 13.4874 125.357 13.4191 125.11 13.421C124.865 13.4243 124.634 13.4874 124.417 13.6103C124.203 13.7346 124.028 13.9123 123.893 14.1434C123.755 14.3754 123.68 14.6145 123.67 14.8609C123.664 15.1064 123.716 15.3371 123.827 15.5529C123.942 15.7679 124.114 15.9439 124.344 16.0811C124.516 16.1839 124.695 16.2471 124.88 16.2706C125.066 16.294 125.246 16.2817 125.421 16.2337C125.6 16.1846 125.765 16.104 125.916 15.9918C126.067 15.8795 126.193 15.7395 126.293 15.5719C126.424 15.3477 126.493 15.1117 126.501 14.864C126.509 14.6162 126.455 14.3819 126.341 14.161C126.227 13.9401 126.056 13.7617 125.829 13.6259Z" fill="white"/>
</svg>
