<svg width="45" height="59" viewBox="0 0 45 59" fill="none" xmlns="http://www.w3.org/2000/svg">
<path d="M1.28977 59V48.8864L22.5114 30.3068C24.1023 28.8674 25.4564 27.5511 26.5739 26.358C27.6913 25.1458 28.5436 23.9337 29.1307 22.7216C29.7178 21.4905 30.0114 20.1553 30.0114 18.7159C30.0114 17.1061 29.661 15.733 28.9602 14.5966C28.2595 13.4413 27.2936 12.5511 26.0625 11.9261C24.8314 11.3011 23.4205 10.9886 21.8295 10.9886C20.2197 10.9886 18.8087 11.3201 17.5966 11.983C16.3845 12.6269 15.4375 13.5644 14.7557 14.7955C14.0928 16.0265 13.7614 17.5227 13.7614 19.2841H0.4375C0.4375 15.3258 1.32765 11.9072 3.10795 9.02841C4.88826 6.14962 7.38826 3.93371 10.608 2.38068C13.8466 0.80871 17.6061 0.0227251 21.8864 0.0227251C26.2992 0.0227251 30.1345 0.761362 33.392 2.23864C36.6496 3.71591 39.1686 5.7803 40.9489 8.43182C42.7481 11.0644 43.6477 14.1231 43.6477 17.608C43.6477 19.8239 43.2027 22.0208 42.3125 24.1989C41.4223 26.3769 39.822 28.7822 37.5114 31.4148C35.2197 34.0473 31.9621 37.2008 27.7386 40.875L20.7784 47.2955V47.6648H44.358V59H1.28977Z" fill="white"/>
</svg>
