<svg width="62" height="62" viewBox="0 0 62 62" fill="none" xmlns="http://www.w3.org/2000/svg">
<path d="M53.4116 14.9335C52.9794 15.3067 52.541 15.5422 52.0963 15.6402C51.6527 15.7394 51.2296 15.7175 50.8267 15.5744C50.4263 15.4314 50.0751 15.1852 49.7732 14.8355C49.4691 14.4833 49.2762 14.0982 49.1944 13.6801C49.1126 13.262 49.1532 12.8407 49.316 12.4164C49.4788 11.992 49.7757 11.5938 50.2066 11.2218C50.6388 10.8486 51.0766 10.6123 51.5202 10.5131C51.9637 10.4139 52.3857 10.4357 52.7861 10.5787C53.1879 10.7205 53.5408 10.9675 53.8449 11.3197C54.1468 11.6693 54.3386 12.0532 54.4204 12.4713C54.5046 12.8896 54.4652 13.3109 54.3024 13.7352C54.1407 14.1609 53.8438 14.5603 53.4116 14.9335ZM52.678 14.0839C52.958 13.8422 53.1578 13.5964 53.2777 13.3465C53.3986 13.098 53.4436 12.8553 53.4126 12.6186C53.3816 12.3819 53.2786 12.1622 53.1037 11.9597C52.9288 11.7571 52.7265 11.6233 52.4969 11.5581C52.2672 11.493 52.02 11.5014 51.7554 11.5836C51.4918 11.667 51.2201 11.8296 50.9401 12.0713C50.6602 12.313 50.4597 12.5582 50.3388 12.8068C50.219 13.0566 50.1746 13.2999 50.2056 13.5366C50.2366 13.7733 50.3395 13.993 50.5144 14.1955C50.6893 14.3981 50.8916 14.5319 51.1213 14.5971C51.351 14.6623 51.5976 14.6531 51.8611 14.5697C52.1257 14.4876 52.398 14.3257 52.678 14.0839ZM52.256 18.229L56.2886 14.5681L56.8238 15.6526L53.9447 18.04L53.9639 18.079L57.6498 17.3263L58.1081 18.2549L55.2606 20.7237L55.2809 20.765L58.9341 19.9287L59.4693 21.0132L54.1105 21.9869L53.633 21.0194L56.2618 18.6101L56.2437 18.5734L52.7335 19.1966L52.256 18.229ZM54.9191 23.8726L60.0343 22.7527L60.7889 26.1994L59.8973 26.3947L59.3794 24.0294L58.1605 24.2963L58.6396 26.4842L57.7479 26.6794L57.2689 24.4915L56.0475 24.7589L56.5676 27.1342L55.6759 27.3294L54.9191 23.8726ZM61.1217 32.4281L55.8871 32.5621L55.8626 31.6062L59.099 29.2444L59.098 29.2061L55.8033 29.2904L55.775 28.1837L61.0096 28.0497L61.0345 29.021L57.8002 31.3647L57.8014 31.4107L61.0935 31.3264L61.1217 32.4281ZM56.1018 37.212C56.1507 37.0116 56.2442 36.8406 56.3823 36.6988C56.5221 36.5575 56.6869 36.4573 56.8768 36.3984C57.0662 36.3411 57.2611 36.3369 57.4615 36.3858C57.6635 36.4351 57.8345 36.5286 57.9746 36.6664C58.116 36.8061 58.2153 36.9707 58.2726 37.1602C58.3315 37.35 58.3365 37.5451 58.2876 37.7455C58.2383 37.9475 58.144 38.1184 58.0046 38.2581C57.8665 38.3998 57.7027 38.4993 57.5133 38.5566C57.3251 38.616 57.13 38.621 56.928 38.5717C56.7276 38.5228 56.5567 38.4284 56.4154 38.2886C56.2736 38.1505 56.1733 37.9865 56.1144 37.7967C56.0567 37.6089 56.0525 37.414 56.1018 37.212ZM52.864 42.8636L53.7622 41.2392L58.3447 43.7732L57.439 45.411C57.1841 45.872 56.8729 46.218 56.5055 46.4492C56.1396 46.6812 55.7363 46.7923 55.2958 46.7824C54.8544 46.774 54.3957 46.6382 53.9199 46.3751C53.4426 46.1111 53.0823 45.794 52.839 45.4238C52.5949 45.0551 52.4739 44.6522 52.476 44.2151C52.4773 43.7795 52.6066 43.329 52.864 42.8636ZM54.0566 42.6671L53.7164 43.2824C53.558 43.5688 53.4755 43.8378 53.4689 44.0893C53.4629 44.3431 53.5401 44.5786 53.7005 44.7958C53.8615 45.0154 54.1128 45.2196 54.4544 45.4085C54.793 45.5957 55.0973 45.6988 55.3674 45.7176C55.6367 45.7379 55.876 45.6784 56.0855 45.5391C56.295 45.3998 56.4789 45.1869 56.6373 44.9005L56.9788 44.283L54.0566 42.6671ZM50.7224 46.2006L51.4843 45.2911L54.3376 50.0393L53.4214 51.133L48.2482 49.1543L49.01 48.2449L52.9491 49.8335L52.9753 49.8021L50.7224 46.2006ZM52.3479 47.4654L50.5484 49.6136L49.8859 49.0586L51.6854 46.9105L52.3479 47.4654ZM51.117 52.282L51.7002 52.9841L48.3921 55.7321L47.8089 55.03L49.042 54.0056L46.2794 50.6798L47.1211 49.9806L49.8838 53.3064L51.117 52.282ZM44.1606 52.1136L45.1976 51.5373L46.1616 56.9923L44.9146 57.6855L40.7928 53.9856L41.8297 53.4092L44.9388 56.303L44.9746 56.2831L44.1606 52.1136ZM45.2254 53.8766L42.7761 55.238L42.3562 54.4827L44.8055 53.1213L45.2254 53.8766ZM36.9941 56.1574C37.195 56.1106 37.3898 56.1168 37.5787 56.176C37.7679 56.2369 37.9317 56.3387 38.07 56.4815C38.2066 56.6246 38.2984 56.7966 38.3452 56.9975C38.3924 57.2 38.3862 57.3949 38.3266 57.5821C38.2657 57.7713 38.1637 57.9342 38.0206 58.0709C37.8778 58.2092 37.706 58.3018 37.5051 58.3486C37.3026 58.3958 37.1075 58.3888 36.92 58.3275C36.7311 58.2683 36.5684 58.1671 36.4317 58.024C36.2938 57.8828 36.2012 57.711 36.154 57.5085C36.1072 57.3076 36.1142 57.1126 36.1751 56.9234C36.2343 56.7345 36.3353 56.571 36.4781 56.4326C36.6196 56.2964 36.7916 56.2046 36.9941 56.1574ZM29.433 59.5745C29.4495 59.7811 29.5341 59.943 29.687 60.0603C29.8398 60.1775 30.0492 60.2387 30.315 60.2438C30.4957 60.2474 30.6487 60.2248 30.7741 60.1761C30.8995 60.1291 30.9963 60.0619 31.0645 59.9746C31.131 59.8872 31.1653 59.7873 31.1675 59.6748C31.1727 59.5812 31.1547 59.499 31.1135 59.4283C31.0705 59.3575 31.0112 59.2959 30.9355 59.2432C30.8598 59.1923 30.772 59.1471 30.6722 59.1077C30.5723 59.0699 30.4656 59.0372 30.3519 59.0094L29.8837 58.8877C29.6564 58.8322 29.4481 58.7599 29.2588 58.671C29.0696 58.582 28.9064 58.474 28.769 58.3469C28.6317 58.2197 28.5264 58.0711 28.453 57.9009C28.3779 57.7306 28.3416 57.5364 28.3441 57.3182C28.3521 56.9979 28.4393 56.7217 28.6058 56.4896C28.7705 56.2593 29.0058 56.0823 29.3117 55.9587C29.6158 55.8368 29.9809 55.7799 30.407 55.7882C30.8296 55.7965 31.1965 55.8684 31.5076 56.0041C31.8169 56.1397 32.0569 56.3361 32.2275 56.5935C32.3963 56.8525 32.4813 57.1704 32.4825 57.5472L31.4114 57.5263C31.4029 57.3506 31.3555 57.203 31.2691 57.0837C31.1811 56.9661 31.0626 56.8759 30.9138 56.8134C30.7633 56.7525 30.5926 56.7202 30.4017 56.7164C30.2142 56.7128 30.0509 56.7369 29.9118 56.7887C29.771 56.8405 29.6613 56.9143 29.5828 57.0099C29.5042 57.1056 29.4637 57.2164 29.4612 57.3426C29.4589 57.4601 29.4919 57.5597 29.5602 57.6411C29.6268 57.7226 29.7261 57.7927 29.8579 57.8515C29.988 57.9103 30.1481 57.9646 30.338 58.0143L30.9053 58.1686C31.3446 58.2845 31.6899 58.4592 31.941 58.6926C32.1922 58.9259 32.3132 59.236 32.3039 59.6228C32.2995 59.9398 32.2097 60.2151 32.0347 60.4487C31.8579 60.6822 31.6183 60.8625 31.3158 60.9896C31.0132 61.1167 30.6711 61.1765 30.2893 61.1691C29.9008 61.1615 29.5629 61.0884 29.2758 60.9499C28.987 60.8112 28.7639 60.6219 28.6066 60.3819C28.4494 60.1418 28.3712 59.8658 28.3722 59.5539L29.433 59.5745ZM22.366 57.1603C22.4967 56.6044 22.7132 56.1563 23.0157 55.8159C23.3164 55.4752 23.6719 55.2444 24.082 55.1237C24.49 55.0043 24.9189 54.9975 25.3686 55.1032C25.8215 55.2097 26.2039 55.4082 26.5156 55.6986C26.8272 55.9891 27.0418 56.3538 27.1591 56.7929C27.2765 57.232 27.2701 57.7287 27.1397 58.2829C27.009 58.8387 26.7933 59.287 26.4925 59.6278C26.1918 59.9686 25.8373 60.1987 25.4293 60.3181C25.0208 60.4392 24.5901 60.4464 24.1371 60.3399C23.6875 60.2342 23.3068 60.0361 22.9951 59.7457C22.6814 59.4565 22.4658 59.0924 22.3484 58.6533C22.2294 58.2138 22.2353 57.7162 22.366 57.1603ZM23.4586 57.4172C23.3739 57.7773 23.3565 58.0936 23.4062 58.3662C23.4542 58.6384 23.5603 58.8612 23.7244 59.0347C23.8885 59.2081 24.1008 59.3254 24.3613 59.3867C24.6218 59.4479 24.8641 59.4375 25.0883 59.3554C25.3125 59.2733 25.5076 59.1213 25.6736 58.8994C25.8379 58.6771 25.9624 58.386 26.0471 58.0259C26.1318 57.6659 26.1501 57.3497 26.102 57.0775C26.0523 56.8049 25.9454 56.5819 25.7813 56.4085C25.6172 56.2351 25.4049 56.1177 25.1444 56.0565C24.8839 55.9952 24.6415 56.0056 24.4174 56.0878C24.1932 56.1699 23.9989 56.3221 23.8346 56.5443C23.6686 56.7662 23.5433 57.0572 23.4586 57.4172ZM22.2092 54.3445L20.0587 59.1189L16.8975 57.695L17.2724 56.8628L19.4241 57.832L19.9365 56.6943L17.9946 55.8196L18.3695 54.9874L20.3114 55.8621L21.1998 53.8898L22.2092 54.3445ZM16.1129 56.2089L15.592 56.9585L12.0606 54.5039L12.5816 53.7544L13.898 54.6694L16.3656 51.1192L17.2642 51.7437L14.7966 55.294L16.1129 56.2089ZM13.7574 48.8481L10.8592 53.4595L10.0518 52.5591L12.1819 49.4848L12.1529 49.4524L8.80571 51.1696L8.11437 50.3986L10.1921 47.2544L10.1614 47.2201L6.86825 49.009L6.06084 48.1087L10.9596 45.7282L11.6799 46.5315L9.79684 49.5595L9.82416 49.59L13.037 48.0448L13.7574 48.8481ZM9.60708 43.7147L10.1548 44.767L4.67537 45.5812L4.01666 44.3156L7.8281 40.2968L8.37584 41.3492L5.39799 44.3778L5.41688 44.4141L9.60708 43.7147ZM7.81557 44.7307L6.52177 42.245L7.28835 41.846L8.58216 44.3317L7.81557 44.7307ZM7.62624 39.7143L2.59542 41.167L2.02228 39.1822C1.91257 38.8023 1.88691 38.4584 1.94528 38.1506C2.00154 37.8416 2.13297 37.581 2.33959 37.3687C2.54409 37.1553 2.81256 37.0006 3.145 36.9046C3.47908 36.8082 3.78729 36.7972 4.06964 36.8718C4.35035 36.9469 4.59406 37.1027 4.80077 37.3393C5.007 37.5743 5.16592 37.885 5.27752 38.2715L5.66127 39.6004L4.80642 39.8473L4.47233 38.6903C4.41369 38.4872 4.33714 38.3266 4.24269 38.2084C4.14823 38.0902 4.03586 38.0144 3.90559 37.981C3.77484 37.9461 3.62677 37.9525 3.46137 38.0002C3.29433 38.0484 3.16318 38.1227 3.06794 38.2229C2.97222 38.3215 2.91451 38.4473 2.8948 38.6003C2.87299 38.752 2.89163 38.9303 2.95074 39.135L3.15787 39.8523L7.3191 38.6507L7.62624 39.7143ZM4.55231 37.6586L6.48067 35.7471L6.81973 36.9213L4.88357 38.8057L4.55231 37.6586ZM6.39951 35.1678L1.18842 35.6817L0.842149 32.1703L1.75053 32.0808L1.98815 34.4904L3.22985 34.3679L3.01005 32.139L3.91842 32.0494L4.13823 34.2783L5.38248 34.1556L5.14385 31.7358L6.05223 31.6463L6.39951 35.1678ZM5.44445 27.0699C5.4134 27.2738 5.33534 27.4525 5.21026 27.6059C5.0835 27.759 4.92816 27.8733 4.74426 27.9487C4.56061 28.0225 4.36683 28.0438 4.16293 28.0128C3.95735 27.9815 3.77871 27.9034 3.62702 27.7786C3.4739 27.6518 3.36046 27.4966 3.28669 27.313C3.21124 27.1291 3.18904 26.9352 3.22008 26.7313C3.25139 26.5257 3.33029 26.3472 3.4568 26.1957C3.58188 26.0424 3.73624 25.9288 3.91989 25.855C4.10211 25.7793 4.29602 25.7571 4.5016 25.7884C4.7055 25.8195 4.88401 25.8984 5.03713 26.0251C5.19051 26.1502 5.30492 26.3047 5.38037 26.4886C5.45439 26.6706 5.47575 26.8644 5.44445 27.0699ZM5.11624 18.7632C4.9188 18.7001 4.7369 18.7171 4.57052 18.8142C4.40415 18.9112 4.2682 19.0818 4.1627 19.3259C4.09101 19.4918 4.05394 19.6419 4.05151 19.7764C4.04751 19.9103 4.07301 20.0253 4.12799 20.1215C4.18365 20.2161 4.26311 20.2857 4.36638 20.3304C4.45108 20.3707 4.53396 20.3852 4.61502 20.3738C4.69675 20.3608 4.77631 20.3293 4.85368 20.2792C4.92949 20.2284 5.00456 20.1643 5.07888 20.0868C5.15164 20.0087 5.22241 19.9223 5.2912 19.8276L5.58113 19.4404C5.71869 19.2511 5.86447 19.0857 6.01845 18.9443C6.17243 18.8028 6.33426 18.6927 6.50393 18.6137C6.67361 18.5348 6.85111 18.4936 7.03645 18.4902C7.22246 18.4851 7.41594 18.5251 7.61688 18.6101C7.91036 18.7389 8.13293 18.9242 8.28459 19.1662C8.43537 19.4059 8.51003 19.6907 8.50855 20.0206C8.50619 20.3483 8.42047 20.7077 8.25138 21.0989C8.08365 21.4869 7.87811 21.7991 7.63476 22.0356C7.39208 22.2706 7.11934 22.4182 6.81655 22.4786C6.51287 22.5367 6.18645 22.495 5.83728 22.3533L6.26236 21.37C6.42825 21.4287 6.58276 21.4407 6.72589 21.406C6.86813 21.3691 6.99638 21.2936 7.11066 21.1796C7.22405 21.0633 7.31862 20.9176 7.39437 20.7423C7.46877 20.5702 7.50832 20.41 7.51304 20.2616C7.51843 20.1117 7.49175 19.9822 7.433 19.8733C7.37425 19.7643 7.28699 19.6848 7.1712 19.6347C7.06324 19.5881 6.95863 19.5809 6.85736 19.6133C6.75677 19.6441 6.65429 19.7093 6.5499 19.8091C6.44619 19.9072 6.33534 20.0348 6.21734 20.1918L5.85968 20.6583C5.58594 21.021 5.29352 21.2743 4.98241 21.4184C4.6713 21.5624 4.3385 21.5569 3.984 21.4018C3.69231 21.2776 3.47153 21.0902 3.32168 20.8398C3.17251 20.5877 3.09642 20.2977 3.09341 19.9695C3.09041 19.6414 3.16465 19.3021 3.31615 18.9516C3.47035 18.5949 3.66596 18.3099 3.90298 18.0967C4.14067 17.8819 4.40038 17.7472 4.68212 17.6925C4.96385 17.6379 5.2489 17.6701 5.53725 17.7892L5.11624 18.7632ZM5.65211 16.3256L4.89375 15.8176L7.28719 12.2446L8.04555 12.7526L7.15334 14.0846L10.7455 16.4908L10.1364 17.4L6.54431 14.9937L5.65211 16.3256ZM12.3605 14.5052L11.5385 15.3606L9.01523 10.4291L10.0038 9.40032L15.0302 11.7269L14.2082 12.5823L10.3865 10.729L10.3581 10.7585L12.3605 14.5052ZM10.825 13.1326L12.7666 11.112L13.3898 11.7107L11.4481 13.7313L10.825 13.1326ZM12.4154 8.39005L11.8885 7.64466L15.4004 5.16244L15.9273 5.90784L14.6182 6.83313L17.1137 10.3638L16.22 10.9955L13.7245 7.46475L12.4154 8.39005ZM17.617 3.92658L20.0112 8.58354L19.0266 9.08974L16.6324 4.43278L17.617 3.92658ZM22.2653 3.75503C22.1768 3.56765 22.0402 3.44624 21.8558 3.3908C21.6713 3.33536 21.4538 3.35232 21.2034 3.44168C21.0332 3.5024 20.8981 3.57775 20.7981 3.66773C20.6975 3.7561 20.6308 3.8532 20.598 3.95902C20.5668 4.06427 20.5701 4.16987 20.6079 4.27583C20.6362 4.36527 20.6821 4.43574 20.7458 4.48725C20.811 4.53817 20.8883 4.57483 20.9777 4.59722C21.0666 4.618 21.1647 4.62915 21.272 4.63067C21.3788 4.63059 21.4902 4.6234 21.6064 4.6091L22.0873 4.55696C22.3196 4.52837 22.54 4.52213 22.7484 4.53825C22.9568 4.55436 23.1478 4.59753 23.3213 4.66776C23.4947 4.73798 23.6459 4.83967 23.7749 4.97283C23.9054 5.10542 24.0082 5.27417 24.0831 5.47909C24.1892 5.78148 24.2055 6.07066 24.132 6.34663C24.0596 6.62041 23.9023 6.86929 23.66 7.09326C23.4188 7.31506 23.0976 7.49756 22.6962 7.64076C22.2981 7.78282 21.9295 7.84554 21.5906 7.82893C21.2533 7.81174 20.9593 7.71304 20.7085 7.53284C20.4589 7.35045 20.2667 7.08329 20.1321 6.73136L21.1411 6.37135C21.2113 6.53269 21.308 6.65386 21.431 6.73485C21.555 6.81366 21.6977 6.85595 21.859 6.86174C22.0214 6.86534 22.1925 6.83506 22.3723 6.77091C22.5489 6.7079 22.693 6.62751 22.8047 6.52974C22.918 6.43139 22.9945 6.32358 23.0341 6.20629C23.0737 6.08901 23.0723 5.97097 23.0299 5.85216C22.9904 5.74139 22.9242 5.66002 22.8315 5.60805C22.7403 5.55551 22.6227 5.52509 22.4786 5.51679C22.3361 5.50792 22.1672 5.51388 21.9719 5.53469L21.3868 5.59145C20.9349 5.63866 20.5502 5.59767 20.2326 5.46847C19.915 5.33926 19.692 5.09216 19.5636 4.72716C19.4554 4.42912 19.4418 4.13989 19.5228 3.85945C19.6053 3.57845 19.7655 3.32493 20.0034 3.09889C20.2412 2.87285 20.54 2.69568 20.8996 2.56737C21.2656 2.43676 21.6074 2.38539 21.925 2.41323C22.2442 2.4405 22.5199 2.5385 22.752 2.70724C22.9842 2.87597 23.1551 3.10638 23.2647 3.39845L22.2653 3.75503ZM24.4493 2.48148L24.3118 1.57912L28.5632 0.930985L28.7008 1.83334L27.116 2.07495L27.7676 6.34915L26.6858 6.51407L26.0342 2.23987L24.4493 2.48148ZM31.0438 0.803341L31.153 6.03857L30.0462 6.06165L29.937 0.826426L31.0438 0.803341ZM37.0875 3.32724L35.9774 3.17911C35.9763 3.03279 35.9519 2.8997 35.9043 2.77985C35.8569 2.6583 35.7895 2.55129 35.7021 2.4588C35.6147 2.36631 35.5096 2.29038 35.3868 2.23101C35.2658 2.17186 35.1309 2.13236 34.9822 2.11252C34.7136 2.07667 34.4706 2.11218 34.2535 2.21905C34.0365 2.32423 33.8562 2.49621 33.7126 2.73498C33.5691 2.97207 33.4734 3.27056 33.4254 3.63043C33.376 4.00045 33.3894 4.31866 33.4657 4.58506C33.5436 4.85169 33.6737 5.06251 33.8559 5.21752C34.0381 5.37253 34.2602 5.46751 34.5221 5.50246C34.6691 5.52208 34.8077 5.5208 34.9379 5.49863C35.0698 5.47668 35.1897 5.43507 35.2976 5.37381C35.4057 5.31085 35.4991 5.2296 35.5778 5.13003C35.6581 5.03069 35.7202 4.91344 35.764 4.77828L36.8734 4.93149C36.8128 5.16588 36.7104 5.38608 36.5659 5.59208C36.4234 5.79662 36.2443 5.97305 36.0284 6.12137C35.8145 6.26823 35.5682 6.37464 35.2894 6.44062C35.0125 6.50513 34.7076 6.51517 34.3748 6.47075C33.9118 6.40897 33.5119 6.24898 33.1749 5.99077C32.8396 5.73278 32.5928 5.39118 32.4346 4.96594C32.2781 4.54093 32.2375 4.04627 32.3128 3.48196C32.3883 2.91595 32.5591 2.44863 32.8249 2.07999C33.0908 1.71136 33.4201 1.44748 33.8128 1.28837C34.2057 1.12756 34.6302 1.0776 35.0864 1.13848C35.3871 1.17861 35.6603 1.25806 35.9058 1.37681C36.153 1.49578 36.3655 1.64968 36.5432 1.83848C36.7212 2.02559 36.8571 2.24408 36.951 2.49392C37.0466 2.74399 37.0921 3.02177 37.0875 3.32724ZM41.2986 4.30391C41.3471 4.10239 41.3169 3.92221 41.2079 3.76336C41.099 3.60451 40.9189 3.48138 40.6678 3.39396C40.4972 3.33456 40.3447 3.30856 40.2104 3.31595C40.0766 3.32172 39.9637 3.35554 39.8718 3.4174C39.7815 3.47981 39.7179 3.56414 39.6809 3.67039C39.6468 3.75781 39.6385 3.84152 39.6557 3.92153C39.6746 4.00211 39.7119 4.07915 39.7675 4.15266C39.8237 4.22456 39.8931 4.29475 39.9758 4.36322C40.059 4.43009 40.1503 4.49437 40.2497 4.55606L40.6571 4.81697C40.856 4.94035 41.0316 5.07367 41.1838 5.21692C41.3361 5.36017 41.4578 5.51353 41.5489 5.677C41.64 5.84046 41.694 6.01449 41.711 6.19908C41.7296 6.38422 41.7038 6.58011 41.6337 6.78672C41.5267 7.0888 41.3581 7.3243 41.1279 7.49322C40.8998 7.66109 40.6212 7.75632 40.292 7.77892C39.9651 7.80047 39.6004 7.7412 39.1979 7.60111C38.7987 7.46214 38.4722 7.27993 38.2186 7.05448C37.9666 6.82958 37.7995 6.56835 37.7171 6.27077C37.637 5.97214 37.6548 5.64354 37.7706 5.28498L38.7824 5.63717C38.7359 5.8069 38.7352 5.96187 38.7803 6.10209C38.8275 6.24125 38.9121 6.36367 39.0342 6.46932C39.1584 6.57393 39.3106 6.65761 39.4909 6.72037C39.668 6.78201 39.8307 6.80977 39.9791 6.80365C40.129 6.79808 40.2561 6.76203 40.3605 6.69549C40.4649 6.62894 40.5378 6.53611 40.5793 6.41699C40.618 6.30591 40.6175 6.20105 40.5778 6.10242C40.5397 6.00434 40.4672 5.90689 40.3601 5.81006C40.2546 5.71378 40.1193 5.61254 39.9542 5.50631L39.4628 5.18364C39.0811 4.93709 38.8071 4.66393 38.6407 4.36416C38.4744 4.06439 38.4556 3.73208 38.5844 3.36721C38.687 3.06723 38.8577 2.83337 39.0966 2.66565C39.3371 2.49848 39.6209 2.40143 39.9479 2.37449C40.2749 2.34755 40.6187 2.39684 40.9793 2.52236C41.3464 2.65013 41.6449 2.82442 41.8748 3.04525C42.1064 3.26664 42.2597 3.51583 42.3347 3.79283C42.4098 4.06982 42.3984 4.35646 42.3007 4.65273L41.2986 4.30391ZM45.1198 9.32208C44.9466 9.2101 44.8157 9.06561 44.7272 8.88861C44.6396 8.71018 44.5991 8.52163 44.6058 8.32296C44.6139 8.12521 44.6739 7.93974 44.7859 7.76653C44.8988 7.5919 45.0433 7.46103 45.2193 7.37392C45.3978 7.2863 45.5859 7.24654 45.7836 7.25463C45.9823 7.26129 46.1682 7.32061 46.3414 7.43259C46.5161 7.54549 46.6465 7.6907 46.7326 7.8682C46.8212 8.0452 46.8614 8.23258 46.8533 8.43032C46.8476 8.62756 46.7883 8.8135 46.6754 8.98813C46.5634 9.16134 46.4182 9.29175 46.2397 9.37936C46.0627 9.46791 45.8749 9.50885 45.6762 9.50219C45.4799 9.49502 45.2945 9.43499 45.1198 9.32208Z" fill="black"/>
</svg>
