
<svg width="113" height="113" viewBox="0 0 113 113" fill="none" xmlns="http://www.w3.org/2000/svg">
<path d="M90.3682 19.7188L95.0005 15.1979L95.9563 16.1773L92.1315 19.9101L94.0696 21.896L93.2622 22.6841L90.3682 19.7188ZM99.7004 20.2468L94.7425 24.408L93.8628 23.3598L98.8207 19.1986L99.7004 20.2468ZM103.829 26.066L98.5083 29.7522L97.8352 28.7806L99.5802 24.1458L99.5532 24.1068L96.2045 26.4269L95.4251 25.302L100.746 21.6158L101.43 22.603L99.6746 27.2178L99.707 27.2646L103.053 24.9463L103.829 26.066ZM99.0908 30.7131L104.82 27.7018L105.457 28.9132L102.931 30.2409L102.97 30.3164L106.58 31.0506L107.344 32.5026L103.661 31.7247L101.627 35.539L100.866 34.0899L102.396 31.2823L101.356 31.0687L99.7274 31.9245L99.0908 30.7131ZM101.882 36.1689L107.931 33.8669L109.483 37.9432L108.428 38.3445L107.364 35.5472L105.922 36.0957L106.907 38.6833L105.852 39.0846L104.868 36.497L103.423 37.0466L104.492 39.8558L103.438 40.257L101.882 36.1689ZM104.307 43.5067L103.755 41.2798L110.037 39.7202L110.594 41.9655C110.751 42.5974 110.76 43.1726 110.622 43.691C110.486 44.209 110.214 44.6488 109.806 45.0104C109.399 45.3741 108.87 45.637 108.218 45.7989C107.563 45.9614 106.97 45.9773 106.438 45.8466C105.907 45.718 105.459 45.4548 105.093 45.0572C104.728 44.6615 104.466 44.1447 104.307 43.5067ZM105.222 42.3254L105.432 43.169C105.529 43.5616 105.681 43.8746 105.886 44.1079C106.094 44.3428 106.362 44.4912 106.69 44.5531C107.021 44.6165 107.42 44.5901 107.889 44.4738C108.353 44.3585 108.715 44.1959 108.976 43.9858C109.237 43.7777 109.403 43.5224 109.476 43.22C109.548 42.9176 109.536 42.5701 109.438 42.1775L109.228 41.3309L105.222 42.3254ZM111.87 47.9268L105.475 48.9213L105.264 47.569L111.66 46.5746L111.87 47.9268ZM112.42 55.0056L105.962 55.4401L105.883 54.2607L109.758 51.1776L109.755 51.1303L105.691 51.4038L105.599 50.0384L112.057 49.6039L112.137 50.8022L108.263 53.863L108.267 53.9198L112.329 53.6465L112.42 55.0056ZM106.871 61.113C106.896 60.8593 106.981 60.6338 107.126 60.4365C107.272 60.2393 107.457 60.0883 107.679 59.9834C107.901 59.8806 108.139 59.8418 108.393 59.8671C108.648 59.8926 108.874 59.9776 109.069 60.1219C109.266 60.2686 109.416 60.453 109.519 60.675C109.624 60.8972 109.664 61.1351 109.639 61.3888C109.613 61.6446 109.527 61.87 109.381 62.065C109.236 62.2624 109.053 62.4124 108.831 62.5152C108.611 62.6203 108.373 62.6602 108.117 62.6347C107.863 62.6094 107.638 62.5234 107.441 62.3767C107.243 62.2321 107.092 62.0487 106.987 61.8265C106.884 61.6066 106.845 61.3688 106.871 61.113ZM75.3539 103.323C75.5899 103.227 75.8289 103.196 76.071 103.231C76.3138 103.269 76.5337 103.361 76.7304 103.508C76.9253 103.656 77.0709 103.848 77.1674 104.084C77.2647 104.322 77.2953 104.561 77.2592 104.801C77.222 105.044 77.1294 105.263 76.9814 105.457C76.8342 105.654 76.6427 105.801 76.4067 105.897C76.1688 105.995 75.9293 106.024 75.6884 105.986C75.4463 105.951 75.2279 105.859 75.0331 105.711C74.8371 105.566 74.6904 105.375 74.5931 105.137C74.4966 104.901 74.467 104.661 74.5043 104.418C74.5396 104.176 74.6308 103.957 74.778 103.76C74.924 103.566 75.116 103.42 75.3539 103.323ZM69.6616 104.071L71.1788 110.364L69.8484 110.685L68.5957 105.489L65.8981 106.139L65.6336 105.043L69.6616 104.071ZM64.4338 111.821L63.3962 105.432L64.747 105.213L65.7846 111.602L64.4338 111.821ZM57.3447 112.408L56.8798 105.952L58.0587 105.867L61.1601 109.728L61.2074 109.724L60.9148 105.661L62.2797 105.563L62.7447 112.019L61.5468 112.105L58.4677 108.245L58.411 108.249L58.7034 112.31L57.3447 112.408ZM55.7565 105.961L55.3996 112.424L54.0332 112.348L54.1906 109.499L54.1054 109.494L51.6223 112.215L49.9845 112.125L52.5426 109.363L50.3129 105.66L51.9475 105.751L53.5712 108.505L54.2886 107.722L54.3901 105.886L55.7565 105.961ZM49.6414 105.559L48.5451 111.938L44.2466 111.199L44.4377 110.087L47.3875 110.594L47.6487 109.074L44.9201 108.605L45.1112 107.493L47.8398 107.962L48.1016 106.439L45.1394 105.93L45.3305 104.818L49.6414 105.559ZM42.0892 103.92L44.2892 104.572L42.4507 110.778L40.2325 110.121C39.6082 109.936 39.1076 109.652 38.7307 109.27C38.3532 108.89 38.1118 108.433 38.0064 107.899C37.899 107.364 37.9408 106.774 38.1317 106.13C38.3232 105.483 38.61 104.964 38.9921 104.572C39.3722 104.179 39.8263 103.925 40.3545 103.812C40.8806 103.697 41.4589 103.733 42.0892 103.92ZM42.644 105.307L41.8107 105.06C41.4228 104.945 41.0762 104.918 40.7708 104.977C40.4629 105.037 40.1991 105.193 39.9796 105.444C39.7575 105.697 39.5779 106.055 39.4408 106.517C39.305 106.976 39.2616 107.371 39.3108 107.702C39.3579 108.032 39.4935 108.305 39.7175 108.521C39.9414 108.737 40.2473 108.902 40.6352 109.017L41.4716 109.265L42.644 105.307ZM34.4284 108.186L36.8322 102.177L38.1029 102.685L35.699 108.695L34.4284 108.186ZM28.045 105.019L30.985 99.2529L32.0381 99.7898L32.6964 104.698L32.7387 104.72L34.5891 101.09L35.8083 101.712L32.8683 107.479L31.7983 106.933L31.1582 102.037L31.1076 102.012L29.2586 105.638L28.045 105.019ZM25.6444 97.1355C25.8496 97.2869 26 97.4752 26.0957 97.7003C26.1902 97.9272 26.2257 98.1629 26.2023 98.4075C26.1773 98.6508 26.089 98.8751 25.9376 99.0802C25.785 99.287 25.5967 99.4375 25.3729 99.5315C25.146 99.626 24.9109 99.6606 24.6676 99.6356C24.423 99.6122 24.1981 99.5248 23.993 99.3734C23.7861 99.2208 23.6363 99.0317 23.5436 98.8061C23.4478 98.5809 23.4125 98.3467 23.4376 98.1033C23.4598 97.8604 23.5471 97.6356 23.6998 97.4287C23.8512 97.2236 24.0403 97.0738 24.2671 96.9793C24.4922 96.8836 24.7271 96.8474 24.9717 96.8708C25.2134 96.8947 25.4376 96.9829 25.6444 97.1355ZM5.37034 48.9442C5.33546 49.1967 5.24203 49.4189 5.09005 49.6106C4.93599 49.802 4.74595 49.9459 4.51994 50.0423C4.29421 50.1366 4.05507 50.1663 3.80252 50.1314C3.54788 50.0963 3.32575 50.0028 3.13613 49.8512C2.94471 49.6971 2.80184 49.5072 2.70752 49.2815C2.61112 49.0555 2.58036 48.8162 2.61525 48.5636C2.65042 48.309 2.74489 48.087 2.89866 47.8977C3.05063 47.706 3.23948 47.5629 3.46521 47.4686C3.68914 47.3719 3.92843 47.3412 4.18306 47.3764C4.43561 47.4112 4.6576 47.5057 4.84902 47.6598C5.04073 47.8117 5.18479 48.0007 5.28119 48.2268C5.37579 48.4504 5.40551 48.6895 5.37034 48.9442ZM7.57726 43.6444L1.37171 41.8039L1.76083 40.4919L6.88465 42.0115L7.67368 39.3512L8.75541 39.672L7.57726 43.6444ZM3.4927 35.2343L9.54048 37.5409L9.05279 38.8196L3.00502 36.513L3.4927 35.2343ZM6.56404 28.7978L12.3745 31.6499L11.8537 32.711L6.95577 33.4438L6.93488 33.4864L10.592 35.2815L9.98896 36.51L4.17847 33.6579L4.70767 32.5798L9.593 31.8654L9.61807 31.8144L5.96382 30.0207L6.56404 28.7978ZM12.9308 30.6748L7.51848 27.1247L8.26905 25.9804L10.6554 27.5457L10.7023 27.4744L9.59338 23.9614L10.493 22.5898L11.599 26.1878L15.921 26.1161L15.0231 27.485L11.8254 27.508L12.1433 28.5216L13.6814 29.5305L12.9308 30.6748ZM16.3478 25.5875L11.3968 21.4181L14.2063 18.082L15.0693 18.8088L13.1414 21.0981L14.3211 22.0916L16.1045 19.9739L16.9675 20.7007L15.1841 22.8184L16.3663 23.8139L18.3024 21.5149L19.1654 22.2417L16.3478 25.5875ZM21.5725 19.8917L19.9031 21.4658L15.4625 16.7565L17.1458 15.1694C17.6194 14.7227 18.1161 14.4325 18.6358 14.2987C19.154 14.1634 19.6706 14.1845 20.1855 14.3621C20.702 14.5383 21.1909 14.8708 21.652 15.3599C22.1145 15.8504 22.4193 16.3594 22.5663 16.8869C22.7148 17.413 22.7055 17.9329 22.5383 18.4467C22.3727 18.959 22.0508 19.4407 21.5725 19.8917ZM20.0943 19.6739L20.7267 19.0776C21.021 18.8001 21.2195 18.5145 21.322 18.2209C21.4246 17.9243 21.4224 17.618 21.3154 17.3018C21.2086 16.9827 20.9896 16.6476 20.6586 16.2965C20.3305 15.9486 20.011 15.7126 19.7001 15.5887C19.3908 15.4634 19.0866 15.4432 18.7874 15.5284C18.4883 15.6135 18.1916 15.7948 17.8973 16.0723L17.2626 16.6708L20.0943 19.6739ZM21.7325 11.1255L25.7221 16.2225L24.6445 17.066L20.6548 11.969L21.7325 11.1255ZM27.6737 7.19545L31.1858 12.6325L30.1929 13.2739L25.617 11.3798L25.5772 11.4055L27.7877 14.8275L26.6382 15.5701L23.1261 10.1331L24.1349 9.4814L28.6905 11.3848L28.7383 11.354L26.5295 7.93457L27.6737 7.19545ZM35.697 9.07455C35.4631 9.176 35.2248 9.21161 34.982 9.1814C34.7384 9.14926 34.5167 9.06169 34.3168 8.91869C34.119 8.77485 33.9693 8.58599 33.8678 8.35209C33.7656 8.11626 33.7299 7.87793 33.761 7.6371C33.7931 7.39349 33.8811 7.17274 34.025 6.97486C34.168 6.77503 34.3564 6.6244 34.5903 6.52296C34.8261 6.42067 35.0649 6.38602 35.3066 6.419C35.5493 6.44921 35.7697 6.53624 35.9675 6.68007C36.1665 6.82114 36.3172 7.00959 36.4194 7.24542C36.5209 7.47931 36.5555 7.71806 36.5234 7.96167C36.4932 8.20444 36.4066 8.42573 36.2636 8.62555C36.1217 8.8226 35.9328 8.97227 35.697 9.07455ZM87.5522 15.779C87.3519 15.6212 87.2074 15.4284 87.1188 15.2004C87.0314 14.9707 87.0033 14.734 87.0343 14.4902C87.0669 14.2478 87.1621 14.0264 87.3198 13.8261C87.4789 13.6241 87.6717 13.4796 87.8984 13.3926C88.1281 13.3053 88.3642 13.278 88.6066 13.3106C88.8504 13.3417 89.0724 13.436 89.2727 13.5937C89.4747 13.7528 89.6185 13.9464 89.7042 14.1748C89.7928 14.4028 89.8208 14.6381 89.7882 14.8805C89.7584 15.1226 89.6641 15.3446 89.5051 15.5466C89.3474 15.7469 89.1537 15.8907 88.924 15.9781C88.696 16.0667 88.4601 16.0955 88.2163 16.0645C87.9755 16.0332 87.7542 15.938 87.5522 15.779Z" fill="black"/>
<path d="M104.23 68.569C104.354 68.0937 104.561 67.7089 104.853 67.4144C105.146 67.1226 105.498 66.9298 105.91 66.8362C106.324 66.7431 106.771 66.7589 107.253 66.8836C107.738 67.0094 108.138 67.2131 108.453 67.4948C108.769 67.777 108.984 68.1166 109.096 68.5137C109.21 68.9132 109.206 69.3506 109.083 69.8259C108.96 70.3011 108.752 70.6847 108.458 70.9766C108.167 71.271 107.814 71.4648 107.4 71.5579C106.988 71.6515 106.54 71.6354 106.054 71.5096C105.573 71.385 105.174 71.1815 104.858 70.8993C104.543 70.6176 104.329 70.2769 104.215 69.8774C104.102 69.4803 104.107 69.0442 104.23 68.569ZM105.238 68.8366C105.182 69.0528 105.197 69.2492 105.282 69.4257C105.369 69.6028 105.51 69.7557 105.705 69.8846C105.899 70.0156 106.133 70.1164 106.407 70.1872C106.68 70.258 106.934 70.2834 107.167 70.2635C107.401 70.2455 107.598 70.1802 107.76 70.0676C107.922 69.9551 108.031 69.7907 108.087 69.5744C108.143 69.3562 108.129 69.1565 108.043 68.9754C107.957 68.7963 107.816 68.6413 107.621 68.5103C107.426 68.3814 107.192 68.2816 106.919 68.2108C106.645 68.14 106.392 68.1136 106.159 68.1315C105.925 68.1515 105.727 68.2188 105.565 68.3335C105.404 68.4506 105.295 68.6184 105.238 68.8366ZM103.112 72.4999L108.109 73.084L107.601 74.348L104.294 73.8299L104.278 73.8709L107.012 75.8143L106.514 77.0548L103.208 76.5848L103.193 76.623L105.926 78.5182L105.419 79.7792L101.406 76.7464L101.937 75.4237L105.081 75.7878L105.104 75.7321L102.582 73.8196L103.112 72.4999ZM99.4675 80.3695C99.7117 79.934 100.01 79.6085 100.363 79.3932C100.716 79.1807 101.103 79.0812 101.523 79.0945C101.945 79.1089 102.379 79.2413 102.826 79.4917C103.261 79.7359 103.596 80.0348 103.83 80.3884C104.065 80.7419 104.188 81.1237 104.199 81.5337C104.21 81.9455 104.099 82.359 103.866 82.7744C103.709 83.0537 103.518 83.2885 103.293 83.4788C103.069 83.6719 102.817 83.8085 102.538 83.8886C102.258 83.9706 101.954 83.9864 101.627 83.936C101.302 83.8866 100.96 83.7609 100.6 83.5589L100.277 83.3781L102.282 79.8027L103.01 80.2108L101.625 82.6807C101.794 82.7755 101.964 82.8228 102.136 82.8224C102.308 82.8221 102.467 82.7773 102.613 82.688C102.761 82.6016 102.883 82.473 102.978 82.3021C103.078 82.1238 103.126 81.9426 103.12 81.7584C103.116 81.577 103.066 81.4091 102.971 81.2546C102.879 81.1012 102.749 80.9767 102.583 80.881L101.891 80.493C101.682 80.3756 101.479 80.3126 101.283 80.3043C101.086 80.2978 100.906 80.343 100.743 80.44C100.58 80.537 100.444 80.6838 100.333 80.8804C100.26 81.0109 100.211 81.1406 100.187 81.2697C100.163 81.3987 100.166 81.5224 100.197 81.6409C100.227 81.7593 100.284 81.8686 100.368 81.9688L99.6872 83.0147C99.4572 82.8132 99.2926 82.5724 99.1937 82.2923C99.0955 82.015 99.0675 81.7118 99.1095 81.3827C99.1523 81.0564 99.2717 80.7187 99.4675 80.3695ZM99.4896 85.8162L97.2029 84.1891L97.9834 83.0921L101.939 85.9066L101.195 86.9521L100.497 86.4555L100.464 86.5019C100.632 86.7531 100.709 87.0294 100.697 87.3307C100.686 87.6332 100.576 87.9313 100.367 88.2248C100.171 88.4995 99.9409 88.6962 99.6754 88.815C99.4098 88.9338 99.1251 88.9704 98.8213 88.9249C98.5193 88.8807 98.2146 88.7492 97.9073 88.5305L95.3888 86.7385L96.1694 85.6415L98.4922 87.2943C98.733 87.4682 98.9658 87.5408 99.1906 87.512C99.4171 87.4844 99.6086 87.3607 99.7649 87.141C99.87 86.9933 99.9311 86.8402 99.9482 86.6817C99.9641 86.525 99.9336 86.3714 99.857 86.2212C99.7808 86.0739 99.6583 85.9389 99.4896 85.8162ZM96.7419 92.7065L95.972 92.0507L97.9146 89.7697L98.6846 90.4255L96.7419 92.7065ZM94.5441 87.8L98.507 91.1751C98.7749 91.4032 98.9526 91.6446 99.0403 91.8991C99.1266 92.1553 99.136 92.4124 99.0684 92.6704C99.0009 92.9284 98.8681 93.1737 98.67 93.4063C98.5361 93.5635 98.4018 93.6968 98.2671 93.8062C98.131 93.9173 98.026 93.9967 97.9521 94.0444L97.3379 93.2058C97.3849 93.1766 97.4393 93.1372 97.5011 93.0874C97.5615 93.0392 97.6176 92.9846 97.6696 92.9237C97.798 92.7729 97.8522 92.6377 97.8321 92.5183C97.8137 92.4002 97.7419 92.2879 97.6168 92.1813L93.6732 88.8226L94.5441 87.8ZM90.7038 91.7399C91.043 91.4118 91.4015 91.1778 91.7793 91.038C92.157 90.9012 92.522 90.8618 92.8742 90.9198C93.2264 90.9808 93.5358 91.1446 93.8026 91.4112L92.8122 92.3694C92.6963 92.2617 92.5625 92.1976 92.4109 92.1772C92.2592 92.1598 92.1031 92.1833 91.9426 92.2477C91.782 92.3121 91.6299 92.4139 91.486 92.5531C91.3361 92.6981 91.2292 92.8528 91.1654 93.0171C91.1016 93.1815 91.0826 93.3421 91.1083 93.499C91.134 93.6559 91.2062 93.7956 91.3248 93.9183C91.445 94.0425 91.586 94.1186 91.748 94.1466C91.9099 94.1776 92.0816 94.158 92.263 94.088C92.443 94.0195 92.6208 93.9002 92.7964 93.7303L93.2303 93.3106L93.9291 94.0329L93.4953 94.4526C93.3468 94.5962 93.2408 94.7487 93.177 94.91C93.1117 95.0729 93.0912 95.2305 93.1155 95.3829C93.1413 95.5368 93.2135 95.675 93.3322 95.7977C93.445 95.9143 93.5719 95.9894 93.7129 96.023C93.8539 96.0597 93.9985 96.0546 94.1468 96.0079C94.2935 95.9626 94.4328 95.8763 94.5645 95.7488C94.6978 95.6199 94.7963 95.4777 94.8599 95.3223C94.9251 95.1684 94.9485 95.0153 94.9301 94.863C94.9118 94.7107 94.8477 94.5733 94.738 94.4508L95.6807 93.5388C95.9354 93.8113 96.0875 94.1215 96.1369 94.4695C96.1863 94.8175 96.1409 95.1707 96.0009 95.5289C95.8608 95.8902 95.6318 96.2247 95.3138 96.5323C94.9927 96.8429 94.6554 97.0564 94.3018 97.1727C93.9483 97.289 93.6089 97.3125 93.2837 97.243C92.9585 97.1766 92.6779 97.0199 92.4421 96.7731C92.1886 96.5141 92.0594 96.2185 92.0545 95.8861C92.048 95.5552 92.1523 95.2403 92.3674 94.9413L92.3322 94.905C91.9475 95.1922 91.572 95.3253 91.2058 95.3043C90.8395 95.2864 90.5173 95.132 90.2389 94.8413C89.9811 94.5778 89.8297 94.2683 89.7849 93.9129C89.7386 93.559 89.7931 93.1926 89.9484 92.8137C90.1037 92.4348 90.3555 92.0769 90.7038 91.7399ZM88.8748 97.2242L87.158 95.004L88.2231 94.1804L91.1927 98.0208L90.1776 98.8057L89.6536 98.1282L89.6086 98.163C89.6963 98.452 89.6905 98.7389 89.591 99.0236C89.4928 99.3099 89.3012 99.5633 89.0161 99.7837C88.7494 99.9899 88.4718 100.111 88.1832 100.148C87.8947 100.185 87.6116 100.137 87.334 100.006C87.0578 99.8757 86.8043 99.6616 86.5736 99.3632L84.6828 96.918L85.7479 96.0944L87.4917 98.3496C87.6718 98.5859 87.8736 98.7229 88.0971 98.7605C88.3219 98.7997 88.5409 98.7369 88.7543 98.5719C88.8976 98.4611 89.0005 98.3323 89.0628 98.1855C89.1234 98.0401 89.1388 97.8843 89.109 97.7183C89.0788 97.5552 89.0007 97.3905 88.8748 97.2242ZM80.9451 97.0071C81.318 96.7808 81.6688 96.6381 81.9977 96.579C82.3237 96.5192 82.6181 96.5291 82.8808 96.6087C83.1436 96.6883 83.3645 96.8229 83.5436 97.0124L82.566 97.8017C82.4833 97.7385 82.3849 97.6922 82.271 97.6628C82.157 97.6334 82.0293 97.632 81.8877 97.6587C81.7433 97.6848 81.5874 97.7486 81.4199 97.8503C81.1695 98.0022 81.0004 98.1886 80.9126 98.4095C80.822 98.6297 80.863 98.8821 81.0357 99.1667L81.4965 99.9259L81.5451 99.8964C81.5256 99.7505 81.5351 99.5956 81.5737 99.4317C81.6122 99.2678 81.6911 99.1053 81.8102 98.9443C81.9294 98.7832 82.0988 98.636 82.3186 98.5027C82.6302 98.3136 82.9576 98.2134 83.3009 98.2023C83.6434 98.1941 83.981 98.2935 84.3138 98.5007C84.6459 98.7108 84.9513 99.0455 85.23 99.5048C85.5153 99.9749 85.6771 100.414 85.7153 100.822C85.7535 101.23 85.6932 101.59 85.5343 101.901C85.3736 102.213 85.1411 102.461 84.8367 102.646C84.6043 102.787 84.3858 102.865 84.181 102.881C83.9772 102.899 83.7921 102.878 83.6256 102.819C83.4584 102.762 83.3147 102.694 83.1947 102.614L83.1515 102.641L83.5746 103.338L82.4317 104.031L79.8884 99.8408C79.6741 99.4877 79.5813 99.1399 79.6099 98.7972C79.6385 98.4545 79.7699 98.1307 80.0039 97.826C80.2351 97.5206 80.5488 97.2476 80.9451 97.0071ZM82.4786 99.5886C82.293 99.7012 82.1642 99.8423 82.0921 100.012C82.0192 100.184 82.0011 100.378 82.0376 100.592C82.0733 100.809 82.165 101.04 82.3126 101.283C82.4602 101.526 82.6223 101.716 82.799 101.853C82.9768 101.991 83.1605 102.071 83.3504 102.091C83.5402 102.111 83.7278 102.065 83.9134 101.953C84.1025 101.838 84.2308 101.69 84.2981 101.509C84.3666 101.329 84.3795 101.129 84.3368 100.908C84.2942 100.688 84.2012 100.459 84.058 100.223C83.9126 99.9839 83.7536 99.797 83.5809 99.6627C83.4075 99.5314 83.2279 99.4567 83.0421 99.4389C82.8555 99.4239 82.6677 99.4738 82.4786 99.5886ZM20.5867 91.0547C20.932 91.4036 21.1566 91.7787 21.2603 92.18C21.361 92.5813 21.3463 92.9828 21.2161 93.3844C21.0844 93.7875 20.8419 94.1639 20.4885 94.5137C20.1321 94.8665 19.7524 95.1059 19.3495 95.232C18.9451 95.3595 18.5435 95.3701 18.1448 95.2638C17.743 95.1575 17.3695 94.9298 17.0241 94.5809C16.6788 94.232 16.4557 93.8569 16.355 93.4556C16.2512 93.0543 16.2652 92.6521 16.3969 92.249C16.5271 91.8474 16.7704 91.4702 17.1268 91.1174C17.4802 90.7676 17.8591 90.5289 18.2635 90.4014C18.6664 90.2753 19.0688 90.2655 19.4705 90.3718C19.8692 90.4781 20.2413 90.7058 20.5867 91.0547ZM19.841 91.7839C19.6838 91.6252 19.5077 91.5371 19.3126 91.5197C19.1161 91.5038 18.9125 91.5467 18.7019 91.6484C18.4898 91.7487 18.2834 91.8981 18.0828 92.0967C17.8821 92.2953 17.7306 92.5002 17.6282 92.7112C17.5243 92.9208 17.4793 93.1239 17.4932 93.3206C17.5071 93.5174 17.5926 93.6951 17.7497 93.8538C17.9083 94.0141 18.0874 94.1036 18.2869 94.1225C18.485 94.1399 18.6901 94.0985 18.9022 93.9983C19.1128 93.8966 19.3184 93.7464 19.519 93.5478C19.7197 93.3492 19.872 93.1451 19.9759 92.9355C20.0782 92.7245 20.1218 92.5199 20.1064 92.3216C20.088 92.1234 19.9996 91.9441 19.841 91.7839ZM17.7785 88.0848L14.7294 92.0867L13.9007 91.0056L16.0317 88.4243L16.0048 88.3892L12.9393 89.7514L12.126 88.6904L14.215 86.0855L14.19 86.0529L11.1665 87.4387L10.3397 86.3601L14.9944 84.4527L15.8615 85.584L13.9461 88.1036L13.9826 88.1512L16.9133 86.956L17.7785 88.0848ZM12.8616 80.9408C13.1125 81.3726 13.241 81.795 13.2472 82.2082C13.2504 82.6206 13.1396 83.0043 12.9145 83.3592C12.6877 83.7153 12.3529 84.0219 11.9102 84.2792C11.4785 84.5301 11.0508 84.6665 10.6274 84.6884C10.2039 84.7103 9.81264 84.6221 9.45366 84.4238C9.09363 84.2236 8.79398 83.9176 8.55472 83.5059C8.3938 83.229 8.28863 82.9453 8.2392 82.6548C8.1869 82.3635 8.19722 82.0773 8.27017 81.796C8.34207 81.513 8.4828 81.2436 8.69237 80.9877C8.90011 80.733 9.18251 80.5018 9.53956 80.2943L9.85927 80.1085L11.919 83.6527L11.1976 84.0719L9.77468 81.6235C9.60708 81.7209 9.47978 81.8437 9.39279 81.9917C9.3058 82.1397 9.26345 82.2996 9.26575 82.4713C9.26517 82.6422 9.3141 82.8124 9.41256 82.9818C9.51525 83.1585 9.64729 83.2914 9.80867 83.3803C9.96717 83.4686 10.137 83.5112 10.3181 83.5084C10.4973 83.5065 10.6704 83.4583 10.8372 83.3638L11.5231 82.9652C11.7308 82.8445 11.888 82.702 11.9947 82.5376C12.1004 82.3714 12.1529 82.1934 12.1523 82.0037C12.1517 81.814 12.0948 81.6216 11.9815 81.4267C11.9063 81.2974 11.8193 81.1895 11.7204 81.1032C11.6215 81.0169 11.5134 80.9567 11.3961 80.9225C11.2787 80.8884 11.1556 80.882 11.0266 80.9033L10.472 79.7854C10.7624 79.6897 11.0534 79.6704 11.345 79.7276C11.6337 79.7841 11.9091 79.914 12.1711 80.1175C12.4303 80.3203 12.6604 80.5947 12.8616 80.9408ZM8.16017 78.19L10.7242 77.0488L11.2717 78.2788L6.83661 80.2529L6.31483 79.0806L7.09732 78.7323L7.07418 78.6803C6.77255 78.697 6.49525 78.6232 6.24229 78.459C5.9874 78.2957 5.78671 78.0495 5.64019 77.7203C5.50311 77.4123 5.45096 77.1138 5.48375 76.8248C5.51654 76.5357 5.62978 76.272 5.82347 76.0336C6.01524 75.796 6.28341 75.6005 6.62797 75.4472L9.45186 74.1903L9.99935 75.4203L7.3949 76.5795C7.12263 76.6984 6.94173 76.862 6.85221 77.0702C6.76076 77.2792 6.76987 77.507 6.87953 77.7533C6.95322 77.9189 7.05394 78.0493 7.18172 78.1447C7.30863 78.2381 7.45627 78.29 7.62464 78.3004C7.79023 78.3097 7.96874 78.2729 8.16017 78.19ZM3.63007 72.3006L4.58741 71.9745L5.55351 74.8106L4.59617 75.1368L3.63007 72.3006ZM8.97028 72.9222L4.04294 74.6007C3.70987 74.7141 3.41155 74.7434 3.148 74.6885C2.88377 74.6316 2.65808 74.5081 2.47093 74.3181C2.28379 74.1281 2.14096 73.8885 2.04244 73.5993C1.97586 73.4039 1.93002 73.2203 1.9049 73.0485C1.87911 72.8748 1.86459 72.744 1.86135 72.656L2.89615 72.5573C2.89717 72.6126 2.90328 72.6795 2.91445 72.7581C2.92495 72.8346 2.94311 72.9108 2.96892 72.9866C3.03279 73.1741 3.12117 73.2898 3.23406 73.3337C3.34496 73.3782 3.47819 73.374 3.63376 73.321L8.53716 71.6508L8.97028 72.9222ZM7.54675 67.6076C7.65565 68.0668 7.67371 68.4945 7.60093 68.8907C7.52561 69.2854 7.37309 69.6193 7.14337 69.8925C6.91111 70.1641 6.61223 70.3465 6.24671 70.4397L5.92876 69.0989C6.08058 69.0542 6.20398 68.9719 6.29896 68.8519C6.3914 68.7304 6.45093 68.5842 6.47754 68.4133C6.50414 68.2424 6.49435 68.0596 6.44817 67.8648C6.40004 67.6619 6.32162 67.491 6.21292 67.3522C6.10422 67.2134 5.97586 67.115 5.82784 67.057C5.67983 66.999 5.52279 66.9896 5.35673 67.029C5.18861 67.0689 5.05116 67.1513 4.94436 67.2762C4.83503 67.3996 4.76412 67.5572 4.73164 67.7489C4.69867 67.9386 4.71039 68.1524 4.76678 68.3902L4.90606 68.9776L3.92814 69.2095L3.78886 68.6221C3.74121 68.4212 3.66431 68.2521 3.55814 68.1149C3.45149 67.9756 3.32645 67.8775 3.18302 67.8206C3.03754 67.7641 2.88177 67.7556 2.71571 67.795C2.55785 67.8324 2.42845 67.9031 2.32753 68.0072C2.22408 68.1097 2.15456 68.2366 2.11899 68.388C2.08294 68.5373 2.08606 68.7011 2.12836 68.8795C2.17114 69.0599 2.24308 69.2171 2.34417 69.3512C2.44321 69.4858 2.56289 69.5841 2.70319 69.6461C2.84349 69.7081 2.99432 69.7233 3.15569 69.6915L3.45833 70.9677C3.09399 71.0476 2.74961 71.0199 2.4252 70.8846C2.10079 70.7493 1.82032 70.53 1.58381 70.2266C1.34476 69.9217 1.17419 69.554 1.07209 69.1234C0.969028 68.6888 0.957776 68.2898 1.03834 67.9264C1.1189 67.563 1.27208 67.2592 1.49787 67.0151C1.72112 66.7694 1.99905 66.6083 2.33166 66.5315C2.6838 66.4459 3.00401 66.4858 3.29228 66.6513C3.58007 66.8148 3.79755 67.0653 3.94472 67.4028L3.99392 67.3912C3.94351 66.9137 4.02083 66.5229 4.22588 66.2188C4.4284 65.9131 4.72569 65.7148 5.11775 65.624C5.47604 65.5369 5.81939 65.5648 6.1478 65.7078C6.47572 65.8488 6.76291 66.0827 7.00936 66.4098C7.25581 66.7368 7.43494 67.136 7.54675 67.6076ZM3.76899 63.2283L6.5553 62.8919L6.71665 64.2286L1.89709 64.8104L1.74332 63.5365L2.59364 63.4338L2.58682 63.3773C2.29364 63.3045 2.05032 63.1524 1.85686 62.9211C1.6613 62.69 1.54194 62.3956 1.49876 62.0379C1.45836 61.7032 1.49635 61.4026 1.61273 61.136C1.72911 60.8694 1.91493 60.6506 2.1702 60.4798C2.42338 60.3091 2.73719 60.2012 3.11163 60.156L6.18033 59.7856L6.34168 61.1223L3.51145 61.4639C3.21625 61.4974 2.99524 61.6005 2.84841 61.7731C2.6995 61.946 2.64121 62.1664 2.67353 62.4341C2.69524 62.614 2.75313 62.7683 2.84719 62.8971C2.941 63.0237 3.06684 63.1167 3.2247 63.1762C3.38022 63.2338 3.56165 63.2512 3.76899 63.2283ZM8.01125 56.5251C8.01577 56.9612 7.9596 57.3358 7.84274 57.6489C7.72796 57.9598 7.56934 58.208 7.36687 58.3934C7.16441 58.5788 6.93599 58.7003 6.68162 58.7577L6.50122 57.5142C6.59774 57.4753 6.68771 57.4143 6.77114 57.3313C6.85456 57.2482 6.92086 57.139 6.97003 57.0037C7.02128 56.8662 7.04589 56.6995 7.04386 56.5035C7.04082 56.2107 6.96669 55.9702 6.82145 55.782C6.6783 55.5918 6.44028 55.4984 6.10739 55.5018L5.21934 55.511L5.21993 55.5679C5.35538 55.6255 5.48376 55.7127 5.60508 55.8294C5.7264 55.9461 5.82594 56.0968 5.90371 56.2814C5.98148 56.4661 6.0217 56.6869 6.02436 56.9439C6.02814 57.3084 5.9473 57.6411 5.78185 57.9421C5.61428 58.2409 5.35653 58.4806 5.00862 58.6612C4.65858 58.8398 4.21493 58.9318 3.67768 58.9374C3.12778 58.9431 2.66755 58.8583 2.29698 58.683C1.92642 58.5078 1.64795 58.2725 1.46157 57.9774C1.27517 57.6801 1.18012 57.3534 1.17643 56.9974C1.17361 56.7256 1.21761 56.4975 1.30841 56.3133C1.39711 56.129 1.50935 55.9804 1.64514 55.8673C1.7788 55.7521 1.91063 55.6633 2.04062 55.6009L2.0401 55.5503L1.22473 55.5587L1.21087 54.2219L6.11256 54.1711C6.52551 54.1668 6.87209 54.2644 7.1523 54.4638C7.43251 54.6631 7.64399 54.9412 7.78676 55.2979C7.93162 55.6525 8.00644 56.0616 8.01125 56.5251ZM5.00863 56.5278C5.00638 56.3108 4.95075 56.128 4.84175 55.9795C4.73062 55.829 4.57351 55.7147 4.37042 55.6368C4.1652 55.5567 3.92037 55.5182 3.63594 55.5211C3.35151 55.5241 3.10542 55.5666 2.89767 55.6489C2.68781 55.7311 2.52572 55.8487 2.41142 56.0016C2.29711 56.1545 2.24108 56.3394 2.24333 56.5564C2.24562 56.7777 2.3076 56.9635 2.42927 57.114C2.54883 57.2644 2.71436 57.3776 2.92585 57.4533C3.13735 57.5291 3.3811 57.5655 3.6571 57.5627C3.93732 57.5598 4.17921 57.5183 4.38277 57.4382C4.5842 57.3561 4.73998 57.2396 4.85009 57.0889C4.95808 56.936 5.01092 56.749 5.00863 56.5278ZM43.495 7.75277C43.02 7.8767 42.5828 7.88295 42.1836 7.77153C41.7858 7.65754 41.4459 7.44355 41.1636 7.12958C40.8808 6.81358 40.6767 6.415 40.5512 5.93384C40.4246 5.44862 40.4078 5.00009 40.5007 4.58825C40.593 4.17438 40.7851 3.82158 41.077 3.52986C41.3704 3.23556 41.7547 3.02645 42.2297 2.90253C42.7047 2.77861 43.1411 2.77364 43.5389 2.88763C43.9381 2.99905 44.2791 3.21277 44.5619 3.52878C44.8441 3.84275 45.0485 4.24235 45.1751 4.72758C45.3006 5.20873 45.3172 5.65624 45.2249 6.07011C45.132 6.48194 44.9388 6.83501 44.6454 7.1293C44.3535 7.42103 43.97 7.62885 43.495 7.75277ZM43.2379 6.74199C43.454 6.68561 43.6184 6.57737 43.7313 6.41729C43.8436 6.25516 43.9085 6.05749 43.9261 5.82427C43.9457 5.59052 43.9198 5.33704 43.8485 5.06385C43.7773 4.79065 43.676 4.55686 43.5447 4.36247C43.4155 4.16754 43.2623 4.02678 43.0851 3.94017C42.9079 3.85357 42.7112 3.83846 42.4951 3.89484C42.277 3.95175 42.1097 4.0618 41.9933 4.22499C41.879 4.38765 41.812 4.58585 41.7924 4.8196C41.7748 5.05282 41.8017 5.30603 41.873 5.57922C41.9442 5.85242 42.0445 6.08648 42.1737 6.2814C42.305 6.4758 42.4603 6.61603 42.6395 6.7021C42.8203 6.7856 43.0197 6.79889 43.2379 6.74199ZM47.4731 6.81613L45.5528 2.16596L46.9042 1.99487L48.0601 5.13621L48.104 5.13065L48.4719 1.79639L49.7982 1.62847L50.9956 4.74544L51.0364 4.74028L51.3628 1.43039L52.7111 1.2597L52.0133 6.24133L50.5992 6.42036L49.388 3.49628L49.3284 3.50382L48.8841 6.6375L47.4731 6.81613ZM56.1228 6.16773C55.6235 6.16705 55.1938 6.06532 54.8338 5.86255C54.4758 5.65768 54.2002 5.36864 54.0069 4.99544C53.8136 4.62012 53.7173 4.17647 53.718 3.66446C53.7186 3.1651 53.8162 2.72698 54.0105 2.35009C54.2049 1.9732 54.4781 1.67965 54.8303 1.46943C55.1846 1.25922 55.5998 1.15444 56.076 1.15509C56.3962 1.15553 56.6943 1.20756 56.9702 1.31118C57.2482 1.4127 57.4903 1.56579 57.6965 1.77045C57.9048 1.97512 58.0667 2.2324 58.1821 2.54229C58.2976 2.85007 58.3551 3.21044 58.3545 3.62342L58.354 3.9932L54.2548 3.98757L54.2559 3.1532L57.0878 3.15708C57.088 2.96324 57.0461 2.79146 56.962 2.64175C56.878 2.49203 56.7612 2.37494 56.6117 2.29045C56.4643 2.20386 56.2927 2.16043 56.0967 2.16016C55.8923 2.15988 55.7111 2.20704 55.5529 2.30164C55.3969 2.39413 55.2745 2.51933 55.1858 2.67724C55.0971 2.83303 55.0515 3.0068 55.0492 3.19853L55.0481 3.99182C55.0478 4.23202 55.0917 4.43962 55.18 4.61462C55.2703 4.78963 55.3976 4.92465 55.5618 5.01969C55.726 5.11473 55.9209 5.16241 56.1463 5.16272C56.2959 5.16292 56.4329 5.14204 56.5573 5.10007C56.6817 5.0581 56.7881 4.99504 56.8768 4.91088C56.9654 4.82672 57.0329 4.72357 57.0795 4.60143L58.3246 4.68531C58.261 4.98442 58.131 5.24551 57.9348 5.46858C57.7406 5.68955 57.4896 5.86198 57.1819 5.98587C56.8762 6.10766 56.5232 6.16828 56.1228 6.16773ZM60.8694 3.49267L60.5626 6.28238L59.2243 6.13518L59.755 1.30973L61.0305 1.45002L60.9368 2.30139L60.9934 2.30761C61.1311 2.03871 61.3346 1.8364 61.6038 1.70068C61.8734 1.56287 62.1872 1.51366 62.5453 1.55305C62.8804 1.58991 63.1645 1.69535 63.3977 1.86937C63.6308 2.04338 63.8014 2.27413 63.9097 2.5616C64.0182 2.84698 64.0519 3.17712 64.0106 3.55201L63.6727 6.62446L62.3344 6.47726L62.6461 3.64357C62.6807 3.34849 62.6306 3.10982 62.4959 2.92755C62.3614 2.74318 62.1602 2.63626 61.8921 2.60677C61.712 2.58696 61.5485 2.6082 61.4018 2.67048C61.2571 2.733 61.1379 2.83435 61.044 2.97453C60.9525 3.11284 60.8943 3.28556 60.8694 3.49267ZM68.2228 2.53246L68.0259 3.52448L65.087 2.94124L65.2839 1.94922L68.2228 2.53246ZM65.0116 6.84441L66.0249 1.73862C66.0934 1.39348 66.2174 1.12057 66.3968 0.919896C66.5784 0.719629 66.7982 0.58604 67.0564 0.519129C67.3145 0.452218 67.5934 0.448498 67.8931 0.50797C68.0956 0.548165 68.2775 0.600374 68.4388 0.664597C68.6021 0.72923 68.7226 0.78215 68.8004 0.823357L68.3679 1.76862C68.3195 1.74183 68.2585 1.71361 68.1849 1.68397C68.1134 1.65474 68.0384 1.63233 67.9598 1.61674C67.7656 1.57819 67.6212 1.59679 67.5267 1.67255C67.4326 1.74624 67.3695 1.86369 67.3375 2.02489L66.3292 7.10588L65.0116 6.84441ZM70.3245 8.27517C69.8725 8.13911 69.4934 7.94026 69.1871 7.67861C68.8834 7.41555 68.671 7.11616 68.5498 6.78042C68.4313 6.44328 68.4234 6.09322 68.526 5.73026L69.8455 6.12749C69.808 6.28124 69.8174 6.42928 69.8735 6.57161C69.9323 6.71254 70.029 6.83735 70.1635 6.94606C70.298 7.05477 70.4611 7.13797 70.6527 7.19567C70.8525 7.25581 71.0396 7.27365 71.2142 7.24919C71.3888 7.22474 71.5383 7.16303 71.6628 7.06406C71.7872 6.96509 71.874 6.83389 71.9232 6.67047C71.973 6.50503 71.9706 6.34479 71.9161 6.18974C71.8642 6.03328 71.7634 5.89292 71.6138 5.76866C71.4661 5.64501 71.2753 5.54795 71.0413 5.4775L70.4633 5.30348L70.753 4.3411L71.331 4.51512C71.5287 4.57464 71.7136 4.59289 71.8856 4.56984C72.0595 4.54741 72.2071 4.48842 72.3283 4.39288C72.4501 4.29532 72.5356 4.16483 72.5848 4.0014C72.6316 3.84605 72.6352 3.69863 72.5958 3.55914C72.559 3.41823 72.4841 3.29445 72.3709 3.18778C72.2598 3.08172 72.1165 3.00227 71.941 2.94943C71.7635 2.89597 71.5913 2.87936 71.4246 2.89958C71.2585 2.91779 71.1134 2.97203 70.9894 3.06233C70.8654 3.15262 70.7767 3.27554 70.7233 3.43109L69.4674 3.05298C69.5809 2.6977 69.7776 2.41363 70.0573 2.20079C70.337 1.98794 70.6674 1.85526 71.0485 1.80276C71.4322 1.74884 71.8359 1.78566 72.2596 1.91321C72.6873 2.04198 73.0382 2.23233 73.3122 2.48426C73.5862 2.73619 73.7722 3.02103 73.8702 3.33878C73.9708 3.65512 73.9709 3.97641 73.8705 4.30265C73.768 4.65027 73.5729 4.9073 73.2852 5.07372C72.9994 5.24075 72.6736 5.3033 72.3078 5.26137L72.2932 5.30979C72.7316 5.50557 73.0309 5.76842 73.1912 6.09834C73.3542 6.42685 73.3766 6.78348 73.2586 7.16823C73.1543 7.52191 72.958 7.80497 72.6696 8.0174C72.3832 8.23044 72.0368 8.36159 71.6303 8.41084C71.2238 8.46009 70.7885 8.41487 70.3245 8.27517ZM76.009 7.2047L74.9009 9.78322L73.6639 9.25164L75.5806 4.7915L76.7595 5.29813L76.4214 6.08504L76.4736 6.1075C76.6838 5.89053 76.9375 5.75646 77.2347 5.70529C77.5327 5.65219 77.8473 5.69677 78.1783 5.83902C78.488 5.97213 78.729 6.15593 78.9011 6.39043C79.0732 6.62494 79.1691 6.89547 79.1887 7.20204C79.2092 7.50666 79.1449 7.83223 78.996 8.17874L77.7756 11.0186L76.5386 10.487L77.6642 7.86784C77.7834 7.59572 77.8052 7.35283 77.7296 7.13917C77.6549 6.92358 77.4936 6.76254 77.2458 6.65606C77.0793 6.58451 76.9168 6.5571 76.7583 6.57382C76.6017 6.59137 76.458 6.65348 76.3273 6.76014C76.1994 6.8657 76.0933 7.01389 76.009 7.2047ZM79.6686 14.2429C79.2897 14.0268 78.9946 13.7894 78.7832 13.5306C78.5726 13.2747 78.4383 13.0126 78.3803 12.7442C78.3223 12.4759 78.3326 12.2174 78.4113 11.9688L79.576 12.4401C79.561 12.5431 79.5682 12.6515 79.5979 12.7654C79.6275 12.8794 79.6884 12.9917 79.7805 13.1024C79.8733 13.216 80.0049 13.3213 80.1751 13.4184C80.4295 13.5635 80.6746 13.6207 80.9103 13.5902C81.1468 13.5626 81.3475 13.4041 81.5124 13.1149L81.9523 12.3434L81.9029 12.3153C81.7848 12.4032 81.6448 12.4701 81.4828 12.516C81.3208 12.5618 81.1405 12.5718 80.9419 12.5459C80.7432 12.5199 80.5323 12.4433 80.309 12.3159C79.9923 12.1354 79.7458 11.8978 79.5694 11.6032C79.3958 11.3077 79.3188 10.9643 79.3383 10.5728C79.3607 10.1805 79.5049 9.75095 79.7711 9.28421C80.0435 8.80649 80.3488 8.45183 80.687 8.22023C81.0253 7.98863 81.3688 7.86679 81.7177 7.85471C82.0684 7.84367 82.3984 7.92635 82.7078 8.10273C82.9439 8.23737 83.1186 8.39035 83.2319 8.56169C83.3463 8.7312 83.418 8.90309 83.4472 9.07738C83.4792 9.25088 83.4894 9.40951 83.4778 9.55326L83.5217 9.57831L83.9257 8.86996L85.087 9.53218L82.6589 13.7905C82.4543 14.1492 82.1953 14.3993 81.8818 14.5407C81.5683 14.6822 81.2216 14.7245 80.8415 14.6679C80.4623 14.6142 80.0713 14.4725 79.6686 14.2429ZM81.1806 11.6487C81.3691 11.7562 81.555 11.8003 81.7381 11.7811C81.9242 11.7611 82.1021 11.683 82.2719 11.547C82.4445 11.4101 82.6012 11.2182 82.7421 10.9711C82.883 10.724 82.9704 10.49 83.0041 10.2691C83.039 10.0464 83.0192 9.84717 82.9448 9.67135C82.8704 9.49554 82.739 9.35388 82.5504 9.24638C82.3582 9.13679 82.1665 9.09659 81.9752 9.12577C81.785 9.15313 81.6038 9.23901 81.4317 9.38343C81.2597 9.52785 81.1052 9.71995 80.9685 9.95973C80.8297 10.2032 80.7436 10.433 80.71 10.6491C80.6794 10.8645 80.7014 11.0577 80.776 11.2288C80.8535 11.3992 80.9884 11.5391 81.1806 11.6487Z" fill="white"/>
</svg>
