<svg width="220" height="221" viewBox="0 0 220 221" fill="none" xmlns="http://www.w3.org/2000/svg">
<path d="M178.55 37.2396L185.538 30.3425L190.185 35.0509L188.967 36.2532L185.778 33.0221L184.113 34.6656L187.063 37.6544L185.845 38.8567L182.895 35.8679L181.226 37.5147L184.429 40.7594L183.211 41.9617L178.55 37.2396ZM191.919 36.9923L193.531 38.9807L190.111 45.2357L190.183 45.3251L197.01 43.2702L198.622 45.2586L190.997 51.4427L189.728 49.8788L194.692 45.8537L194.641 45.7904L188.114 47.8118L187.25 46.7469L190.595 40.7634L190.543 40.7001L185.561 44.7403L184.293 43.1764L191.919 36.9923ZM192.9 54.247L191.703 52.3718L201.803 49.9476L203.242 52.2027L196.786 60.3373L195.59 58.4621L200.652 52.3144L200.611 52.2497L192.9 54.247ZM196.078 52.0539L198.905 56.4832L197.539 57.3548L194.712 52.9255L196.078 52.0539ZM206.989 58.5106L198.355 63.1862L197.367 61.3609L206 56.6853L206.989 58.5106ZM199.126 64.7099L208.01 60.5313L208.894 62.4098L201.558 65.8599L203.349 69.6689L201.8 70.3972L199.126 64.7099ZM212.837 71.5981L213.611 74.0385L208.14 78.6092L208.174 78.7188L215.28 79.3031L216.053 81.7434L206.694 84.7101L206.085 82.7907L212.177 80.8598L212.153 80.7821L205.339 80.2764L204.925 78.9694L210.226 74.6237L210.201 74.546L204.086 76.4842L203.478 74.5648L212.837 71.5981ZM207.126 86.3533L216.734 84.3313L218.096 90.8052L216.421 91.1577L215.486 86.7151L213.197 87.1969L214.062 91.3064L212.387 91.6589L211.522 87.5494L209.228 88.0322L210.167 92.4936L208.492 92.846L207.126 86.3533ZM211.316 100.982C211.281 100.597 211.343 100.237 211.502 99.9014C211.664 99.5657 211.895 99.2879 212.196 99.0679C212.497 98.8511 212.84 98.7252 213.226 98.6901C213.614 98.6548 213.974 98.7166 214.306 98.8757C214.642 99.0377 214.918 99.2693 215.135 99.5704C215.355 99.8713 215.483 100.214 215.518 100.599C215.553 100.988 215.49 101.348 215.327 101.681C215.168 102.016 214.938 102.292 214.637 102.509C214.34 102.729 213.997 102.856 213.608 102.891C213.223 102.927 212.863 102.863 212.527 102.701C212.192 102.542 211.914 102.312 211.694 102.012C211.478 101.714 211.352 101.37 211.316 100.982ZM146.857 204.823C147.218 204.683 147.581 204.643 147.947 204.704C148.314 204.767 148.645 204.913 148.939 205.142C149.231 205.372 149.446 205.667 149.586 206.027C149.727 206.391 149.766 206.754 149.705 207.118C149.642 207.485 149.495 207.814 149.265 208.105C149.036 208.4 148.742 208.617 148.381 208.756C148.017 208.897 147.654 208.935 147.289 208.871C146.923 208.811 146.594 208.665 146.303 208.436C146.01 208.21 145.793 207.915 145.652 207.552C145.512 207.191 145.474 206.827 145.538 206.46C145.598 206.094 145.742 205.763 145.971 205.469C146.198 205.179 146.493 204.963 146.857 204.823ZM138.235 205.909L140.686 215.416L134.28 217.068L133.853 215.411L138.249 214.277L137.665 212.012L133.598 213.061L133.171 211.403L137.237 210.355L136.652 208.085L132.237 209.223L131.81 207.566L138.235 205.909ZM131.67 217.596L129.138 217.975L125.487 211.852L125.373 211.869L123.677 218.793L121.145 219.172L119.69 209.463L121.682 209.164L122.628 215.484L122.709 215.472L124.282 208.823L125.638 208.62L129.094 214.54L129.175 214.528L128.224 208.184L130.216 207.886L131.67 217.596ZM116.309 209.684L118.531 209.6L115.515 219.539L112.842 219.64L109.089 209.957L111.312 209.873L114.055 217.349L114.132 217.346L116.309 209.684ZM116.593 213.535L111.343 213.734L111.281 212.114L116.532 211.916L116.593 213.535ZM105.59 219.71L105.838 209.895L107.913 209.947L107.665 219.762L105.59 219.71ZM104.134 209.796L103.241 219.573L101.174 219.384L101.911 211.311L97.7196 210.928L97.8753 209.224L104.134 209.796ZM91.2842 218.151L88.7861 217.592L87.5894 210.564L87.4771 210.539L83.3969 216.385L80.8988 215.825L83.0446 206.244L85.0094 206.685L83.6128 212.92L83.6923 212.938L87.5579 207.304L88.8959 207.604L89.9838 214.372L90.0633 214.39L91.4653 208.13L93.4301 208.571L91.2842 218.151ZM81.4077 205.789L78.3005 215.103L72.0248 213.009L72.5664 211.385L76.873 212.822L77.6134 210.603L73.6297 209.274L74.1713 207.65L78.155 208.979L78.897 206.756L74.5722 205.313L75.1138 203.689L81.4077 205.789ZM66.6492 202.039C66.9985 202.205 67.277 202.441 67.4847 202.749C67.691 203.059 67.8122 203.4 67.8482 203.771C67.8813 204.141 67.8148 204.5 67.6488 204.849C67.4814 205.201 67.2447 205.48 66.9385 205.685C66.6281 205.891 66.2881 206.011 65.9185 206.044C65.5476 206.08 65.1874 206.015 64.8382 205.849C64.486 205.682 64.2082 205.443 64.0048 205.134C63.797 204.827 63.6766 204.488 63.6435 204.119C63.6062 203.751 63.6712 203.39 63.8386 203.038C64.0046 202.689 64.2428 202.411 64.5532 202.205C64.8607 201.997 65.1999 201.875 65.5709 201.839C65.9376 201.805 66.2971 201.871 66.6492 202.039ZM9.54531 93.986C9.48559 94.3681 9.3379 94.7024 9.10225 94.9891C8.86343 95.2753 8.57133 95.4884 8.22595 95.6285C7.88106 95.7654 7.51758 95.8041 7.1355 95.7443C6.75026 95.6841 6.4159 95.5364 6.13241 95.3013C5.84625 95.0625 5.6347 94.7706 5.49775 94.4257C5.35764 94.0803 5.31744 93.7166 5.37716 93.3345C5.43737 92.9493 5.58664 92.6152 5.82496 92.3322C6.06062 92.0455 6.35089 91.8337 6.69578 91.6968C7.038 91.5562 7.40173 91.516 7.78697 91.5762C8.16905 91.6359 8.50317 91.7852 8.78933 92.024C9.07598 92.2596 9.28935 92.5502 9.42946 92.8955C9.5669 93.2373 9.60552 93.6008 9.54531 93.986ZM12.964 85.9875L3.51327 83.3266L5.30625 76.9584L6.95367 77.4222L5.72327 81.7923L7.9752 82.4263L9.11336 78.3839L10.7608 78.8478L9.62262 82.8902L11.8792 83.5255L13.1148 79.137L14.7622 79.6008L12.964 85.9875ZM6.16176 74.4394L7.10657 72.0601L14.2354 71.9818L14.2778 71.8748L9.14481 66.9273L10.0896 64.548L19.2147 68.1716L18.4716 70.0429L12.5323 67.6844L12.5022 67.7602L17.4592 72.4624L16.9532 73.7367L10.0984 73.7485L10.0683 73.8243L16.0299 76.1916L15.2868 78.063L6.16176 74.4394ZM20.7274 65.1383L19.679 67.1002L12.6171 59.4835L13.8779 57.1242L24.1324 58.7664L23.084 60.7283L15.2444 59.3274L15.2082 59.3951L20.7274 65.1383ZM17.2582 63.4421L19.7345 58.808L21.1637 59.5717L18.6873 64.2058L17.2582 63.4421ZM17.5622 50.7491L25.8537 56.0072L24.742 57.7603L16.4505 52.5021L17.5622 50.7491ZM26.8057 54.5905L18.8044 48.9005L20.0073 47.2088L26.6139 51.9069L29.0533 48.4767L30.448 49.4685L26.8057 54.5905ZM26.0818 39.2681L27.8282 37.3962L34.4961 39.9191L34.5746 39.8349L31.5955 33.358L33.3419 31.4861L40.521 38.1836L39.1475 39.6559L34.4747 35.2966L34.4191 35.3562L37.3236 41.5406L36.3883 42.5432L29.9998 40.0581L29.9442 40.1177L34.6345 44.4934L33.261 45.9656L26.0818 39.2681ZM41.7409 37.0005L35.2644 29.6214L40.2367 25.2573L41.3657 26.5436L37.9535 29.5384L39.4968 31.2967L42.6531 28.5265L43.782 29.8128L40.6257 32.583L42.1721 34.3449L45.5986 31.3375L46.7276 32.6238L41.7409 37.0005ZM52.417 26.1428C52.0977 26.361 51.7529 26.4824 51.3827 26.5071C51.0106 26.5291 50.6552 26.4623 50.3166 26.3066C49.9806 26.1491 49.7035 25.9108 49.4853 25.5915C49.2652 25.2696 49.1438 24.9248 49.121 24.5572C49.099 24.1851 49.1667 23.8311 49.3242 23.495C49.4798 23.1564 49.7173 22.878 50.0366 22.6598C50.3585 22.4398 50.7042 22.3196 51.0736 22.2994C51.4438 22.2748 51.797 22.3412 52.133 22.4987C52.4698 22.6517 52.7483 22.8892 52.9683 23.2111C53.1865 23.5303 53.3066 23.876 53.3286 24.2481C53.3533 24.6184 53.2878 24.9728 53.1321 25.3115C52.9773 25.6457 52.7389 25.9228 52.417 26.1428ZM174.51 31.3603C174.212 31.1144 173.999 30.817 173.873 30.4683C173.748 30.117 173.713 29.7571 173.768 29.3885C173.826 29.022 173.978 28.6894 174.224 28.391C174.472 28.0901 174.769 27.8775 175.116 27.7532C175.467 27.6285 175.826 27.595 176.192 27.6527C176.561 27.7079 176.895 27.8585 177.193 28.1044C177.494 28.3524 177.706 28.651 177.828 29.0002C177.955 29.3489 177.989 29.7066 177.931 30.0732C177.878 30.4393 177.728 30.7728 177.48 31.0737C177.234 31.3722 176.935 31.5838 176.584 31.7085C176.235 31.8352 175.876 31.871 175.508 31.8157C175.144 31.7601 174.811 31.6083 174.51 31.3603Z" fill="black"/>
<path d="M209.704 112.856C209.725 112.112 209.902 111.472 210.234 110.938C210.568 110.408 211.024 110.003 211.601 109.726C212.182 109.448 212.849 109.32 213.603 109.342C214.363 109.363 215.023 109.529 215.584 109.839C216.147 110.15 216.579 110.579 216.88 111.128C217.184 111.681 217.325 112.329 217.304 113.073C217.283 113.818 217.105 114.455 216.77 114.986C216.438 115.52 215.982 115.926 215.402 116.203C214.825 116.481 214.156 116.609 213.396 116.587C212.642 116.566 211.983 116.4 211.42 116.09C210.859 115.779 210.427 115.348 210.123 114.796C209.822 114.247 209.683 113.6 209.704 112.856ZM211.285 112.911C211.275 113.249 211.363 113.535 211.548 113.767C211.737 114 211.997 114.178 212.329 114.303C212.661 114.43 213.041 114.5 213.469 114.513C213.897 114.525 214.281 114.477 214.62 114.368C214.958 114.263 215.229 114.099 215.43 113.878C215.631 113.657 215.737 113.377 215.746 113.038C215.756 112.696 215.667 112.406 215.479 112.167C215.29 111.932 215.03 111.75 214.698 111.622C214.366 111.498 213.986 111.429 213.558 111.417C213.13 111.405 212.746 111.451 212.408 111.557C212.069 111.665 211.799 111.832 211.597 112.056C211.399 112.284 211.295 112.569 211.285 112.911ZM216.616 122.432L215.089 122.289L215.512 117.764L217.04 117.907L216.616 122.432ZM209.611 118.256L217.473 118.992C218.004 119.042 218.435 119.186 218.766 119.426C219.096 119.669 219.332 119.98 219.473 120.359C219.614 120.738 219.663 121.158 219.62 121.619C219.591 121.931 219.54 122.214 219.468 122.467C219.396 122.724 219.335 122.914 219.285 123.037L217.792 122.532C217.824 122.455 217.858 122.358 217.891 122.243C217.924 122.13 217.946 122.013 217.957 121.892C217.985 121.593 217.935 121.378 217.806 121.248C217.68 121.117 217.493 121.04 217.245 121.017L209.421 120.285L209.611 118.256ZM208.48 126.01C208.597 125.262 208.85 124.642 209.238 124.15C209.629 123.661 210.126 123.315 210.731 123.113C211.338 122.911 212.026 122.87 212.793 122.99C213.541 123.108 214.175 123.356 214.695 123.736C215.214 124.115 215.59 124.593 215.823 125.17C216.055 125.75 216.116 126.397 216.003 127.11C215.928 127.59 215.781 128.025 215.561 128.414C215.344 128.807 215.058 129.134 214.703 129.395C214.348 129.66 213.924 129.842 213.433 129.943C212.945 130.044 212.391 130.046 211.772 129.949L211.218 129.862L212.183 123.72L213.434 123.916L212.767 128.159C213.057 128.205 213.324 128.182 213.568 128.091C213.813 128 214.015 127.852 214.177 127.648C214.341 127.448 214.446 127.2 214.492 126.907C214.54 126.6 214.512 126.318 214.407 126.059C214.305 125.803 214.146 125.591 213.93 125.421C213.717 125.251 213.467 125.143 213.18 125.094L211.992 124.908C211.632 124.851 211.31 124.868 211.028 124.96C210.744 125.054 210.512 125.214 210.331 125.438C210.151 125.662 210.034 125.942 209.98 126.28C209.945 126.504 209.945 126.715 209.978 126.911C210.012 127.107 210.082 127.281 210.187 127.434C210.293 127.586 210.432 127.712 210.604 127.81L210.188 129.656C209.754 129.491 209.393 129.236 209.105 128.889C208.819 128.547 208.619 128.13 208.505 127.64C208.394 127.154 208.385 126.61 208.48 126.01ZM211.458 133.681L207.327 132.653L207.82 130.671L214.966 132.45L214.496 134.339L213.235 134.025L213.214 134.109C213.591 134.37 213.853 134.717 214.003 135.149C214.155 135.583 214.165 136.064 214.033 136.595C213.91 137.091 213.694 137.497 213.385 137.812C213.076 138.127 212.694 138.336 212.24 138.441C211.789 138.546 211.286 138.529 210.731 138.391L206.181 137.259L206.674 135.277L210.87 136.321C211.307 136.433 211.676 136.407 211.977 136.241C212.282 136.076 212.483 135.796 212.582 135.399C212.648 135.132 212.65 134.882 212.586 134.649C212.521 134.419 212.393 134.219 212.202 134.049C212.012 133.883 211.764 133.761 211.458 133.681ZM201.903 141.006C202.115 140.379 202.384 139.871 202.708 139.481C203.028 139.094 203.38 138.818 203.763 138.654C204.146 138.49 204.533 138.431 204.926 138.477L204.561 140.347C204.403 140.354 204.244 140.397 204.083 140.474C203.922 140.551 203.772 140.674 203.634 140.843C203.491 141.014 203.372 141.24 203.277 141.522C203.134 141.942 203.12 142.324 203.233 142.666C203.343 143.01 203.637 143.263 204.115 143.425L205.391 143.858L205.419 143.776C205.254 143.626 205.114 143.436 204.998 143.208C204.883 142.981 204.816 142.715 204.798 142.412C204.779 142.108 204.832 141.772 204.957 141.403C205.135 140.879 205.417 140.443 205.805 140.096C206.195 139.752 206.684 139.538 207.273 139.454C207.863 139.374 208.545 139.465 209.317 139.726C210.107 139.994 210.723 140.346 211.166 140.783C211.608 141.22 211.889 141.696 212.007 142.212C212.125 142.731 212.097 143.247 211.924 143.758C211.792 144.149 211.614 144.453 211.392 144.671C211.173 144.89 210.937 145.047 210.686 145.141C210.437 145.239 210.204 145.3 209.986 145.324L209.962 145.396L211.133 145.793L210.482 147.714L203.44 145.328C202.847 145.127 202.4 144.813 202.099 144.387C201.797 143.961 201.634 143.457 201.609 142.875C201.579 142.295 201.677 141.672 201.903 141.006ZM206.203 142.508C206.097 142.82 206.085 143.109 206.166 143.376C206.25 143.648 206.418 143.89 206.669 144.104C206.923 144.321 207.254 144.499 207.663 144.638C208.071 144.776 208.445 144.839 208.784 144.825C209.125 144.813 209.416 144.726 209.657 144.564C209.897 144.403 210.07 144.166 210.176 143.854C210.283 143.536 210.288 143.239 210.189 142.963C210.093 142.687 209.913 142.442 209.648 142.228C209.384 142.013 209.053 141.839 208.656 141.704C208.254 141.568 207.887 141.506 207.555 141.519C207.226 141.535 206.944 141.624 206.711 141.784C206.48 141.949 206.31 142.19 206.203 142.508ZM197.61 151.468C198.043 150.545 198.555 149.782 199.145 149.18C199.732 148.577 200.384 148.14 201.101 147.869C201.815 147.597 202.58 147.494 203.397 147.56C204.213 147.626 205.064 147.867 205.949 148.283C206.823 148.693 207.554 149.195 208.144 149.79C208.731 150.388 209.162 151.058 209.434 151.8C209.71 152.544 209.815 153.344 209.748 154.199C209.681 155.057 209.428 155.952 208.991 156.883C208.586 157.745 208.098 158.455 207.529 159.014C206.958 159.576 206.328 159.983 205.641 160.235C204.955 160.492 204.235 160.594 203.48 160.539C202.727 160.489 201.965 160.281 201.194 159.915C200.66 159.668 200.193 159.392 199.793 159.088C199.392 158.783 199.074 158.45 198.837 158.088C198.603 157.731 198.466 157.341 198.427 156.921C198.391 156.501 198.47 156.051 198.664 155.57C198.796 155.222 198.948 154.962 199.121 154.789C199.294 154.616 199.48 154.509 199.68 154.469C199.88 154.432 200.088 154.445 200.303 154.507L200.327 154.455C200.186 154.304 200.092 154.094 200.046 153.825C200.002 153.557 200.01 153.259 200.069 152.93C200.129 152.605 200.247 152.284 200.421 151.967C200.601 151.635 200.833 151.349 201.116 151.107C201.397 150.869 201.725 150.693 202.1 150.579C202.473 150.469 202.886 150.436 203.337 150.482C203.787 150.532 204.268 150.674 204.778 150.91C205.28 151.15 205.685 151.427 205.993 151.741C206.3 152.058 206.526 152.392 206.672 152.743C206.816 153.097 206.893 153.451 206.904 153.805C206.914 154.159 206.871 154.491 206.776 154.799C206.671 155.149 206.526 155.459 206.339 155.728C206.153 155.997 205.958 156.205 205.754 156.353C205.549 156.504 205.371 156.574 205.221 156.563L205.193 156.624L205.679 156.853L205.04 158.211L200.806 156.221C200.605 156.13 200.429 156.102 200.278 156.138C200.127 156.173 200.017 156.264 199.948 156.412C199.854 156.611 199.864 156.819 199.978 157.035C200.091 157.254 200.314 157.482 200.647 157.72C200.979 157.96 201.427 158.213 201.991 158.478C202.535 158.734 203.046 158.886 203.525 158.934C204.005 158.987 204.45 158.952 204.86 158.831C205.272 158.713 205.649 158.528 205.99 158.275C206.331 158.023 206.637 157.718 206.907 157.361C207.176 157.007 207.408 156.622 207.604 156.205C207.942 155.485 208.128 154.804 208.16 154.163C208.196 153.523 208.102 152.931 207.877 152.387C207.652 151.844 207.317 151.358 206.872 150.93C206.428 150.506 205.896 150.147 205.276 149.852C204.589 149.533 203.936 149.343 203.319 149.282C202.702 149.226 202.128 149.298 201.595 149.5C201.063 149.702 200.576 150.031 200.136 150.488C199.695 150.945 199.309 151.526 198.977 152.232C198.821 152.565 198.693 152.902 198.592 153.243C198.489 153.583 198.412 153.898 198.36 154.188C198.306 154.477 198.274 154.714 198.264 154.9L196.804 154.739C196.785 154.507 196.805 154.215 196.862 153.86C196.915 153.507 197.005 153.122 197.134 152.706C197.258 152.291 197.417 151.878 197.61 151.468ZM201.626 153.111C201.46 153.464 201.396 153.776 201.434 154.048C201.471 154.323 201.601 154.568 201.825 154.783C202.051 155.002 202.362 155.201 202.758 155.38C203.106 155.54 203.421 155.633 203.702 155.659C203.984 155.689 204.237 155.63 204.459 155.48C204.683 155.334 204.881 155.078 205.053 154.71C205.204 154.389 205.265 154.084 205.235 153.794C205.203 153.508 205.093 153.248 204.903 153.013C204.714 152.784 204.455 152.59 204.127 152.432C203.819 152.291 203.505 152.203 203.186 152.17C202.869 152.137 202.573 152.191 202.299 152.331C202.028 152.472 201.804 152.732 201.626 153.111ZM197.126 165.05L200.733 167.257L199.667 168.999L193.386 165.156L194.409 163.483L195.55 164.181L195.59 164.116C195.309 163.749 195.157 163.332 195.135 162.865C195.112 162.401 195.245 161.934 195.533 161.462C195.79 161.042 196.111 160.731 196.497 160.529C196.883 160.327 197.307 160.243 197.769 160.279C198.229 160.317 198.705 160.484 199.198 160.782L203.197 163.229L202.131 164.971L198.443 162.714C198.07 162.49 197.716 162.41 197.381 162.475C197.045 162.539 196.777 162.736 196.575 163.066C196.446 163.276 196.374 163.502 196.358 163.743C196.344 163.985 196.399 164.221 196.521 164.449C196.642 164.681 196.843 164.881 197.126 165.05ZM190.383 169.098C190.831 168.492 191.345 168.065 191.925 167.817C192.506 167.575 193.112 167.506 193.745 167.612C194.376 167.721 194.991 167.996 195.59 168.438C196.197 168.887 196.643 169.397 196.928 169.968C197.213 170.545 197.324 171.145 197.26 171.77C197.199 172.396 196.947 173.008 196.505 173.607C196.123 174.124 195.695 174.507 195.221 174.757C194.747 175.007 194.256 175.119 193.75 175.095C193.243 175.07 192.753 174.901 192.278 174.586L193.423 173.036C193.751 173.21 194.074 173.27 194.393 173.216C194.712 173.165 194.983 172.99 195.205 172.689C195.393 172.434 195.488 172.161 195.489 171.868C195.492 171.58 195.401 171.286 195.216 170.987C195.032 170.688 194.753 170.401 194.38 170.125C194.003 169.846 193.643 169.66 193.302 169.568C192.96 169.477 192.649 169.476 192.369 169.564C192.09 169.652 191.856 169.823 191.669 170.077C191.53 170.265 191.444 170.462 191.411 170.668C191.376 170.877 191.396 171.084 191.47 171.29C191.545 171.5 191.676 171.698 191.861 171.882L190.716 173.433C190.283 173.073 189.975 172.655 189.794 172.179C189.614 171.708 189.569 171.209 189.661 170.681C189.753 170.153 189.994 169.625 190.383 169.098ZM187.728 180.92L188.859 179.426C189.001 179.505 189.155 179.547 189.32 179.55C189.488 179.555 189.658 179.518 189.828 179.437C189.999 179.36 190.162 179.232 190.316 179.053C190.522 178.812 190.645 178.566 190.684 178.314C190.726 178.064 190.664 177.867 190.496 177.723C190.363 177.609 190.204 177.565 190.021 177.593C189.837 177.62 189.606 177.74 189.327 177.952L188.256 178.788C187.678 179.236 187.151 179.487 186.675 179.542C186.198 179.596 185.759 179.451 185.356 179.105C184.99 178.791 184.761 178.407 184.67 177.954C184.576 177.503 184.612 177.025 184.778 176.518C184.943 176.016 185.234 175.522 185.65 175.037C186.285 174.297 186.945 173.84 187.63 173.665C188.315 173.495 188.956 173.601 189.554 173.984L188.326 175.577C188.061 175.43 187.793 175.393 187.523 175.468C187.254 175.546 187.001 175.722 186.764 175.999C186.531 176.271 186.396 176.534 186.359 176.788C186.322 177.047 186.386 177.25 186.551 177.396C186.694 177.514 186.86 177.553 187.05 177.514C187.242 177.476 187.466 177.357 187.723 177.156L188.746 176.354C189.324 175.902 189.861 175.658 190.36 175.622C190.856 175.589 191.312 175.751 191.73 176.109C192.089 176.417 192.315 176.779 192.408 177.196C192.499 177.615 192.462 178.062 192.299 178.537C192.134 179.014 191.846 179.492 191.436 179.97C190.831 180.676 190.205 181.103 189.559 181.252C188.911 181.404 188.301 181.293 187.728 180.92ZM182.714 178.576L189.637 185.538L188.189 186.978L185.586 184.361L185.542 184.405C185.618 184.608 185.668 184.842 185.692 185.107C185.717 185.376 185.68 185.656 185.582 185.947C185.484 186.243 185.288 186.536 184.996 186.827C184.615 187.205 184.165 187.455 183.645 187.575C183.127 187.698 182.573 187.656 181.984 187.449C181.397 187.244 180.806 186.842 180.211 186.244C179.632 185.661 179.237 185.076 179.026 184.488C178.816 183.904 178.769 183.349 178.885 182.823C179.002 182.301 179.259 181.843 179.655 181.449C179.936 181.169 180.222 180.978 180.511 180.875C180.799 180.774 181.074 180.732 181.339 180.748C181.605 180.767 181.844 180.816 182.054 180.896L182.118 180.832L181.287 179.996L182.714 178.576ZM183.893 182.596C183.584 182.286 183.272 182.058 182.956 181.912C182.64 181.767 182.336 181.711 182.044 181.744C181.755 181.779 181.494 181.913 181.26 182.145C181.024 182.379 180.889 182.642 180.854 182.933C180.822 183.227 180.879 183.531 181.025 183.846C181.171 184.165 181.395 184.476 181.697 184.78C181.996 185.081 182.302 185.305 182.613 185.45C182.925 185.596 183.226 185.652 183.518 185.619C183.81 185.586 184.075 185.451 184.312 185.215C184.548 184.98 184.686 184.72 184.725 184.433C184.762 184.148 184.71 183.848 184.568 183.534C184.427 183.219 184.202 182.907 183.893 182.596ZM175.635 185.245C175.874 185.038 176.153 184.944 176.471 184.965C176.789 184.99 177.051 185.122 177.258 185.361C177.463 185.598 177.555 185.874 177.532 186.19C177.507 186.507 177.375 186.77 177.136 186.977C176.904 187.178 176.628 187.269 176.307 187.251C175.987 187.232 175.724 187.105 175.519 186.868C175.381 186.709 175.295 186.527 175.262 186.323C175.229 186.123 175.243 185.927 175.305 185.734C175.368 185.544 175.478 185.381 175.635 185.245ZM170.803 189.086C171.403 188.624 172.013 188.348 172.634 188.258C173.253 188.173 173.852 188.264 174.43 188.533C175.01 188.805 175.537 189.248 176.01 189.864C176.472 190.464 176.761 191.081 176.877 191.713C176.993 192.346 176.937 192.952 176.709 193.531C176.478 194.111 176.077 194.622 175.504 195.062C175.119 195.359 174.713 195.572 174.286 195.704C173.858 195.839 173.425 195.88 172.988 195.825C172.548 195.772 172.115 195.613 171.69 195.348C171.266 195.086 170.863 194.706 170.481 194.21L170.139 193.765L175.066 189.973L175.838 190.976L172.434 193.596C172.613 193.829 172.823 193.996 173.063 194.098C173.302 194.2 173.551 194.233 173.809 194.195C174.066 194.163 174.312 194.056 174.548 193.875C174.794 193.686 174.968 193.461 175.07 193.201C175.172 192.945 175.203 192.681 175.163 192.41C175.125 192.14 175.019 191.889 174.844 191.657L174.11 190.703C173.888 190.415 173.642 190.206 173.374 190.078C173.104 189.951 172.826 189.907 172.54 189.945C172.255 189.983 171.977 190.106 171.706 190.315C171.526 190.453 171.381 190.605 171.27 190.771C171.16 190.937 171.091 191.111 171.062 191.294C171.034 191.477 171.048 191.664 171.106 191.854L169.533 192.907C169.332 192.489 169.246 192.055 169.275 191.605C169.303 191.16 169.445 190.72 169.7 190.286C169.954 189.857 170.322 189.457 170.803 189.086ZM164.778 193.394C165.247 193.089 165.751 192.935 166.288 192.929C166.824 192.928 167.357 193.091 167.885 193.419C168.413 193.751 168.9 194.262 169.347 194.952C169.806 195.66 170.073 196.322 170.149 196.939C170.227 197.559 170.153 198.108 169.926 198.587C169.698 199.069 169.357 199.458 168.904 199.751C168.558 199.976 168.231 200.104 167.924 200.135C167.616 200.171 167.335 200.148 167.08 200.065C166.823 199.988 166.604 199.89 166.421 199.772L166.369 199.806L168.376 202.904L166.667 204.012L161.327 195.773L163.017 194.678L163.658 195.667L163.731 195.62C163.7 195.397 163.703 195.153 163.741 194.888C163.778 194.628 163.878 194.367 164.04 194.106C164.2 193.847 164.445 193.609 164.778 193.394ZM165.119 195.109C164.843 195.288 164.658 195.515 164.565 195.788C164.471 196.066 164.461 196.375 164.537 196.715C164.609 197.056 164.765 197.41 165.003 197.778C165.241 198.145 165.499 198.432 165.776 198.636C166.054 198.841 166.337 198.955 166.626 198.977C166.914 199 167.197 198.921 167.473 198.742C167.755 198.56 167.942 198.329 168.037 198.051C168.131 197.773 168.139 197.467 168.063 197.132C167.987 196.796 167.833 196.45 167.602 196.094C167.369 195.734 167.113 195.449 166.835 195.237C166.556 195.029 166.271 194.909 165.979 194.877C165.687 194.849 165.4 194.927 165.119 195.109ZM157.206 201.619L159.203 205.346L157.403 206.311L153.925 199.821L155.653 198.894L156.285 200.073L156.353 200.037C156.295 199.578 156.375 199.142 156.592 198.728C156.806 198.316 157.157 197.98 157.645 197.718C158.078 197.486 158.513 197.38 158.948 197.4C159.383 197.421 159.791 197.563 160.172 197.827C160.55 198.092 160.876 198.478 161.151 198.983L163.365 203.116L161.565 204.08L159.523 200.269C159.315 199.887 159.05 199.64 158.727 199.526C158.405 199.412 158.074 199.446 157.733 199.629C157.516 199.745 157.34 199.903 157.204 200.103C157.069 200.306 156.997 200.536 156.987 200.796C156.975 201.056 157.048 201.331 157.206 201.619Z" fill="#FFFEFE"/>
<path d="M57.2197 194.659C57.8521 195.052 58.3154 195.527 58.6096 196.082C58.8995 196.639 59.019 197.236 58.9682 197.875C58.9157 198.516 58.6903 199.157 58.292 199.797C57.8902 200.443 57.4143 200.93 56.8641 201.258C56.3123 201.588 55.7235 201.745 55.0978 201.728C54.4676 201.713 53.8363 201.508 53.204 201.115C52.5717 200.722 52.1106 200.247 51.8207 199.69C51.5265 199.135 51.4056 198.536 51.458 197.895C51.5088 197.257 51.7351 196.615 52.1368 195.969C52.5352 195.328 53.0103 194.843 53.5621 194.512C54.1123 194.184 54.7024 194.028 55.3326 194.044C55.9583 194.061 56.5874 194.265 57.2197 194.659ZM56.376 195.997C56.0884 195.818 55.7975 195.75 55.5036 195.793C55.2079 195.839 54.9226 195.974 54.6477 196.198C54.37 196.421 54.1181 196.714 53.8919 197.077C53.6657 197.441 53.5142 197.796 53.4374 198.144C53.3579 198.49 53.3629 198.805 53.4527 199.091C53.5424 199.376 53.7311 199.608 54.0188 199.787C54.3091 199.968 54.6049 200.037 54.906 199.995C55.2043 199.95 55.4923 199.817 55.77 199.595C56.0449 199.371 56.2955 199.077 56.5217 198.713C56.7479 198.349 56.9007 197.995 56.9803 197.649C57.0571 197.301 57.0493 196.984 56.9569 196.697C56.86 196.411 56.6664 196.178 56.376 195.997ZM45.4532 195.777L46.3506 194.532L50.0366 197.191L49.1392 198.435L45.4532 195.777ZM52.603 191.854L47.9842 198.258C47.6719 198.691 47.3288 198.989 46.9546 199.153C46.5779 199.315 46.1903 199.36 45.792 199.29C45.3937 199.219 45.0066 199.048 44.6307 198.777C44.3767 198.594 44.1587 198.407 43.9768 198.217C43.7923 198.025 43.6594 197.876 43.5782 197.77L44.7711 196.739C44.8209 196.806 44.8872 196.884 44.9701 196.971C45.0503 197.056 45.1397 197.135 45.2382 197.206C45.4818 197.381 45.6927 197.447 45.8709 197.402C46.0472 197.36 46.2083 197.237 46.3541 197.035L50.9505 190.663L52.603 191.854ZM46.4976 186.942C47.082 187.424 47.4875 187.957 47.714 188.541C47.936 189.126 47.9805 189.73 47.8475 190.354C47.7125 190.98 47.398 191.592 46.9039 192.191C46.4221 192.776 45.8858 193.195 45.295 193.45C44.7042 193.704 44.1012 193.785 43.4861 193.692C42.8685 193.597 42.281 193.32 41.7237 192.86C41.3489 192.551 41.0498 192.203 40.8263 191.816C40.5984 191.429 40.4622 191.016 40.4178 190.578C40.3709 190.138 40.429 189.68 40.5923 189.206C40.7535 188.734 41.0333 188.256 41.4318 187.773L41.7886 187.34L46.5862 191.296L45.7811 192.272L42.4668 189.54C42.2797 189.767 42.1634 190.008 42.1176 190.265C42.0719 190.521 42.096 190.771 42.1897 191.014C42.279 191.257 42.4383 191.473 42.6676 191.663C42.9068 191.86 43.1646 191.979 43.4411 192.021C43.713 192.063 43.977 192.034 44.2331 191.934C44.4871 191.837 44.7078 191.677 44.8953 191.455L45.6608 190.527C45.8925 190.245 46.041 189.96 46.1062 189.67C46.1689 189.378 46.1498 189.097 46.049 188.827C45.9481 188.558 45.7658 188.314 45.5019 188.097C45.3268 187.952 45.1462 187.845 44.96 187.774C44.7739 187.704 44.5884 187.675 44.4035 187.688C44.2186 187.701 44.04 187.757 43.8679 187.855L42.4898 186.558C42.8524 186.268 43.2562 186.088 43.7011 186.015C44.1414 185.944 44.6016 185.983 45.0816 186.135C45.557 186.286 46.0291 186.555 46.4976 186.942ZM38.3833 185.63L41.3541 182.581L42.8169 184.006L37.6781 189.28L36.284 187.922L37.1907 186.991L37.1289 186.931C36.7133 187.124 36.2811 187.176 35.8325 187.087C35.3816 187 34.9604 186.766 34.569 186.385C34.2027 186.028 33.9614 185.637 33.8452 185.211C33.7289 184.785 33.7402 184.35 33.8791 183.905C34.0157 183.463 34.2836 183.037 34.6829 182.627L37.9548 179.269L39.4175 180.694L36.3999 183.791C36.0831 184.112 35.9202 184.444 35.9111 184.787C35.8997 185.133 36.0406 185.449 36.3336 185.735C36.5305 185.926 36.7457 186.054 36.9793 186.116C37.2106 186.176 37.4478 186.166 37.6908 186.086C37.9294 186.006 38.1602 185.854 38.3833 185.63ZM36.8761 173.686C37.3102 174.185 37.6137 174.673 37.7866 175.149C37.9599 175.621 38.0207 176.064 37.9693 176.477C37.9178 176.89 37.7734 177.255 37.5361 177.572L36.1049 176.313C36.1781 176.173 36.2221 176.014 36.2367 175.836C36.2514 175.658 36.2206 175.467 36.1442 175.262C36.0682 175.053 35.9327 174.836 35.7377 174.612C35.4461 174.277 35.124 174.072 34.7713 173.998C34.4189 173.919 34.0521 174.045 33.6711 174.376L32.6545 175.26L32.7111 175.325C32.9242 175.259 33.1582 175.233 33.4131 175.249C33.668 175.264 33.9312 175.34 34.2025 175.477C34.4739 175.614 34.7375 175.829 34.9934 176.123C35.3562 176.541 35.59 177.004 35.6949 177.515C35.7952 178.024 35.7333 178.555 35.5091 179.106C35.2804 179.656 34.8586 180.199 34.2436 180.733C33.6141 181.281 32.9993 181.635 32.3989 181.797C31.7986 181.959 31.2457 181.962 30.7402 181.804C30.2326 181.644 29.8016 181.36 29.4471 180.953C29.1766 180.641 29.0032 180.335 28.9268 180.033C28.8481 179.733 28.8315 179.451 28.8771 179.187C28.9182 178.922 28.9831 178.69 29.0718 178.49L29.0215 178.432L28.0882 179.244L26.7575 177.713L32.3684 172.834C32.8411 172.423 33.3373 172.195 33.857 172.15C34.3766 172.105 34.8943 172.218 35.41 172.489C35.926 172.756 36.4147 173.155 36.8761 173.686ZM33.4111 176.642C33.1951 176.393 32.9511 176.237 32.6792 176.173C32.4028 176.108 32.109 176.131 31.7978 176.24C31.482 176.35 31.1614 176.546 30.8358 176.829C30.5102 177.112 30.2679 177.403 30.1088 177.703C29.9473 178.004 29.8758 178.299 29.8941 178.588C29.9125 178.877 30.0297 179.146 30.2457 179.394C30.4659 179.647 30.7202 179.801 31.0087 179.855C31.2947 179.911 31.5971 179.879 31.9159 179.759C32.2347 179.638 32.552 179.441 32.868 179.166C33.1887 178.887 33.4273 178.601 33.5836 178.309C33.7355 178.016 33.8008 177.728 33.7798 177.446C33.7542 177.163 33.6313 176.895 33.4111 176.642ZM29.9988 164.705C30.5779 165.544 30.979 166.37 31.2022 167.183C31.428 167.994 31.4774 168.777 31.3503 169.533C31.2259 170.287 30.9297 171 30.4618 171.672C29.9939 172.345 29.3575 172.959 28.5525 173.514C27.7582 174.062 26.9557 174.441 26.1453 174.651C25.333 174.858 24.5374 174.893 23.7586 174.755C22.9772 174.618 22.2337 174.306 21.5281 173.818C20.8208 173.328 20.1748 172.659 19.5903 171.812C19.0493 171.028 18.6809 170.25 18.4849 169.476C18.2872 168.7 18.2521 167.952 18.3797 167.231C18.5029 166.509 18.778 165.836 19.205 165.211C19.6276 164.585 20.1909 164.031 20.8951 163.549C21.3772 163.213 21.8508 162.948 22.3158 162.755C22.7808 162.562 23.229 162.455 23.6604 162.433C24.0873 162.41 24.4924 162.488 24.8756 162.666C25.2561 162.846 25.6053 163.141 25.923 163.551C26.1573 163.84 26.3056 164.102 26.3679 164.339C26.4302 164.576 26.4288 164.79 26.3636 164.983C26.294 165.174 26.1784 165.347 26.0169 165.502L26.0496 165.549C26.251 165.503 26.4796 165.528 26.7356 165.623C26.9889 165.72 27.2428 165.877 27.4972 166.094C27.7471 166.309 27.9654 166.572 28.1521 166.882C28.3479 167.205 28.4789 167.55 28.5451 167.916C28.6094 168.279 28.5963 168.651 28.5058 169.032C28.4135 169.41 28.2337 169.783 27.9666 170.15C27.6976 170.514 27.3325 170.857 26.8714 171.179C26.4119 171.493 25.9689 171.703 25.5424 171.811C25.1142 171.916 24.7117 171.944 24.335 171.893C23.9565 171.84 23.6116 171.728 23.3003 171.559C22.9891 171.389 22.7243 171.185 22.5059 170.948C22.2561 170.681 22.0619 170.4 21.9232 170.103C21.7846 169.807 21.7026 169.533 21.6773 169.283C21.6502 169.03 21.6791 168.841 21.764 168.716L21.7259 168.661L21.2839 168.966L20.4316 167.731L24.2826 165.073C24.4623 164.945 24.5749 164.808 24.6204 164.66C24.6659 164.512 24.6423 164.371 24.5497 164.237C24.4245 164.055 24.2399 163.959 23.9959 163.949C23.7501 163.936 23.4407 164.014 23.0675 164.182C22.6925 164.348 22.2485 164.607 21.7356 164.961C21.241 165.303 20.8524 165.668 20.5697 166.057C20.2825 166.446 20.0881 166.848 19.9866 167.263C19.8807 167.678 19.8511 168.097 19.8978 168.519C19.9444 168.941 20.054 169.359 20.2264 169.772C20.397 170.182 20.613 170.577 20.8744 170.955C21.3264 171.61 21.8212 172.113 22.3588 172.465C22.8937 172.818 23.4526 173.034 24.0354 173.113C24.6183 173.193 25.2066 173.148 25.8006 172.979C26.39 172.809 26.9685 172.53 27.5358 172.142C28.1574 171.709 28.6499 171.241 29.0133 170.738C29.3722 170.234 29.5986 169.701 29.6924 169.139C29.7862 168.578 29.7466 167.991 29.5737 167.381C29.4008 166.77 29.0928 166.144 28.6499 165.502C28.4411 165.199 28.2145 164.919 27.9701 164.66C27.7284 164.4 27.4951 164.175 27.2704 163.984C27.0484 163.792 26.8594 163.645 26.7035 163.542L27.5782 162.362C27.7872 162.463 28.0306 162.627 28.3082 162.854C28.5866 163.078 28.8733 163.35 29.1683 163.67C29.4642 163.987 29.741 164.331 29.9988 164.705ZM26.5572 167.348C26.3357 167.027 26.0978 166.815 25.8435 166.711C25.5873 166.604 25.3101 166.593 25.0119 166.679C24.7091 166.763 24.3807 166.932 24.0266 167.184C23.7128 167.404 23.4739 167.629 23.3101 167.859C23.1417 168.088 23.0664 168.336 23.084 168.603C23.0971 168.87 23.219 169.17 23.4495 169.504C23.651 169.796 23.8844 170.002 24.1496 170.122C24.413 170.239 24.6937 170.275 24.9917 170.228C25.2853 170.181 25.5829 170.055 25.8846 169.851C26.1616 169.656 26.3951 169.429 26.5851 169.169C26.7725 168.912 26.8748 168.63 26.892 168.323C26.9066 168.017 26.795 167.693 26.5572 167.348ZM18.5053 157.451L14.7834 159.457L13.8143 157.66L20.2959 154.165L21.2264 155.891L20.0491 156.526L20.0855 156.594C20.5441 156.535 20.9806 156.614 21.3948 156.83C21.8075 157.043 22.145 157.393 22.4074 157.88C22.6409 158.313 22.748 158.747 22.7285 159.183C22.709 159.618 22.5679 160.026 22.3051 160.408C22.0408 160.786 21.6562 161.113 21.1513 161.389L17.0243 163.614L16.0552 161.816L19.8615 159.764C20.2425 159.555 20.4896 159.289 20.6026 158.967C20.7157 158.645 20.6804 158.313 20.4969 157.973C20.3801 157.756 20.2217 157.58 20.0216 157.445C19.8187 157.311 19.5877 157.239 19.3286 157.23C19.068 157.218 18.7936 157.292 18.5053 157.451ZM18.4013 149.586C18.6998 150.279 18.8099 150.938 18.7314 151.563C18.6488 152.187 18.4023 152.746 17.992 153.239C17.5805 153.73 17.0328 154.123 16.349 154.417C15.6563 154.716 14.9912 154.844 14.3536 154.802C13.7119 154.759 13.1374 154.552 12.6301 154.183C12.1199 153.814 11.7174 153.288 11.4227 152.604C11.1684 152.014 11.0529 151.452 11.0761 150.916C11.0994 150.381 11.2491 149.9 11.5252 149.475C11.8013 149.05 12.1949 148.711 12.7059 148.46L13.4687 150.23C13.1527 150.425 12.9381 150.674 12.825 150.977C12.7077 151.278 12.723 151.6 12.871 151.944C12.9963 152.234 13.1849 152.454 13.437 152.603C13.6849 152.75 13.9845 152.819 14.3357 152.811C14.687 152.802 15.0754 152.706 15.501 152.522C15.9324 152.336 16.274 152.12 16.5257 151.872C16.7761 151.621 16.9338 151.353 16.9987 151.068C17.0636 150.782 17.0334 150.494 16.9082 150.204C16.8158 149.989 16.6889 149.816 16.5275 149.684C16.3648 149.549 16.1758 149.461 15.9604 149.422C15.7409 149.381 15.5046 149.394 15.2517 149.461L14.4889 147.691C15.0182 147.498 15.5338 147.443 16.0359 147.526C16.5338 147.607 16.9876 147.82 17.3975 148.166C17.8074 148.511 18.142 148.985 18.4013 149.586ZM9.5256 141.339L10.247 143.068C10.1065 143.151 9.99312 143.263 9.9069 143.404C9.81766 143.547 9.76508 143.712 9.74916 143.9C9.72918 144.087 9.75794 144.292 9.83545 144.515C9.93913 144.814 10.09 145.044 10.288 145.205C10.4831 145.368 10.6847 145.413 10.8931 145.341C11.0592 145.283 11.1765 145.168 11.2452 144.995C11.3138 144.823 11.3269 144.563 11.2843 144.215L11.1012 142.868C11.0055 142.144 11.054 141.562 11.2468 141.123C11.4396 140.684 11.7866 140.378 12.2879 140.204C12.7438 140.046 13.1905 140.041 13.6279 140.191C14.0643 140.337 14.4598 140.609 14.8143 141.007C15.1648 141.403 15.4448 141.903 15.6542 142.507C15.9737 143.428 16.0364 144.228 15.8425 144.908C15.6445 145.585 15.2296 146.086 14.5978 146.41L13.8399 144.547C14.1008 144.392 14.267 144.179 14.3385 143.907C14.407 143.636 14.3816 143.329 14.2622 142.985C14.1449 142.646 13.9857 142.397 13.7846 142.237C13.5795 142.075 13.3722 142.028 13.1628 142.097C12.9888 142.161 12.871 142.285 12.8095 142.469C12.7451 142.653 12.735 142.907 12.7793 143.23L12.9572 144.518C13.0569 145.245 12.9968 145.832 12.7769 146.28C12.5559 146.726 12.1857 147.039 11.6663 147.219C11.2194 147.374 10.7925 147.387 10.3857 147.257C9.97773 147.124 9.60975 146.868 9.28171 146.488C8.95262 146.105 8.68491 145.616 8.47859 145.021C8.17382 144.142 8.11968 143.387 8.31618 142.753C8.51164 142.117 8.91478 141.646 9.5256 141.339ZM14.0784 138.187L4.56816 140.627L4.06069 138.649L7.63632 137.731L7.62083 137.671C7.40665 137.634 7.17946 137.558 6.93924 137.445C6.69512 137.329 6.47236 137.156 6.27094 136.924C6.06564 136.689 5.91176 136.372 5.80931 135.973C5.67589 135.453 5.68901 134.938 5.84867 134.429C6.00523 133.92 6.32219 133.464 6.79954 133.061C7.2738 132.659 7.91957 132.353 8.73686 132.143C9.53247 131.939 10.2372 131.896 10.8511 132.012C11.4611 132.126 11.9633 132.367 12.3578 132.734C12.7484 133.099 13.0132 133.552 13.1521 134.094C13.2506 134.478 13.2709 134.821 13.2131 135.123C13.1545 135.422 13.051 135.681 12.9028 135.9C12.7514 136.121 12.5882 136.301 12.4131 136.442L12.4357 136.53L13.5781 136.237L14.0784 138.187ZM10.0153 137.166C10.4394 137.057 10.7943 136.903 11.0799 136.704C11.3655 136.506 11.5679 136.272 11.6872 136.004C11.8034 135.737 11.8206 135.444 11.7388 135.125C11.6562 134.803 11.4981 134.553 11.2644 134.376C11.0277 134.199 10.7367 134.094 10.3916 134.06C10.0425 134.024 9.6606 134.059 9.24576 134.166C8.83402 134.271 8.48651 134.422 8.20322 134.616C7.91993 134.811 7.71865 135.043 7.59937 135.311C7.48009 135.579 7.46214 135.876 7.54553 136.201C7.62812 136.523 7.78314 136.773 8.01059 136.952C8.23724 137.129 8.522 137.235 8.86485 137.273C9.2077 137.31 9.59119 137.274 10.0153 137.166ZM11.914 128.705C11.9718 129.016 11.9115 129.304 11.733 129.568C11.5508 129.829 11.3041 129.989 10.993 130.047C10.6851 130.104 10.4007 130.043 10.1399 129.864C9.87845 129.682 9.71884 129.435 9.66103 129.124C9.60497 128.822 9.66589 128.538 9.8438 128.271C10.0217 128.004 10.2646 127.842 10.5726 127.784C10.78 127.746 10.98 127.764 11.1727 127.839C11.3616 127.911 11.5237 128.022 11.6589 128.172C11.791 128.323 11.876 128.501 11.914 128.705ZM11.0392 122.595C11.135 123.346 11.0652 124.012 10.83 124.593C10.5912 125.171 10.2098 125.642 9.68578 126.005C9.15863 126.369 8.50985 126.6 7.73945 126.698C6.98807 126.794 6.31005 126.732 5.70537 126.513C5.1007 126.293 4.6061 125.939 4.22158 125.45C3.83665 124.958 3.59852 124.354 3.50719 123.637C3.44577 123.155 3.46626 122.697 3.56867 122.261C3.66751 121.824 3.85089 121.43 4.11881 121.08C4.38633 120.727 4.742 120.433 5.18582 120.2C5.62647 119.966 6.15749 119.81 6.77888 119.731L7.33528 119.66L8.12147 125.828L6.866 125.988L6.32288 121.727C6.03121 121.764 5.78091 121.86 5.57197 122.016C5.36304 122.171 5.20951 122.37 5.11139 122.611C5.00969 122.849 4.97764 123.116 5.01522 123.411C5.05442 123.718 5.1605 123.982 5.33348 124.202C5.50288 124.418 5.71495 124.578 5.9697 124.681C6.22128 124.784 6.49153 124.819 6.78044 124.786L7.97408 124.633C8.3355 124.587 8.6393 124.481 8.88547 124.314C9.13123 124.144 9.30969 123.927 9.42083 123.661C9.53198 123.396 9.56593 123.093 9.52269 122.754C9.494 122.529 9.43603 122.327 9.34878 122.148C9.26153 121.969 9.14601 121.821 9.00223 121.704C8.85844 121.587 8.69016 121.506 8.49739 121.459L8.3822 119.57C8.84452 119.608 9.2625 119.752 9.63614 120.004C10.0062 120.254 10.3143 120.598 10.5603 121.037C10.8028 121.473 10.9624 121.992 11.0392 122.595ZM10.3596 115.22C10.3856 115.779 10.2656 116.292 9.99937 116.758C9.72984 117.222 9.3203 117.6 8.77077 117.891C8.2179 118.179 7.53122 118.342 6.71073 118.38C5.8679 118.42 5.1608 118.317 4.58945 118.071C4.01491 117.826 3.57826 117.485 3.27952 117.048C2.97744 116.608 2.81381 116.118 2.78865 115.578C2.76945 115.166 2.82368 114.82 2.95135 114.539C3.07568 114.255 3.23766 114.023 3.43728 113.844C3.63357 113.662 3.82859 113.522 4.02236 113.423L4.01946 113.361L0.33206 113.533L0.237153 111.498L10.0447 111.04L10.1385 113.052L8.96042 113.107L8.96444 113.193C9.17322 113.279 9.38228 113.405 9.5916 113.572C9.79758 113.735 9.97249 113.952 10.1163 114.224C10.26 114.492 10.3411 114.824 10.3596 115.22ZM8.70601 114.65C8.69068 114.321 8.58833 114.047 8.39898 113.829C8.20629 113.607 7.94429 113.444 7.61299 113.338C7.28155 113.228 6.89713 113.184 6.45975 113.204C6.02237 113.225 5.64529 113.303 5.3285 113.439C5.01171 113.576 4.77088 113.763 4.606 114.001C4.44113 114.239 4.36636 114.522 4.3817 114.851C4.39733 115.186 4.50149 115.465 4.69419 115.686C4.88688 115.907 5.14721 116.07 5.47516 116.173C5.80312 116.276 6.1794 116.317 6.60401 116.298C7.03181 116.278 7.40738 116.201 7.7307 116.068C8.05069 115.931 8.29798 115.745 8.47257 115.51C8.64383 115.272 8.72164 114.985 8.70601 114.65ZM7.10848 104.514L2.88399 104.334L2.97117 102.293L10.3281 102.607L10.2444 104.566L8.90808 104.509L8.90481 104.586C9.32878 104.77 9.66343 105.061 9.90876 105.459C10.1542 105.853 10.2652 106.327 10.2415 106.879C10.2205 107.371 10.0903 107.799 9.85081 108.163C9.61133 108.527 9.28114 108.805 8.86022 108.999C8.43944 109.189 7.9416 109.273 7.36671 109.251L2.68242 109.051L2.7696 107.011L7.08987 107.196C7.52427 107.211 7.87251 107.109 8.13459 106.89C8.39667 106.671 8.53596 106.368 8.55247 105.982C8.56298 105.736 8.51692 105.503 8.4143 105.285C8.30849 105.066 8.14662 104.886 7.9287 104.746C7.71091 104.602 7.4375 104.525 7.10848 104.514ZM63.5389 21.7075C62.8809 22.0562 62.2378 22.2179 61.6095 22.1927C60.9826 22.1632 60.4061 21.966 59.8799 21.601C59.3522 21.2332 58.9118 20.716 58.5586 20.0495C58.2025 19.3774 58.0211 18.7212 58.0146 18.0808C58.0065 17.4377 58.167 16.8498 58.4961 16.3174C58.8266 15.7805 59.3208 15.3378 59.9788 14.9891C60.6368 14.6405 61.2792 14.4809 61.9061 14.5104C62.5344 14.5355 63.1123 14.732 63.64 15.0999C64.1662 15.4649 64.6074 15.9834 64.9635 16.6555C65.3167 17.322 65.4973 17.9768 65.5054 18.62C65.5119 19.2604 65.35 19.8489 65.0196 20.3858C64.6904 20.9182 64.1969 21.3588 63.5389 21.7075ZM62.8066 20.3051C63.106 20.1465 63.311 19.9293 63.4217 19.6536C63.5309 19.3751 63.5578 19.0607 63.5023 18.7103C63.4497 18.3584 63.3231 17.9932 63.1226 17.6148C62.9221 17.2364 62.691 16.9266 62.4294 16.6854C62.1706 16.4428 61.8953 16.2885 61.6035 16.2224C61.3117 16.1564 61.0161 16.2027 60.7168 16.3614C60.4146 16.5215 60.2061 16.7423 60.0912 17.0238C59.9792 17.3038 59.9495 17.6198 60.0021 17.9717C60.0576 18.3221 60.1856 18.6865 60.3861 19.0649C60.5866 19.4433 60.8163 19.7538 61.0751 19.9965C61.3367 20.2376 61.6148 20.3905 61.9094 20.455C62.2054 20.5152 62.5044 20.4652 62.8066 20.3051ZM68.4941 10.9761L69.1176 12.3777L64.9652 14.2249L64.3417 12.8233L68.4941 10.9761ZM68.2851 19.1284L65.0759 11.9142C64.8589 11.4266 64.7739 10.9799 64.8209 10.5743C64.8707 10.1673 65.0263 9.8095 65.2878 9.50081C65.5492 9.19211 65.8917 8.94358 66.3151 8.75522C66.6012 8.62792 66.8723 8.53356 67.1284 8.47214C67.3873 8.40942 67.5829 8.3696 67.7153 8.35268L68.006 9.90243C67.9226 9.91154 67.8223 9.92991 67.7052 9.95753C67.591 9.98386 67.4784 10.0217 67.3674 10.0711C67.0929 10.1932 66.9302 10.3425 66.8793 10.5191C66.8272 10.6927 66.8517 10.8934 66.953 11.1211L70.1467 18.3003L68.2851 19.1284ZM75.6051 16.331C74.8942 16.5925 74.2293 16.6735 73.6105 16.5742C72.9935 16.4707 72.4494 16.2043 71.9782 15.7748C71.5059 15.3424 71.1357 14.7617 70.8677 14.0328C70.6063 13.3219 70.5148 12.6472 70.5933 12.0088C70.6719 11.3704 70.9064 10.8091 71.2971 10.3249C71.6907 9.83962 72.2265 9.47233 72.9044 9.22304C73.3603 9.05537 73.8118 8.97278 74.2588 8.97526C74.7077 8.97364 75.1326 9.06426 75.5336 9.24712C75.9376 9.42888 76.3031 9.7099 76.6302 10.0902C76.9563 10.4675 77.2274 10.9501 77.4436 11.538L77.6372 12.0644L71.8014 14.2104L71.3646 13.0226L75.3961 11.5401C75.2946 11.2641 75.1447 11.0417 74.9464 10.8728C74.7481 10.704 74.5204 10.5987 74.2633 10.5571C74.0081 10.5113 73.741 10.5397 73.462 10.6423C73.1711 10.7493 72.9379 10.9116 72.7626 11.1293C72.5892 11.343 72.4808 11.5854 72.4376 11.8567C72.3932 12.125 72.4197 12.3962 72.5171 12.6703L72.9324 13.7996C73.0581 14.1416 73.2298 14.4139 73.4473 14.6165C73.6679 14.8181 73.9199 14.9433 74.2036 14.9923C74.4872 15.0412 74.7894 15.0067 75.1104 14.8886C75.3234 14.8103 75.5073 14.7086 75.6622 14.5835C75.8172 14.4585 75.9356 14.3128 76.0174 14.1465C76.0993 13.9802 76.1412 13.7979 76.1432 13.5996L77.959 13.0647C78.0257 13.5237 77.978 13.9635 77.8159 14.3841C77.6558 14.8005 77.3893 15.1778 77.0164 15.5158C76.6455 15.8497 76.175 16.1215 75.6051 16.331ZM80.833 9.98794L81.9654 14.0916L79.9968 14.6349L78.0379 7.53663L79.9141 7.01885L80.2597 8.27122L80.3429 8.24826C80.3861 7.79207 80.5594 7.3928 80.8628 7.05047C81.1653 6.70506 81.58 6.45966 82.1068 6.31427C82.5998 6.17824 83.0593 6.16747 83.4855 6.28195C83.9116 6.39644 84.2816 6.62588 84.5955 6.97028C84.9085 7.31159 85.1411 7.75799 85.2933 8.30946L86.5405 12.8291L84.5718 13.3724L83.4215 9.20397C83.3047 8.76871 83.1003 8.46043 82.8082 8.2791C82.5153 8.0947 82.1717 8.05691 81.7773 8.16574C81.5124 8.23886 81.2939 8.36047 81.1221 8.53057C80.9533 8.69983 80.842 8.90956 80.7884 9.15975C80.737 9.40602 80.7519 9.68208 80.833 9.98794ZM91.904 14.7165C91.2539 14.8392 90.6796 14.8549 90.181 14.7636C89.6861 14.6749 89.2733 14.504 88.9426 14.2509C88.6119 13.9979 88.3698 13.6891 88.2164 13.3245L90.0254 12.7244C90.1092 12.8582 90.2242 12.9764 90.3704 13.0789C90.5166 13.1814 90.6973 13.2514 90.9125 13.2888C91.1314 13.3288 91.387 13.3212 91.679 13.2661C92.1156 13.1837 92.455 13.009 92.6974 12.7421C92.9434 12.4778 93.0196 12.0975 92.926 11.6013L92.6761 10.2775L92.5913 10.2935C92.5413 10.5111 92.4453 10.726 92.3032 10.9382C92.1611 11.1504 91.9626 11.3392 91.7075 11.5044C91.4525 11.6696 91.1334 11.7884 90.7503 11.8607C90.2069 11.9633 89.6886 11.931 89.1952 11.7639C88.7044 11.5931 88.2779 11.2719 87.9156 10.8004C87.556 10.3251 87.3006 9.68707 87.1494 8.88623C86.9947 8.06654 86.9989 7.3567 87.1622 6.75671C87.3254 6.15673 87.6026 5.67833 87.9938 5.32152C88.3882 4.96411 88.8508 4.73532 89.3816 4.63514C89.7867 4.55867 90.1389 4.56374 90.4382 4.65036C90.7369 4.73383 90.9888 4.86192 91.1938 5.03464C91.4013 5.20363 91.569 5.37689 91.6968 5.55441L91.7722 5.54018L91.5428 4.32478L93.5355 3.94866L94.9146 11.2552C95.0308 11.8707 94.9772 12.4143 94.754 12.8857C94.5307 13.3572 94.1717 13.7469 93.677 14.055C93.1859 14.3656 92.5949 14.5861 91.904 14.7165ZM91.1017 10.2332C91.4252 10.1721 91.6833 10.0405 91.876 9.83822C92.0713 9.63223 92.2002 9.36722 92.2626 9.0432C92.3276 8.71545 92.3201 8.33958 92.2401 7.91561C92.16 7.49163 92.031 7.13545 91.853 6.84706C91.6744 6.55553 91.4557 6.34473 91.197 6.21468C90.9382 6.08463 90.6471 6.05014 90.3237 6.11119C89.9939 6.17343 89.7329 6.3154 89.5405 6.53709C89.3476 6.75565 89.2227 7.03292 89.1658 7.36891C89.1088 7.7049 89.1192 8.0786 89.1969 8.49001C89.2757 8.90771 89.402 9.25791 89.5757 9.54061C89.7519 9.81958 89.9672 10.0212 90.2216 10.1456C90.4786 10.2662 90.7719 10.2954 91.1017 10.2332ZM103.126 13.3222C102.109 13.3973 101.194 13.3255 100.38 13.1069C99.5656 12.8914 98.8649 12.5377 98.2774 12.0459C97.6901 11.5573 97.2247 10.9411 96.8814 10.1974C96.538 9.45359 96.3303 8.59404 96.2583 7.61871C96.1872 6.65614 96.2661 5.77221 96.495 4.96694C96.7272 4.16143 97.0998 3.45771 97.613 2.85577C98.1259 2.25065 98.7712 1.76714 99.5488 1.40525C100.33 1.04313 101.233 0.82416 102.26 0.748353C103.209 0.678196 104.067 0.754222 104.834 0.976431C105.603 1.1984 106.267 1.54679 106.824 2.02157C107.385 2.49294 107.826 3.07081 108.149 3.75521C108.475 4.43617 108.668 5.20229 108.728 6.05354C108.774 6.63978 108.763 7.1822 108.694 7.68082C108.625 8.17944 108.491 8.62038 108.292 9.00364C108.095 9.38348 107.824 9.69359 107.476 9.93398C107.128 10.1712 106.697 10.3232 106.183 10.39C105.815 10.446 105.514 10.4411 105.278 10.3751C105.042 10.3092 104.858 10.1995 104.725 10.0458C104.595 9.88881 104.504 9.70163 104.453 9.48429L104.395 9.48853C104.333 9.68542 104.196 9.8702 103.984 10.0429C103.773 10.2123 103.509 10.352 103.193 10.4618C102.881 10.5682 102.544 10.6236 102.182 10.6279C101.804 10.6333 101.441 10.5721 101.091 10.444C100.745 10.3157 100.431 10.1162 100.148 9.8455C99.8686 9.57452 99.6382 9.23101 99.4568 8.81497C99.2786 8.3987 99.1672 7.91019 99.1226 7.34946C99.0848 6.79463 99.1273 6.30598 99.2499 5.88351C99.3757 5.46081 99.5557 5.09979 99.79 4.80047C100.027 4.50092 100.298 4.2598 100.602 4.07713C100.906 3.89446 101.215 3.76904 101.531 3.70087C101.887 3.62008 102.228 3.59489 102.554 3.6253C102.88 3.65571 103.157 3.72335 103.386 3.82822C103.618 3.93286 103.766 4.0533 103.831 4.18954L103.898 4.1846L103.858 3.64912L105.355 3.53859L105.699 8.20486C105.719 8.42455 105.781 8.59142 105.885 8.70548C105.99 8.81953 106.124 8.87056 106.286 8.85855C106.506 8.84231 106.682 8.73156 106.814 8.5263C106.95 8.32081 107.039 8.01455 107.083 7.60753C107.13 7.20028 107.13 6.68588 107.084 6.06435C107.04 5.46513 106.922 4.94511 106.729 4.50427C106.539 4.06002 106.29 3.689 105.983 3.39122C105.679 3.09002 105.333 2.85279 104.945 2.67953C104.557 2.50627 104.142 2.38955 103.698 2.32937C103.258 2.26896 102.808 2.2557 102.349 2.2896C101.556 2.34823 100.871 2.52055 100.296 2.80658C99.7213 3.08942 99.2521 3.46217 98.8889 3.92484C98.5257 4.38751 98.2668 4.91779 98.1123 5.51567C97.9607 6.11013 97.9086 6.75011 97.9561 7.43562C98.015 8.19079 98.1697 8.85236 98.4199 9.42034C98.6731 9.9849 99.0183 10.4497 99.4555 10.8148C99.8927 11.1799 100.418 11.4423 101.033 11.6021C101.647 11.7618 102.343 11.8129 103.121 11.7555C103.487 11.7284 103.844 11.6748 104.19 11.5948C104.537 11.5179 104.85 11.4307 105.128 11.3332C105.406 11.239 105.629 11.1504 105.795 11.0676L106.371 12.4191C106.179 12.5487 105.914 12.6756 105.577 12.7998C105.244 12.927 104.864 13.0368 104.438 13.1291C104.016 13.2244 103.578 13.2888 103.126 13.3222ZM102.587 9.01643C102.976 8.98771 103.279 8.88997 103.498 8.72321C103.719 8.55622 103.869 8.32246 103.946 8.02193C104.026 7.71797 104.047 7.34949 104.008 6.91648C103.977 6.53424 103.904 6.21437 103.788 5.95688C103.676 5.69597 103.5 5.50547 103.261 5.38536C103.024 5.26184 102.703 5.21502 102.298 5.24492C101.945 5.27105 101.649 5.3682 101.411 5.53637C101.177 5.7043 101.005 5.92856 100.894 6.20913C100.786 6.48629 100.744 6.80666 100.768 7.17025C100.796 7.50788 100.874 7.8242 101.001 8.11923C101.129 8.41107 101.32 8.64207 101.577 8.81223C101.832 8.97921 102.169 9.04727 102.587 9.01643ZM115.208 7.09379L115.372 2.86865L117.413 2.9481L117.127 10.3062L115.167 10.2299L115.219 8.89336L115.143 8.89038C114.96 9.31505 114.67 9.6508 114.274 9.89763C113.88 10.1446 113.407 10.2573 112.855 10.2358C112.363 10.2167 111.935 10.088 111.57 9.84993C111.205 9.61183 110.925 9.28269 110.73 8.86251C110.538 8.44245 110.452 7.94493 110.472 7.36996L110.654 2.68494L112.695 2.7644L112.526 7.08534C112.513 7.5198 112.616 7.86765 112.836 8.12889C113.056 8.39014 113.359 8.52829 113.746 8.54333C113.992 8.55291 114.224 8.50597 114.442 8.40252C114.661 8.29588 114.84 8.13334 114.979 7.91488C115.122 7.69655 115.198 7.42286 115.208 7.09379ZM122.038 10.9659C121.289 10.8775 120.664 10.6428 120.161 10.2618C119.663 9.87795 119.303 9.38492 119.081 8.78271C118.862 8.18087 118.796 7.51017 118.884 6.77062C118.972 6.02156 119.194 5.38156 119.549 4.85065C119.908 4.31694 120.375 3.92302 120.949 3.66888C121.523 3.41157 122.18 3.32652 122.919 3.41375C123.557 3.48899 124.102 3.67072 124.554 3.95895C125.006 4.24718 125.347 4.61725 125.577 5.06917C125.807 5.52108 125.903 6.03121 125.865 6.59956L123.951 6.37383C123.94 6.00245 123.832 5.69201 123.626 5.4425C123.424 5.19019 123.138 5.04214 122.766 4.99834C122.452 4.96128 122.167 5.0146 121.912 5.15829C121.661 5.29919 121.451 5.52384 121.282 5.83224C121.114 6.14064 121.003 6.52496 120.948 6.98519C120.893 7.45178 120.91 7.85602 120.999 8.19791C121.09 8.54019 121.243 8.81087 121.458 9.00997C121.673 9.20907 121.937 9.32715 122.251 9.36421C122.483 9.39154 122.696 9.36845 122.892 9.29494C123.09 9.2218 123.261 9.10189 123.402 8.93519C123.548 8.7657 123.655 8.55465 123.723 8.30205L125.637 8.52778C125.54 9.08266 125.329 9.55667 125.006 9.94979C124.687 10.3401 124.275 10.6262 123.77 10.8081C123.266 10.99 122.689 11.0426 122.038 10.9659ZM133.634 7.43955L131.777 7.1918C131.776 7.02884 131.737 6.87446 131.658 6.72868C131.58 6.57976 131.463 6.45102 131.309 6.34247C131.158 6.23139 130.966 6.15304 130.734 6.10742C130.424 6.04639 130.149 6.06077 129.91 6.15056C129.671 6.23721 129.531 6.38873 129.488 6.60512C129.454 6.7776 129.495 6.93698 129.609 7.08328C129.724 7.22957 129.942 7.37177 130.263 7.50986L131.519 8.03036C132.193 8.31271 132.671 8.64773 132.953 9.03542C133.236 9.4231 133.325 9.87723 133.223 10.3978C133.13 10.8713 132.909 11.2594 132.559 11.5621C132.213 11.8653 131.779 12.0698 131.256 12.1756C130.738 12.2788 130.165 12.2688 129.538 12.1455C128.581 11.9575 127.858 11.6085 127.369 11.0987C126.883 10.5863 126.66 9.9756 126.698 9.26657L128.689 9.55054C128.692 9.85391 128.792 10.1049 128.991 10.3036C129.19 10.4991 129.469 10.632 129.826 10.7023C130.177 10.7714 130.473 10.7594 130.713 10.6665C130.956 10.571 131.101 10.4154 131.146 10.1997C131.179 10.0172 131.132 9.8531 131.004 9.70748C130.877 9.55872 130.663 9.42215 130.361 9.29778L129.159 8.80249C128.481 8.52266 128.004 8.17479 127.727 7.75888C127.454 7.34358 127.37 6.86624 127.476 6.32685C127.568 5.86272 127.772 5.48754 128.088 5.20131C128.408 4.91569 128.815 4.72694 129.309 4.63506C129.806 4.5438 130.363 4.55889 130.981 4.68034C131.893 4.85974 132.574 5.19378 133.021 5.68247C133.472 6.17176 133.676 6.75746 133.634 7.43955ZM134.063 12.9617L136.76 3.52101L138.723 4.08187L137.71 7.63134L137.77 7.64846C137.91 7.4825 138.09 7.32444 138.309 7.17428C138.532 7.02192 138.794 6.91741 139.096 6.86075C139.402 6.80189 139.754 6.82907 140.15 6.9423C140.666 7.08975 141.104 7.36101 141.463 7.75609C141.823 8.14808 142.057 8.65182 142.163 9.2673C142.271 9.8797 142.209 10.5916 141.977 11.4029C141.752 12.1927 141.434 12.8231 141.023 13.2942C140.617 13.7631 140.155 14.0751 139.639 14.2301C139.127 14.3829 138.602 14.3825 138.064 14.2289C137.683 14.1201 137.377 13.9645 137.145 13.7621C136.917 13.5607 136.746 13.3405 136.631 13.1017C136.517 12.8598 136.444 12.6278 136.411 12.4057L136.323 12.3807L135.999 13.5147L134.063 12.9617ZM136.997 9.97044C136.877 10.3915 136.83 10.7754 136.857 11.1222C136.885 11.469 136.984 11.7616 137.155 12C137.327 12.2353 137.571 12.3981 137.888 12.4885C138.208 12.5798 138.503 12.5694 138.774 12.4575C139.047 12.3424 139.284 12.1444 139.487 11.8634C139.695 11.5802 139.857 11.2327 139.975 10.8209C140.091 10.4122 140.137 10.0364 140.112 9.69356C140.087 9.3507 139.989 9.06008 139.818 8.82172C139.646 8.58336 139.4 8.41809 139.077 8.32594C138.757 8.23465 138.463 8.24193 138.193 8.34775C137.927 8.45446 137.691 8.64633 137.485 8.92336C137.28 9.2004 137.117 9.54942 136.997 9.97044ZM143.343 15.8735C143.045 15.7676 142.827 15.5712 142.688 15.2844C142.553 14.9957 142.538 14.7022 142.644 14.4041C142.749 14.109 142.945 13.8935 143.23 13.7576C143.519 13.6228 143.812 13.6083 144.111 13.7143C144.4 13.817 144.615 14.0123 144.757 14.3002C144.899 14.5881 144.918 14.8796 144.813 15.1747C144.742 15.3734 144.626 15.5374 144.465 15.6667C144.308 15.794 144.13 15.8784 143.932 15.92C143.735 15.9586 143.539 15.9431 143.343 15.8735ZM149.064 18.1898C148.367 17.8942 147.826 17.4985 147.443 17.0027C147.064 16.5052 146.849 15.9387 146.799 15.3031C146.75 14.6646 146.878 13.9878 147.181 13.2727C147.476 12.5753 147.871 12.0206 148.365 11.6087C148.859 11.1967 149.414 10.9477 150.03 10.8618C150.649 10.7771 151.291 10.8757 151.956 11.1575C152.404 11.3471 152.789 11.5957 153.114 11.9033C153.442 12.2092 153.69 12.566 153.858 12.9736C154.028 13.3826 154.102 13.8376 154.081 14.3388C154.061 14.837 153.928 15.3745 153.684 15.9512L153.465 16.4676L147.74 14.041L148.234 12.8757L152.189 14.5521C152.304 14.2814 152.346 14.0166 152.317 13.7578C152.288 13.499 152.194 13.2665 152.035 13.0602C151.88 12.8522 151.666 12.6903 151.392 12.5743C151.107 12.4533 150.826 12.4122 150.549 12.4511C150.276 12.4883 150.031 12.591 149.814 12.7593C149.598 12.9247 149.432 13.1406 149.316 13.4071L148.846 14.515C148.704 14.8505 148.643 15.1665 148.663 15.4631C148.686 15.761 148.784 16.0248 148.958 16.2545C149.131 16.4842 149.375 16.6658 149.69 16.7992C149.899 16.8878 150.103 16.9395 150.301 16.9542C150.5 16.9689 150.686 16.9436 150.859 16.8783C151.033 16.813 151.188 16.7087 151.325 16.5655L153.015 17.4174C152.75 17.7979 152.414 18.086 152.009 18.2819C151.607 18.4762 151.154 18.569 150.651 18.5605C150.152 18.5503 149.623 18.4267 149.064 18.1898ZM155.772 21.3253C155.277 21.065 154.896 20.7019 154.628 20.2361C154.365 19.7689 154.246 19.2247 154.273 18.6034C154.305 17.9807 154.512 17.3059 154.894 16.5789C155.287 15.8321 155.733 15.2744 156.234 14.9058C156.736 14.5344 157.252 14.3305 157.78 14.2941C158.312 14.2564 158.818 14.3633 159.296 14.6147C159.661 14.8066 159.932 15.0287 160.11 15.2811C160.292 15.5321 160.41 15.789 160.463 16.0517C160.521 16.3131 160.543 16.5523 160.53 16.7693L160.585 16.7983L162.303 13.5311L164.106 14.4794L159.537 23.1693L157.755 22.2322L158.303 21.1884L158.227 21.1482C158.047 21.2846 157.832 21.4011 157.583 21.4975C157.338 21.5925 157.062 21.6333 156.755 21.6199C156.451 21.6079 156.123 21.5097 155.772 21.3253ZM157.102 20.1881C157.393 20.3413 157.681 20.3915 157.965 20.3387C158.253 20.2846 158.527 20.1415 158.786 19.9095C159.048 19.679 159.281 19.3699 159.485 18.9824C159.689 18.5949 159.812 18.23 159.855 17.8878C159.898 17.5455 159.858 17.2431 159.736 16.9804C159.614 16.7177 159.408 16.5098 159.116 16.3565C158.819 16.2004 158.527 16.1493 158.238 16.2035C157.95 16.2576 157.678 16.4 157.423 16.6307C157.168 16.8613 156.942 17.1648 156.744 17.541C156.545 17.9201 156.421 18.2828 156.372 18.6292C156.328 18.9742 156.363 19.2816 156.478 19.5513C156.597 19.8196 156.805 20.0319 157.102 20.1881ZM166.653 23.9075L168.928 20.3438L170.649 21.4429L166.686 27.6491L165.034 26.5938L165.754 25.4665L165.689 25.4252C165.317 25.6994 164.897 25.8429 164.43 25.8557C163.966 25.8701 163.501 25.7286 163.035 25.431C162.62 25.1661 162.315 24.8387 162.12 24.4489C161.926 24.0591 161.85 23.6337 161.894 23.1727C161.941 22.7134 162.118 22.2405 162.425 21.7539L164.948 17.8023L166.67 18.9015L164.342 22.546C164.111 22.914 164.024 23.2664 164.083 23.603C164.141 23.9397 164.333 24.2121 164.658 24.4202C164.866 24.5527 165.09 24.6294 165.331 24.6503C165.573 24.6686 165.81 24.6187 166.04 24.5007C166.274 24.3844 166.478 24.1866 166.653 23.9075Z" fill="white"/>
</svg>
