<svg width="200" height="112" viewBox="0 0 200 112" fill="none" xmlns="http://www.w3.org/2000/svg">
<path d="M0 0H200V112H0V0Z" fill="white"/>
<path d="M62.3977 67.2575C61.5277 67.2575 60.7524 67.1065 60.0717 66.8047C59.3911 66.4969 58.8525 66.0442 58.456 65.4464C58.0653 64.8427 57.87 64.091 57.87 63.1914C57.87 62.4338 58.0091 61.7976 58.2873 61.2827C58.5655 60.7678 58.9442 60.3535 59.4237 60.0398C59.9031 59.7261 60.4476 59.4893 61.0572 59.3295C61.6727 59.1697 62.3178 59.0573 62.9925 58.9922C63.7856 58.9093 64.4248 58.8324 64.9102 58.7614C65.3955 58.6844 65.7476 58.572 65.9666 58.424C66.1856 58.276 66.2951 58.0571 66.2951 57.767V57.7138C66.2951 57.1515 66.1175 56.7165 65.7624 56.4087C65.4132 56.101 64.9161 55.9471 64.271 55.9471C63.5903 55.9471 63.0488 56.098 62.6463 56.3999C62.2438 56.6958 61.9775 57.0687 61.8473 57.5185L58.3494 57.2344C58.527 56.4058 58.8762 55.6896 59.397 55.0859C59.9179 54.4763 60.5896 54.0088 61.4123 53.6832C62.2409 53.3518 63.1997 53.1861 64.2887 53.1861C65.0463 53.1861 65.7713 53.2749 66.4638 53.4524C67.1622 53.63 67.7807 53.9052 68.3192 54.2781C68.8638 54.6509 69.2929 55.1303 69.6065 55.7163C69.9202 56.2963 70.0771 56.9917 70.0771 57.8026V67H66.4904V65.109H66.3839C66.1649 65.5352 65.8719 65.911 65.505 66.2365C65.138 66.5561 64.6971 66.8076 64.1822 66.9911C63.6673 67.1687 63.0724 67.2575 62.3977 67.2575ZM63.4808 64.6474C64.0372 64.6474 64.5284 64.5379 64.9545 64.3189C65.3807 64.094 65.7151 63.7921 65.9577 63.4134C66.2004 63.0346 66.3217 62.6055 66.3217 62.1261V60.679C66.2034 60.7559 66.0406 60.8269 65.8335 60.892C65.6322 60.9512 65.4044 61.0075 65.1499 61.0607C64.8954 61.1081 64.6409 61.1525 64.3864 61.1939C64.1319 61.2294 63.901 61.262 63.6939 61.2915C63.25 61.3567 62.8623 61.4602 62.5309 61.6023C62.1995 61.7443 61.942 61.9367 61.7585 62.1793C61.575 62.4161 61.4833 62.712 61.4833 63.0671C61.4833 63.582 61.6697 63.9756 62.0426 64.2479C62.4214 64.5142 62.9008 64.6474 63.4808 64.6474ZM73.0822 67V48.8182H76.8642V55.6541H76.9796C77.1453 55.2872 77.385 54.9143 77.6987 54.5355C78.0183 54.1508 78.4326 53.8312 78.9416 53.5767C79.4565 53.3163 80.0957 53.1861 80.8592 53.1861C81.8535 53.1861 82.7709 53.4465 83.6113 53.9673C84.4518 54.4822 85.1235 55.2605 85.6266 56.3022C86.1297 57.3379 86.3812 58.6371 86.3812 60.1996C86.3812 61.7206 86.1356 63.005 85.6444 64.0526C85.159 65.0942 84.4962 65.8844 83.6557 66.4229C82.8212 66.9556 81.8861 67.2219 80.8503 67.2219C80.1164 67.2219 79.492 67.1006 78.9771 66.858C78.4681 66.6153 78.0508 66.3105 77.7253 65.9435C77.3998 65.5707 77.1512 65.1948 76.9796 64.8161H76.8109V67H73.0822ZM76.7843 60.1818C76.7843 60.9927 76.8967 61.6999 77.1216 62.3036C77.3465 62.9073 77.6721 63.3778 78.0982 63.7152C78.5243 64.0466 79.0422 64.2124 79.6518 64.2124C80.2673 64.2124 80.7882 64.0437 81.2143 63.7063C81.6404 63.363 81.963 62.8896 82.182 62.2859C82.4069 61.6763 82.5194 60.9749 82.5194 60.1818C82.5194 59.3946 82.4099 58.7022 82.1909 58.1044C81.9719 57.5066 81.6493 57.0391 81.2232 56.7017C80.7971 56.3643 80.2733 56.1957 79.6518 56.1957C79.0363 56.1957 78.5154 56.3584 78.0893 56.6839C77.6691 57.0095 77.3465 57.4711 77.1216 58.0689C76.8967 58.6667 76.7843 59.371 76.7843 60.1818ZM95.066 67.2663C93.6869 67.2663 92.4943 66.9734 91.4882 66.3874C90.488 65.7956 89.7156 64.9729 89.1711 63.9194C88.6266 62.86 88.3543 61.6319 88.3543 60.2351C88.3543 58.8265 88.6266 57.5954 89.1711 56.5419C89.7156 55.4825 90.488 54.6598 91.4882 54.0739C92.4943 53.482 93.6869 53.1861 95.066 53.1861C96.445 53.1861 97.6346 53.482 98.6349 54.0739C99.641 54.6598 100.416 55.4825 100.961 56.5419C101.505 57.5954 101.778 58.8265 101.778 60.2351C101.778 61.6319 101.505 62.86 100.961 63.9194C100.416 64.9729 99.641 65.7956 98.6349 66.3874C97.6346 66.9734 96.445 67.2663 95.066 67.2663ZM95.0837 64.3366C95.7111 64.3366 96.2349 64.1591 96.6551 63.804C97.0753 63.4429 97.392 62.9517 97.605 62.3303C97.824 61.7088 97.9335 61.0015 97.9335 60.2085C97.9335 59.4154 97.824 58.7081 97.605 58.0866C97.392 57.4652 97.0753 56.974 96.6551 56.6129C96.2349 56.2519 95.7111 56.0714 95.0837 56.0714C94.4504 56.0714 93.9178 56.2519 93.4857 56.6129C93.0596 56.974 92.737 57.4652 92.518 58.0866C92.305 58.7081 92.1984 59.4154 92.1984 60.2085C92.1984 61.0015 92.305 61.7088 92.518 62.3303C92.737 62.9517 93.0596 63.4429 93.4857 63.804C93.9178 64.1591 94.4504 64.3366 95.0837 64.3366ZM112.981 61.1939V53.3636H116.763V67H113.132V64.5231H112.99C112.683 65.3221 112.171 65.9643 111.454 66.4496C110.744 66.9349 109.877 67.1776 108.853 67.1776C107.942 67.1776 107.14 66.9704 106.447 66.5561C105.755 66.1418 105.213 65.5529 104.823 64.7894C104.438 64.0259 104.243 63.1115 104.237 62.0462V53.3636H108.019V61.3714C108.025 62.1764 108.241 62.8126 108.667 63.2802C109.093 63.7478 109.664 63.9815 110.38 63.9815C110.836 63.9815 111.262 63.878 111.659 63.6708C112.055 63.4577 112.375 63.1441 112.617 62.7298C112.866 62.3155 112.987 61.8035 112.981 61.1939ZM127.042 53.3636V56.2045H118.83V53.3636H127.042ZM120.694 50.0966H124.476V62.8097C124.476 63.1589 124.529 63.4311 124.636 63.6264C124.742 63.8158 124.89 63.949 125.08 64.0259C125.275 64.1029 125.5 64.1413 125.754 64.1413C125.932 64.1413 126.11 64.1265 126.287 64.0969C126.465 64.0614 126.601 64.0348 126.695 64.017L127.29 66.8313C127.101 66.8905 126.835 66.9586 126.491 67.0355C126.148 67.1184 125.731 67.1687 125.24 67.1864C124.328 67.2219 123.529 67.1006 122.843 66.8224C122.162 66.5443 121.632 66.1122 121.253 65.5263C120.875 64.9403 120.688 64.2005 120.694 63.3068V50.0966ZM132.755 61.549V61.2472C132.761 60.2114 132.852 59.3858 133.03 58.7702C133.213 58.1547 133.48 57.6576 133.829 57.2788C134.178 56.9 134.598 56.5567 135.089 56.2489C135.456 56.0122 135.785 55.7666 136.075 55.5121C136.365 55.2576 136.596 54.9764 136.767 54.6687C136.939 54.355 137.025 54.0058 137.025 53.6211C137.025 53.2127 136.927 52.8546 136.732 52.5469C136.537 52.2391 136.273 52.0024 135.942 51.8366C135.616 51.6709 135.255 51.5881 134.859 51.5881C134.474 51.5881 134.11 51.6739 133.767 51.8455C133.423 52.0112 133.142 52.2598 132.923 52.5913C132.704 52.9168 132.586 53.3222 132.568 53.8075H128.946C128.976 52.6238 129.26 51.6473 129.798 50.8778C130.337 50.1025 131.05 49.5254 131.938 49.1467C132.826 48.762 133.805 48.5696 134.876 48.5696C136.054 48.5696 137.096 48.7649 138.001 49.1555C138.907 49.5402 139.617 50.0995 140.132 50.8335C140.647 51.5674 140.904 52.4522 140.904 53.4879C140.904 54.1804 140.789 54.7959 140.558 55.3345C140.333 55.8672 140.017 56.3407 139.608 56.755C139.2 57.1634 138.718 57.5333 138.161 57.8647C137.694 58.1429 137.309 58.4329 137.007 58.7347C136.711 59.0366 136.489 59.3858 136.341 59.7823C136.199 60.1789 136.125 60.6671 136.119 61.2472V61.549H132.755ZM134.512 67.2308C133.921 67.2308 133.415 67.0237 132.994 66.6094C132.58 66.1892 132.376 65.6861 132.382 65.1001C132.376 64.5201 132.58 64.023 132.994 63.6087C133.415 63.1944 133.921 62.9872 134.512 62.9872C135.075 62.9872 135.569 63.1944 135.995 63.6087C136.421 64.023 136.637 64.5201 136.643 65.1001C136.637 65.4908 136.534 65.8488 136.332 66.1744C136.137 66.494 135.88 66.7514 135.56 66.9467C135.24 67.1361 134.891 67.2308 134.512 67.2308Z" fill="black"/>
</svg>
