<svg width="200" height="112" viewBox="0 0 200 112" fill="none" xmlns="http://www.w3.org/2000/svg">
<path d="M200 112H0V0H200V112ZM95.0664 53.1865C93.6874 53.1865 92.4944 53.4824 91.4883 54.0742C90.4881 54.6602 89.7154 55.4826 89.1709 56.542C88.6264 57.5955 88.3545 58.8268 88.3545 60.2354C88.3545 61.6318 88.6266 62.8597 89.1709 63.9189C89.7154 64.9724 90.488 65.7958 91.4883 66.3877C92.4944 66.9736 93.6875 67.2666 95.0664 67.2666C96.4452 67.2665 97.6347 66.9735 98.6348 66.3877C99.6409 65.7958 100.416 64.9724 100.961 63.9189C101.505 62.8597 101.777 61.6319 101.777 60.2354C101.777 58.8268 101.505 57.5955 100.961 56.542C100.416 55.4826 99.6409 54.6602 98.6348 54.0742C97.6346 53.4824 96.4452 53.1866 95.0664 53.1865ZM64.2891 53.1865C63.2 53.1865 62.2407 53.3522 61.4121 53.6836C60.5897 54.0091 59.9182 54.4765 59.3975 55.0859C58.8766 55.6896 58.5272 56.4058 58.3496 57.2344L61.8477 57.5186C61.9779 57.0687 62.244 56.6953 62.6465 56.3994C63.0488 56.0978 63.5903 55.9473 64.2705 55.9473C64.9156 55.9473 65.4135 56.1014 65.7627 56.4092C66.1176 56.7169 66.2949 57.1518 66.2949 57.7139V57.7666C66.2949 58.0565 66.1856 58.2759 65.9668 58.4238C65.7478 58.5718 65.3955 58.6848 64.9102 58.7617C64.4248 58.8327 63.7852 58.9093 62.9922 58.9922C62.3178 59.0573 61.6729 59.1694 61.0576 59.3291C60.448 59.4889 59.9032 59.7264 59.4238 60.04C58.9445 60.3537 58.5653 60.7674 58.2871 61.2822C58.0089 61.7971 57.8701 62.4338 57.8701 63.1914C57.8701 64.091 58.0654 64.8426 58.4561 65.4463C58.8525 66.044 59.3908 66.4969 60.0713 66.8047C60.7519 67.1065 61.5275 67.2578 62.3975 67.2578C63.0722 67.2578 63.6677 67.1688 64.1826 66.9912C64.6974 66.8077 65.138 66.5559 65.5049 66.2363C65.8717 65.9109 66.1648 65.5354 66.3838 65.1094H66.4902V67H70.0771V57.8027C70.0771 56.9919 69.9201 56.2958 69.6064 55.7158C69.2928 55.1301 68.8636 54.6511 68.3193 54.2783C67.7808 53.9055 67.1622 53.6297 66.4639 53.4521C65.7715 53.2746 65.0465 53.1866 64.2891 53.1865ZM134.513 62.9873C133.921 62.9873 133.414 63.1941 132.994 63.6084C132.58 64.0227 132.376 64.5206 132.382 65.1006C132.376 65.6863 132.58 66.1893 132.994 66.6094C133.414 67.0237 133.921 67.2305 134.513 67.2305C134.891 67.2304 135.24 67.1356 135.56 66.9463C135.879 66.7511 136.137 66.4942 136.332 66.1748C136.533 65.8494 136.638 65.491 136.644 65.1006C136.638 64.5206 136.421 64.0227 135.995 63.6084C135.569 63.1942 135.075 62.9874 134.513 62.9873ZM73.082 48.8184V67H76.8105V64.8164H76.9795C77.1511 65.1951 77.4001 65.5706 77.7256 65.9434C78.0511 66.3103 78.4686 66.6157 78.9775 66.8584C79.4924 67.1009 80.1169 67.2217 80.8506 67.2217C81.8861 67.2216 82.8209 66.9554 83.6553 66.4229C84.4957 65.8843 85.1592 65.0944 85.6445 64.0527C86.1358 63.0051 86.3809 61.7203 86.3809 60.1992C86.3808 58.6369 86.13 57.3374 85.627 56.3018C85.1239 55.2603 84.4516 54.4827 83.6113 53.9678C82.7709 53.447 81.8536 53.1866 80.8594 53.1865C80.0959 53.1865 79.4563 53.3167 78.9414 53.5771C78.4326 53.8316 78.0178 54.1505 77.6982 54.5352C77.3846 54.9139 77.1452 55.2873 76.9795 55.6543H76.8643V48.8184H73.082ZM120.694 50.0967V53.3633H118.83V56.2041H120.694V63.3066C120.688 64.2003 120.874 64.9405 121.253 65.5264C121.632 66.1123 122.162 66.5441 122.843 66.8223C123.529 67.1004 124.328 67.222 125.239 67.1865C125.73 67.1688 126.148 67.118 126.491 67.0352C126.834 66.9582 127.101 66.8902 127.29 66.8311L126.695 64.0166C126.601 64.0344 126.465 64.0612 126.287 64.0967C126.11 64.1262 125.932 64.1416 125.755 64.1416C125.501 64.1416 125.275 64.1032 125.08 64.0264C124.891 63.9494 124.742 63.8154 124.636 63.626C124.529 63.4307 124.476 63.1585 124.476 62.8096V56.2041H127.042V53.3633H124.476V50.0967H120.694ZM104.236 53.3633V62.0459C104.242 63.111 104.438 64.0257 104.822 64.7891C105.213 65.5525 105.755 66.1414 106.447 66.5557C107.14 66.97 107.942 67.1777 108.854 67.1777C109.877 67.1777 110.744 66.9345 111.454 66.4492C112.17 65.964 112.682 65.3223 112.99 64.5234H113.133V67H116.764V53.3633H112.981V61.1943C112.987 61.8037 112.866 62.3153 112.617 62.7295C112.375 63.1438 112.055 63.4578 111.658 63.6709C111.262 63.8779 110.835 63.9814 110.38 63.9814C109.664 63.9814 109.093 63.7477 108.667 63.2803C108.241 62.8127 108.024 62.176 108.019 61.3711V53.3633H104.236ZM66.3213 62.126C66.3213 62.6052 66.2005 63.0344 65.958 63.4131C65.7153 63.7919 65.3802 64.0944 64.9541 64.3193C64.5281 64.5381 64.0366 64.6475 63.4805 64.6475C62.9008 64.6474 62.4216 64.5142 62.043 64.248C61.6702 63.9758 61.4835 63.5822 61.4834 63.0674C61.4834 62.7123 61.5754 62.4164 61.7588 62.1797C61.9423 61.937 62.1998 61.7446 62.5312 61.6025C62.8626 61.4605 63.2505 61.3571 63.6943 61.292C63.9014 61.2624 64.1324 61.2298 64.3867 61.1943C64.641 61.1529 64.8951 61.1079 65.1494 61.0605C65.4038 61.0073 65.6318 60.9508 65.833 60.8916C66.04 60.8265 66.2029 60.7556 66.3213 60.6787V62.126ZM95.084 56.0713C95.7112 56.0713 96.2351 56.2523 96.6553 56.6133C97.0754 56.9743 97.3924 57.4656 97.6055 58.0869C97.8243 58.7082 97.9336 59.4153 97.9336 60.208C97.9336 61.001 97.8244 61.7087 97.6055 62.3301C97.3924 62.9514 97.0754 63.4427 96.6553 63.8037C96.2351 64.1588 95.7112 64.3369 95.084 64.3369C94.4507 64.3369 93.9174 64.1588 93.4854 63.8037C93.0594 63.4427 92.7365 62.9514 92.5176 62.3301C92.3046 61.7087 92.1982 61.001 92.1982 60.208C92.1983 59.4153 92.3046 58.7082 92.5176 58.0869C92.7365 57.4657 93.0594 56.9743 93.4854 56.6133C93.9174 56.2522 94.4507 56.0713 95.084 56.0713ZM79.6514 56.1953C80.2728 56.1953 80.7975 56.3648 81.2236 56.7021C81.6495 57.0395 81.9715 57.507 82.1904 58.1045C82.4094 58.7022 82.5195 59.3945 82.5195 60.1816C82.5195 60.9747 82.4065 61.6765 82.1816 62.2861C81.9627 62.8897 81.6399 63.3628 81.2139 63.7061C80.7878 64.0433 80.2668 64.2119 79.6514 64.2119C79.042 64.2118 78.5246 64.0461 78.0986 63.7148C77.6725 63.3775 77.347 62.9073 77.1221 62.3037C76.8972 61.7 76.7842 60.9925 76.7842 60.1816C76.7842 59.371 76.8972 58.667 77.1221 58.0693C77.347 57.4716 77.6687 57.0091 78.0889 56.6836C78.5149 56.3582 79.036 56.1954 79.6514 56.1953ZM134.876 48.5693C133.805 48.5694 132.825 48.7618 131.938 49.1465C131.05 49.5253 130.336 50.1027 129.798 50.8779C129.259 51.6473 128.976 52.624 128.946 53.8076H132.568C132.586 53.3223 132.704 52.9163 132.923 52.5908C133.142 52.2595 133.423 52.0114 133.767 51.8457C134.11 51.6741 134.474 51.5879 134.858 51.5879C135.255 51.5879 135.616 51.6713 135.941 51.8369C136.273 52.0026 136.536 52.2392 136.731 52.5469C136.927 52.8546 137.024 53.2127 137.024 53.6211C137.024 54.0058 136.939 54.3553 136.768 54.6689C136.596 54.9765 136.365 55.2573 136.075 55.5117C135.785 55.7662 135.457 56.0123 135.09 56.249C134.599 56.5567 134.178 56.8997 133.829 57.2783C133.48 57.6571 133.214 58.155 133.03 58.7705C132.853 59.386 132.761 60.2114 132.755 61.2471V61.5488H136.119V61.2471C136.125 60.6671 136.199 60.1787 136.341 59.7822C136.489 59.3857 136.711 59.0362 137.007 58.7344C137.309 58.4325 137.694 58.1424 138.161 57.8643C138.717 57.5328 139.2 57.1632 139.608 56.7549C140.017 56.3407 140.334 55.8675 140.559 55.335C140.789 54.7965 140.904 54.1806 140.904 53.4883C140.904 52.4525 140.647 51.5669 140.132 50.833C139.617 50.0993 138.906 49.5399 138.001 49.1553C137.096 48.7648 136.054 48.5693 134.876 48.5693Z" fill="white"/>
</svg>
